<svg xmlns="http://www.w3.org/2000/svg" viewBox="0 0 1662.84227 1669.9692"><defs><style>.a{fill:#3db59e;}.b,.c,.g,.j,.p,.q,.r,.s,.t,.u{fill:#fff;}.b,.e,.f,.g,.h,.i,.j,.k,.l,.m,.n,.o,.p,.q,.r,.s,.t,.u{stroke:#1d1d1b;}.b,.e,.f,.g,.h,.i,.j,.k,.l,.m,.n,.o,.p,.q,.r,.s,.t,.u,.x,.y,.z{stroke-miterlimit:10;}.b{stroke-width:0.38087px;}.d,.f,.h,.i,.l{fill:#1d1d1b;}.e,.m{fill:#dadada;}.e,.j,.k,.o{stroke-width:7.61731px;}.f{stroke-width:2.13215px;}.g{stroke-width:9.39153px;}.h{stroke-width:12.07483px;}.i{stroke-width:2.14771px;}.k{fill:#c6c6c6;}.l{stroke-width:7.79888px;}.m{stroke-width:7.18249px;}.n{fill:#ededed;}.n,.q{stroke-width:3.42779px;}.o{fill:#b2b2b2;}.p{stroke-width:7.73981px;}.r{stroke-width:2.73171px;}.s{stroke-width:3.20407px;}.t{stroke-width:2.55343px;}.u{stroke-width:4.46217px;}.v{fill:#575756;}.w{fill:#936037;}.x,.y,.z{fill:none;}.x,.z{stroke:#3c3c3b;}.x,.y{stroke-width:7px;}.y{stroke:#878787;}.z{stroke-width:3px;}</style></defs><circle class="a" cx="830.97784" cy="835.12326" r="831.42113"/><path class="b" d="M760.00658,740.212c-8.43264,0-26.98356,58.73074-26.98356,58.73074l125.95436,68.93945L970.1981,790.86637l-41.66733-73.409Z"/><path class="c" d="M1440.65548,1067.24358c4.00418-3.96714,40.28607-87.54989,37.46526-102.00289-1.11681-5.72223-14.74018-22.14922-24.74673-31.53729-6.60279-6.19468-13.03822-6.54226-20.13317-10.03126-5.17223-2.5435-5.26615-5.4606-9.46586-4.99482-3.36032.3727-6.45563,4.01406-8.59368,7.07687-13.01378,18.64262-8.7279,24.526-8.60793,47.13031.00929,1.75033.12092-2.30137-4.315-11.192-2.87977-5.77183-8.23076-11.695-13.54412-8.64016-4.07869,2.345-5.97355,12.36153-5.31332,19.79328,1.27419,14.34267-3.04177,23.86712-4.99306,41.79821-1.04821,9.63228-5.36515,24.41589-5.36515,24.41589Z"/><path class="d" d="M1442.67532,1069.26342c2.32509-2.49356,3.68713-6.17657,5.139-9.1933,3.14583-6.53652,6.06888-13.18252,8.92264-19.85078,6.937-16.2093,13.55733-32.62728,18.98359-49.41131a122.48259,122.48259,0,0,0,4.96238-18.95333c.92589-6.04723-.35288-10.09012-3.79036-15.23964a130.44483,130.44483,0,0,0-22.158-25.51332c-4.69139-4.086-10.1457-6.0018-15.86667-8.14415a32.35312,32.35312,0,0,1-8.70034-4.91725,9.13379,9.13379,0,0,0-5.13214-2.25463c-6.05972-.37046-10.26616,5.4636-13.26455,9.90149a51.89224,51.89224,0,0,0-7.5712,15.45731c-2.77913,10.49016-.15676,21.47979-.48463,32.133l5.323-1.44172c.44825.80223-.69371-2.96433-.9329-3.66065a59.32467,59.32467,0,0,0-3.38021-7.92437c-2.39595-4.63262-6.39548-10.23109-12.05775-10.80535-11.11294-1.12705-12.59746,15.087-12.16772,22.73207.73255,13.03195-2.649,25.17486-4.39456,37.98844a194.216,194.216,0,0,1-5.81658,28.13441,2.93993,2.93993,0,0,0,1.99509,3.51382l67.61272,28.18391c3.38952,1.4129,4.8684-4.11262,1.51874-5.50891l-67.61272-28.18391,1.99508,3.51382a175.59838,175.59838,0,0,0,4.83367-20.60124c1.72585-10.585,3.73462-21.23863,5.16405-31.86665,1.26769-9.42548-1.77075-20.57349,2.531-29.35092,4.30383-8.78173,11.7444,5.318,13.33107,9.19763.95791,2.34219,1.225,5.33244,2.448,7.52135,1.42207,2.54507,5.23818,1.31377,5.323-1.44173.27016-8.778-1.57341-17.68158-.52566-26.43452a33.05965,33.05965,0,0,1,3.38757-10.87392c1.8225-3.63223,7.78589-15.98668,13.21459-14.30249,1.60394.49759,3.25277,2.68129,4.746,3.61558a41.70412,41.70412,0,0,0,7.78188,3.436c5.82723,2.1438,10.69234,4.3967,15.1774,8.78571,7.3069,7.15043,14.57841,15.0699,19.92816,23.822,5.23956,8.57185-.58846,20.90272-3.52443,29.79217-5.01836,15.19449-10.9522,30.108-17.216,44.82762-2.81368,6.612-5.70144,13.19747-8.77776,19.69209-1.05211,2.22118-2.11507,4.44141-3.26819,6.61248-.36979.69624-.73753,1.39665-1.14515,2.0719-.2974.49267-.91816,1.27422-.57079.90167C1436.13038,1067.91051,1440.16152,1071.95936,1442.67532,1069.26342Z"/><path class="c" d="M1451.59018,933.21211c.67673,2.341,18.28065,31.71519,3.72028,57.63933"/><path class="d" d="M1448.83572,933.97147c2.14705,6.15778,5.36035,11.7498,7.09316,18.12719,3.41434,12.56605,3.16811,25.66084-3.08492,37.31105-1.73849,3.239,3.19175,6.12762,4.933,2.88346,6.33555-11.80395,7.38887-24.96655,4.58038-37.9502-1.64927-7.62452-5.70473-15.27092-8.0127-21.89023-1.20279-3.44964-6.72389-1.96587-5.50891,1.51873Z"/><path class="c" d="M1432.59066,923.01588c.67673,2.341,21.12035,34.67987,6.56,60.604"/><path class="d" d="M1429.8362,923.77525c2.38581,6.72906,6.28721,12.78106,8.45441,19.68269,4.0143,12.78385,4.89943,26.5907-1.60647,38.72022-1.73754,3.23945,3.19266,6.12811,4.933,2.88345,6.60869-12.32116,6.7475-26.22169,3.22741-39.51854a98.54277,98.54277,0,0,0-5.67067-15.52172c-.81681-1.79633-1.686-3.56679-2.57846-5.32655-.28378-.55956-1.44459-2.98628-1.2503-2.43829-1.22011-3.44127-6.74194-1.959-5.50891,1.51874Z"/><path class="c" d="M1416.27389,923.7093c.67673,2.341,17.60392,29.37417,3.04355,55.2983"/><path class="d" d="M1413.51944,924.46867c2.03473,5.75427,5.11775,10.9422,6.74476,16.91528,3.34488,12.27973,2.66093,24.854-3.41326,36.18193-1.73713,3.23963,3.193,6.12832,4.933,2.88345a53.28194,53.28194,0,0,0,4.92143-36.72693c-1.50006-7.15591-5.6187-14.9515-7.677-20.77246-1.21733-3.44264-6.739-1.96011-5.5089,1.51873Z"/><path class="c" d="M1406.57337,972.8845a67.28349,67.28349,0,0,1,5.54762,34.33771"/><path class="d" d="M1404.10688,974.32622c4.898,9.96615,6.24552,21.99327,5.15761,32.896-.36474,3.65544,5.35076,3.63012,5.713,0,1.19195-11.94555-.59692-24.91253-5.93761-35.77944-1.62155-3.29942-6.55039-.40753-4.933,2.88345Z"/><path class="c" d="M1453.24788,993.08085s-18.24635-14.03758-29.08872-13.4045l-10.84238.63308"/><path class="d" d="M1454.83454,990.3664a83.59557,83.59557,0,0,0-20.443-11.78772c-6.96764-2.67617-13.79387-1.838-21.07478-1.4129-4.02168.23482-4.04868,6.52369,0,6.2873,6.688-.39051,13.01031-1.30787,19.40336,1.18831a79.803,79.803,0,0,1,18.94108,11.15391c3.213,2.45665,6.34807-3.00152,3.17332-5.4289Z"/><path class="c" d="M358.2983,1470.43254c0,5.63663-33.84029,90.23738-46.09282,98.40573-4.851,3.234-26.10881,5.1177-39.82069,4.61663-9.04775-.33062-13.824-4.65763-21.29605-7.24217-5.44715-1.88414-7.58552.10224-10.21044-3.209-2.10028-2.64942-1.692-7.41113-1.021-11.08561,4.08417-22.36572,11.2801-23.46189,27.42231-39.28587,1.25-1.2253-1.54975,1.70563-10.98759,4.81182-6.127,2.01654-14.10091,2.38411-15.67037-3.54048-1.20477-4.5479,4.57718-12.94373,10.32126-17.70527,11.08562-9.1894,14.814-18.95882,26.17866-32.96512,6.1049-7.524,13.56863-20.99554,13.56863-20.99554Z"/><path class="d" d="M355.44181,1470.43254c.0175-.44162.00551.08337-.1556.70237-.15117.58079-.31464,1.15682-.484,1.73248-.615,2.09031-1.34646,4.15022-2.07593,6.20263-2.15271,6.05676-4.49529,12.04738-6.89283,18.01077-5.9728,14.85612-12.3415,29.58821-19.44508,43.94178a197.86942,197.86942,0,0,1-9.69295,17.78979c-1.993,3.164-4.10718,6.954-7.69382,8.3861-8.94342,3.571-20.47451,3.34881-29.94776,3.46707-5.763.07194-11.07992-.15587-16.46624-2.453-4.75024-2.02585-9.20636-4.83643-14.40046-5.59567-3.364-.49172-5.68938-.33513-6.0021-4.77155-.22662-3.21509.62042-6.5378,1.35161-9.64805a40.52819,40.52819,0,0,1,5.66278-13.929c5.37935-7.81537,13.90572-13.0747,20.37785-19.89409a2.87893,2.87893,0,0,0-2.77922-4.77429c-2.65805.7391-5.23705,2.84722-7.83821,3.866-3.30523,1.29456-13.982,5.37569-15.58379-.3217-1.23427-4.39016,5.22337-10.89172,7.97774-13.48862,3.8433-3.62358,7.65093-6.95537,10.93514-11.13581,6.57015-8.36305,12.477-17.31619,18.84852-25.83853a167.86041,167.86041,0,0,0,12.0192-19.00188l-3.22587,1.31273,67.60815,28.19489c3.38924,1.41342,4.86808-4.11212,1.51873-5.50891l-67.60814-28.19489a2.8577,2.8577,0,0,0-3.22587,1.31273,193.85154,193.85154,0,0,1-15.89249,23.93337c-4.107,5.34751-7.75589,11.00354-11.67133,16.4867-3.93481,5.51029-8.455,9.78876-13.34572,14.39991-5.6174,5.29624-15.54264,18.616-5.20222,24.49646,4.262,2.42375,9.84358,1.59429,14.31565.27613a57.21036,57.21036,0,0,0,8.62715-3.37826,12.19041,12.19041,0,0,0,2.50769-1.3161c.2586-.21855,1.98518-.92756.75441-.58533l-2.77921-4.77429c-6.3465,6.687-14.27284,11.88356-19.93009,19.22508-5.8232,7.55687-9.87879,19.46262-9.072,29.01343.35252,4.17345,2.41551,8.14678,6.74274,9.20255,2.34059.57106,4.71139.43713,7.05117,1.1916,3.25443,1.0494,6.259,2.79444,9.37478,4.17835,10.70693,4.7556,23.12524,3.51017,34.51157,2.39945,6.81729-.665,16.16859-.81189,21.43469-5.87908,4.03462-3.88221,6.90044-9.28352,9.59415-14.11539,8.50627-15.25819,15.50021-31.40462,22.22649-47.50785,3.42923-8.20985,6.75385-16.47087,9.81428-24.82612,1.44365-3.94131,3.70005-8.5075,3.86947-12.784C361.30044,1466.756,355.58721,1466.76248,355.44181,1470.43254Z"/><path class="c" d="M270.78029,1572.53347c2.13933-1.1669,35.39618-9.33525,43.56452-37.92447"/><path class="d" d="M272.222,1575c-.3977.19439,1.396-.47543,2.01192-.69267,1.6305-.57512,3.25435-1.16544,4.85949-1.80864a86.4545,86.4545,0,0,0,13.96373-6.987c11.29882-7.11473,20.1419-17.23372,24.04211-30.14324,1.06561-3.52714-4.44671-5.03458-5.50891-1.51874-3.78607,12.53171-12.8558,21.89277-24.0338,28.30075-5.85247,3.355-12.24306,4.99615-18.218,7.9166-3.3027,1.6143-.4102,6.54287,2.88345,4.933Z"/><path class="c" d="M250.16494,1566.21273c2.13933-1.16691,39.50084-9.40455,47.66919-37.99377"/><path class="d" d="M251.60666,1568.67922c-.75665.36447,1.55708-.47637,2.13775-.663,1.87026-.60108,3.73522-1.2147,5.58127-1.88731a99.78876,99.78876,0,0,0,15.20544-6.91423c11.98349-6.81735,21.98854-16.80649,26.05746-30.23635,1.0684-3.52634-4.444-5.03356-5.50891-1.51873-3.95715,13.061-14.343,22.155-26.12542,28.28742-6.51015,3.38837-13.70868,4.85753-20.231,7.99921-3.31126,1.595-.41712,6.52281,2.88345,4.933Z"/><path class="c" d="M239.17358,1554.1335c2.13933-1.16691,33.25685-8.16835,41.42519-36.75757"/><path class="d" d="M240.61531,1556.6c-.78406.38155,1.55952-.5125,2.01986-.67037,1.508-.51715,3.00951-1.04892,4.49371-1.63153a76.80674,76.80674,0,0,0,13.21793-6.58809c10.987-6.991,19.22334-17.03361,23.00642-29.5747,1.0641-3.52756-4.44817-5.03513-5.50891-1.51874-3.66556,12.15151-12.03567,21.4459-22.9295,27.69939-5.52013,3.16877-11.552,4.61084-17.183,7.351-3.3053,1.60847-.41231,6.53682,2.88346,4.933Z"/><path class="c" d="M267.27957,1512.63225a67.28334,67.28334,0,0,0,28.29749-20.22638"/><path class="d" d="M268.03894,1515.38671c11.44971-3.83723,21.94954-11.7276,29.558-20.961,2.32065-2.81628-1.6989-6.88041-4.03969-4.03968-6.97955,8.4702-16.49712,15.95946-27.037,19.49177-3.46829,1.16236-1.9811,6.68183,1.51874,5.50891Z"/><path class="c" d="M314.47688,1531.57469s-22.8141-3.08212-29.99538-11.22995l-7.18127-8.14783"/><path class="d" d="M315.31259,1528.54333a82.7941,82.7941,0,0,1-20.45557-5.254c-6.70222-2.80455-10.651-8.002-15.3339-13.31527-2.68065-3.04145-7.11324,1.41931-4.44579,4.44579,4.98482,5.65574,9.25622,11.0697,16.30689,14.1748a84.0519,84.0519,0,0,0,22.257,6.01143c3.95693.546,5.66827-5.51124,1.67141-6.06271Z"/><path class="e" d="M531.44112,867.88222s-162.2,359.40732-176.20293,388.58-61.84607,142.36263-56.01153,152.8648,64.17988,30.33957,71.18132,28.00576,110.85615-189.03891,117.85759-213.54395,85.91261-105.64776,78.52721-140.02883-12.01352-215.87777-12.01352-215.87777Z"/><path class="e" d="M1127.01409,849.21171s95.72555,331.49957,112.68526,348.11387c11.775,11.53518,134.0037-145.75848,128.16916-135.25631s85.18432,31.21014,78.18288,28.87633-150.49158,216.605-221.63284,206.35152c-47.02683-6.77791-140.14152-197.82657-132.75612-232.20764S1103.676,849.21171,1103.676,849.21171Z"/><path class="e" d="M666.951,804.8118s-132.0092,51.40136-135.50992,63.07042,56.16025,348.90515,67.755,381.57855,54.77026,172.70221,47.76882,175.61948-2.33381,23.92159,4.66763,29.75612,344.49776,16.3367,362.4547,7.00144,15.62312-28.00576,10.95549-28.00576,47.84318-176.78639,49.01009-228.422,52.96128-356.19832,52.96128-356.19832l-156.816-58.34534-130.8129,52.8242Z"/><path class="f" d="M595.90869,466.0104S556.19014,177.199,692.55713,125.75513,918.74669,98.80836,918.74669,98.80836s136.367,24.49706,171.47945,92.27227,54.7101,47.361,54.7101,47.361,4.08285,15.51481-13.88166,17.96452-39.36069,221.45756-39.36069,221.45756Z"/><path class="g" d="M618.24808,328.26408c-.46058,19.34041-2.63646,110.79624-3.26485,137.18362,0,0-47.228-6.19943-48.17748,31.02968-.9578,37.56226,51.44233,44.09458,51.44233,44.09458s22.30949,243.48337,232.19125,243.28867c173.7723-3.9931,220.31936-210.06579,221.8571-241.38235.1086-2.21183,1.16327-1.96589,3.36839-2.16947,39.78518-3.673,60.11722-71.25-9.93553-76.49432l-1.63243-135.55041s-82.51628-66.58172-91.20545-61.36609c-26.74152,16.05144-99.89769,33.97517-299.11536,1.75668,0,0-19.84262,9.83774-55.528,59.60941"/><path class="d" d="M706.03946,369.91007s37.52481-7.38382,53.96712-4.64343"/><path class="d" d="M707.82277,376.37868c6.30556-1.23493,12.66666-2.25776,19.03438-3.10973,10.075-1.348,21.257-3.07869,31.36612-1.5337,3.60887.55155,7.16909-.91426,8.25193-4.6853.90945-3.1672-1.11005-7.70551-4.6853-8.25192-18.75227-2.86594-39.08431,1.03014-57.53376,4.64343-8.46506,1.65787-4.88147,14.59177,3.56663,12.93722Z"/><path class="d" d="M928.53077,364.26278s35.63459,0,53.83869,5.95039"/><path class="d" d="M928.53077,370.971c17.17261.01754,35.58341.51269,52.05538,5.71077,8.253,2.60441,11.78469-10.34385,3.56663-12.93723-17.5484-5.53776-37.31648-6.17132-55.622-6.19-8.63323-.00882-8.64677,13.40764,0,13.41647Z"/><ellipse class="h" cx="947.30976" cy="445.97563" rx="18.77899" ry="12.19934"/><ellipse class="h" cx="736.30959" cy="445.97563" rx="18.77899" ry="12.19934"/><ellipse class="i" cx="843.94664" cy="623.29933" rx="15.03075" ry="9.76438"/><path class="d" d="M791.5784,694.35269c8.85772,7.50278,20.569,12.232,31.80148,14.59658,27.67133,5.82505,55.21817-2.75272,78.52709-17.77328,7.23388-4.6616.51487-16.28019-6.77155-11.58473-20.44072,13.17225-44.77216,21.67448-69.1778,16.206a67.66281,67.66281,0,0,1-18.947-7.1356c-1.82372-1.02411-3.56344-2.1559-5.2955-3.32462-2.2704-1.532.4202.43515-.64982-.47119-6.5511-5.549-16.08714,3.89624-9.48688,9.48688Z"/><path class="e" d="M726.21421,748.58748s-47.15937,27.40083-59.41189,49.28033,135.94465,113.19,135.94465,113.19,41.39791-62.72125,36.30961-70.59787S726.21421,748.58748,726.21421,748.58748Z"/><path class="e" d="M957.27323,748.58748s43.8479,32.65191,56.10042,54.53141S876.03386,914.55834,876.03386,914.55834s-36.6913-66.22181-31.603-74.09843S957.27323,748.58748,957.27323,748.58748Z"/><path class="j" d="M829.15362,1460.96263s-4.81888-279.18246-6.56924-302.81232,16.4722-317.6904,16.4722-317.6904-16.46143,410.45949-9.903,441.966S829.15362,1460.96263,829.15362,1460.96263Z"/><path class="j" d="M649.88217,1026.58156c-1.75036,4.08417-11.08562,53.09426-11.08562,53.09426l9.91222-.25368,104.0774-2.66359-7.21764-50.177Z"/><path class="k" d="M648.70877,1079.42214s2.06734,51.59758,17.37361,65.017,69.56744,6.27212,69.56744,6.27212l4.66763-71.28913"/><path class="j" d="M1026.20963,1026.58156c1.75036,4.08417,11.08562,53.09426,11.08562,53.09426l-9.91222-.25368-104.0774-2.66359,7.21764-50.177Z"/><path class="k" d="M1027.383,1079.42214s-2.06734,51.59758-17.37361,65.017-69.56744,6.27212-69.56744,6.27212l-4.66763-71.28913"/><path class="j" d="M1085.939,899.11867s17.56086-5.83434,19.02319-21.28893-36.46655-30.26262-46.48409-35.17324-41.89877-11.56176-44.95011-12.796-13.83782,28.10844-9.9139,29.61447l3.92393,1.506Z"/><rect class="l" x="648.70877" y="1454.83637" width="379.9401" height="56.01153"/><rect class="j" x="807.27325" y="1460.96263" width="62.81114" height="42.88383"/><path class="e" d="M1361.98176,1060.632s-7.76492-5.21238-4.42527-11.42107,8.54273-14.04684,12.23058-16.72363,82.696,31.26831,82.77126,38.87524-4.65764,28.92607-11.70578,27.86924S1361.98176,1060.632,1361.98176,1060.632Z"/><path class="m" d="M365.14544,1444.50584s6.85333,4.78048,4.3838,11.33374-6.42075,14.89375-9.38418,17.8725-71.61614-26.213-72.11-33.95776,2.29757-29.7875,8.3104-29.19175S365.14544,1444.50584,365.14544,1444.50584Z"/><path class="n" d="M570.1524,860.7025s-15.139-22.24928.18711-34.37044,49.448-39.7303,62.72946-21.12806,14.27661,24.90173,14.27661,24.90173"/><path class="n" d="M595.013,895.983s18.36366,38.72652,34.83448,42.3834,50.94947-11.7845,46.578-30.31417-14.05178-44.8364-14.05178-44.8364Z"/><path class="i" d="M575.1396,841.42355s28.88728,35.39618,39.82386,64.95782,1.2559,15.31342,1.2559,15.31342S576.3065,852.1202,575.1396,849.00845,575.1396,841.42355,575.1396,841.42355Z"/><path class="j" d="M582.90888,899.11867s-17.56085-5.83434-19.02318-21.28893,36.46655-30.26262,46.48409-35.17324,41.89877-11.56176,44.95011-12.796,13.83782,28.10844,9.9139,29.61447l-3.92393,1.506Z"/><path class="o" d="M648.70869,1510.84784c-8.57431,22.86086-28.53608,128.73494-28.53608,128.73494s312.05357,72.4537,446.06521-6.79142c0,0-18.98389-101.52925-37.589-116.0592S648.70869,1510.84784,648.70869,1510.84784Z"/><line class="p" x1="834.27847" y1="1508.31888" x2="834.27847" y2="1666.5444"/><line class="q" x1="956.3661" y1="1026.58156" x2="925.66979" y2="1060.75335"/><line class="q" x1="1031.83941" y1="1045.91378" x2="1003.3454" y2="1077.63393"/><line class="q" x1="965.69123" y1="1028.82202" x2="925.66979" y2="1073.37475"/><line class="q" x1="975.24956" y1="1028.16178" x2="932.81123" y2="1075.40506"/><line class="q" x1="984.59005" y1="1028.62116" x2="942.59182" y2="1075.37451"/><line class="q" x1="994.82017" y1="1028.65171" x2="951.17002" y2="1077.24401"/><line class="q" x1="1005.8145" y1="1028.16178" x2="962.16435" y2="1076.75408"/><line class="q" x1="1016.48281" y1="1028.16178" x2="972.83267" y2="1076.75408"/><line class="q" x1="1025.68746" y1="1029.19498" x2="982.17507" y2="1077.63393"/><line class="q" x1="1029.90726" y1="1036.44516" x2="992.90765" y2="1077.63393"/><line class="r" x1="948.16147" y1="1025.82388" x2="925.66979" y2="1049.33593"/><line class="r" x1="1031.00997" y1="1057.49686" x2="1011.40746" y2="1077.98867"/><line class="r" x1="1035.03849" y1="1061.58362" x2="1019.96252" y2="1077.54535"/><line class="q" x1="719.77941" y1="1026.87697" x2="750.47571" y2="1061.04876"/><line class="q" x1="644.30609" y1="1046.20919" x2="672.8001" y2="1077.92934"/><line class="q" x1="710.45427" y1="1029.11743" x2="750.47571" y2="1073.67017"/><line class="q" x1="700.89594" y1="1028.4572" x2="743.33427" y2="1075.70047"/><line class="q" x1="691.55545" y1="1028.91658" x2="733.55368" y2="1075.66993"/><line class="q" x1="681.32533" y1="1028.94712" x2="724.97548" y2="1077.53942"/><line class="q" x1="670.331" y1="1028.4572" x2="713.98115" y2="1077.0495"/><line class="q" x1="659.66269" y1="1028.4572" x2="703.31284" y2="1077.0495"/><line class="q" x1="650.45804" y1="1029.49039" x2="693.97043" y2="1077.92934"/><line class="q" x1="646.23824" y1="1036.74058" x2="683.23785" y2="1077.92934"/><line class="r" x1="727.98403" y1="1026.1193" x2="750.47571" y2="1049.63134"/><line class="r" x1="645.13553" y1="1057.79228" x2="664.73804" y2="1078.28409"/><line class="r" x1="641.10702" y1="1061.87903" x2="656.18298" y2="1077.84077"/><line class="s" x1="807.13764" y1="1475.03926" x2="833.772" y2="1504.6892"/><line class="s" x1="860.03417" y1="1458.44585" x2="870.75186" y2="1468.75088"/><line class="s" x1="851.30329" y1="1458.87525" x2="870.75186" y2="1480.52583"/><line class="s" x1="841.74083" y1="1458.9038" x2="872.26538" y2="1492.88439"/><line class="s" x1="831.46405" y1="1458.44585" x2="872.26538" y2="1503.86678"/><line class="s" x1="821.492" y1="1458.44585" x2="862.29332" y2="1503.86678"/><line class="s" x1="812.88809" y1="1459.41161" x2="853.56065" y2="1504.6892"/><line class="s" x1="808.94369" y1="1466.18862" x2="843.52853" y2="1504.6892"/><line class="t" x1="807.91295" y1="1485.86638" x2="826.23611" y2="1505.0208"/><line class="t" x1="804.14736" y1="1489.68642" x2="818.23939" y2="1504.60641"/><circle class="s" cx="578.7988" cy="879.87619" r="2.55261"/><circle class="s" cx="1091.1752" cy="879.87619" r="2.55261"/><path class="u" d="M1378.70069,1025.74071c.96278-5.26394-4.22561-60.09411,2.241-68.75156,7.69882-10.30716,12.45329-11.26283,20.69462,7.67784s9.791,31.95349,9.791,31.95349"/><path class="v" d="M1236.36245,939.31221l50.89511,44.78828,19.14894-24.10511s-7.65958-11.494,0-20.68317,23.74468-5.6195,23.74468-5.6195l8.42553-9.5028,19.53192,17.171,24.12766-26.32193-19.9149-17.4691s9.95745-6.12766,6.51064-11.10638a63.651,63.651,0,0,0-7.27659-8.65928s29.13685-37.29817,41.9514-43.80881,16.1008-9.95745,16.1008-9.95745-45.47578-15.31915-64.01931,1.9149-22.7563,26.80851-22.7563,26.80851-6.51064-9.57447-11.10638-7.2766S1279.981,889.5273,1279.981,889.5273s2.29787,9.42056,7.27659,10.072-18,19.50925-18,19.50925-11.87234,1.05706-12.63829-2.38975S1236.36245,939.31221,1236.36245,939.31221Z"/><path class="w" d="M1408.82938,992.5786s62.35123,62.15593,75.37251,60.75882,30.25532-14.80137,22.59574-33.18435S1391.521,915.98286,1385.39338,908.32328s-34.53,32.55319-33.1586,34.46809,20.91436,18.383,20.91436,18.383,2.66977-14.55319,12.24424-14.55319S1408.82938,992.5786,1408.82938,992.5786Z"/><line class="x" x1="1238.92003" y1="937.30207" x2="1287.68565" y2="979.00764"/><line class="y" x1="1243.55514" y1="931.8823" x2="1292.32077" y2="973.58787"/><path class="z" d="M1334.60069,853.36579c4.06592-8.31079,15.31738-28.39185,34.46826-32.36157,7.457-1.54566,16.55127-.7395,24.89356,0a155.7786,155.7786,0,0,1,23.16992,3.82959"/></svg>