<svg xmlns="http://www.w3.org/2000/svg" xmlns:xlink="http://www.w3.org/1999/xlink" viewBox="0 0 1665.06773 1665.06773"><defs><style>.a{fill:none;}.b{fill:#dd7f18;}.c{clip-path:url(#a);}.d,.e,.i,.l,.q,.r,.s,.t,.u{fill:#fff;}.d,.g,.h,.i,.j,.k,.l,.m,.n,.o,.p,.q,.r,.s,.t,.u,.v{stroke:#1d1d1b;stroke-miterlimit:10;}.d{stroke-width:0.27515px;}.f,.h,.j,.k,.n{fill:#1d1d1b;}.g,.v{fill:#dadada;}.g,.l,.m,.p{stroke-width:5.50294px;}.h{stroke-width:1.54032px;}.i{stroke-width:6.78469px;}.j{stroke-width:8.72317px;}.k{stroke-width:1.55156px;}.m{fill:#c6c6c6;}.n{stroke-width:5.63411px;}.o{fill:#ededed;}.o,.r{stroke-width:2.47632px;}.p{fill:#b2b2b2;}.q{stroke-width:5.59144px;}.s{stroke-width:1.97346px;}.t{stroke-width:2.31471px;}.u{stroke-width:1.84466px;}.v{stroke-width:5.18882px;}</style><clipPath id="a"><circle class="a" cx="832.53387" cy="832.53387" r="832.53387"/></clipPath></defs><circle class="b" cx="832.53387" cy="832.53387" r="832.53387"/><g class="c"><path class="d" d="M228.63905,876.53943c-6.092,0-19.49362,42.42861-19.49362,42.42861l90.99269,49.80365,80.34873-55.63825-30.10156-53.03258Z"/><path class="e" d="M625.79437,1390.32725c0,4.072,24.44711,65.18982,33.29865,71.09085,3.5045,2.33633,18.86168,3.69716,28.7675,3.33518,6.53633-.23886,9.98682-3.3648,15.38482-5.23194,3.93516-1.36115,5.48.07387,7.37628-2.31826,1.5173-1.914,1.22237-5.354.73763-8.00853-2.95051-16.15758-8.149-16.94948-19.81059-28.38113-.903-.88519,1.11959,1.23219,7.93772,3.47618,4.42634,1.4568,10.18686,1.72234,11.32069-2.55773.87035-3.28552-3.30668-9.35089-7.45635-12.79075-8.00854-6.63866-10.702-13.69634-18.91214-23.81486-4.41034-5.4355-9.80233-15.16772-9.80233-15.16772Z"/><path class="f" d="M623.73077,1390.32725c.13862,2.62154,1.38767,5.32011,2.25754,7.75238,1.85444,5.18525,3.88735,10.30861,5.9701,15.40572,4.8331,11.8281,9.92083,23.621,15.87714,34.9332a70.7405,70.7405,0,0,0,7.36807,12.00574c2.97322,3.63337,6.81572,4.46046,11.37121,5.16112,7.89743,1.21467,17.2248,2.42532,25.12377.76607,4.33587-.91079,7.917-3.53871,12.09533-4.84025,3.06713-.95539,6.27-.26429,8.44822-3.05778,4.37306-5.60845-.051-17.35779-3.209-22.72877a33.98431,33.98431,0,0,0-6.36194-7.52221c-2.75924-2.56545-8.09082-6.09183-9.53181-8.63293l-2.8234,2.8234c4.93774,3.09691,12.93691,6.75843,18.747,4.148,7.08278-3.1822,2.72771-11.3365-.74858-15.50776-2.9213-3.50533-6.67606-6.15-9.56954-9.71054-3.32313-4.08922-6.04814-8.63947-9.16566-12.88231-4.68761-6.37969-9.2982-12.58744-13.16106-19.52336a2.07486,2.07486,0,0,0-2.33045-.94835l-48.84187,20.36872c-2.41572,1.00743-1.35554,5.00264,1.09717,3.97977l48.84187-20.36871-2.33044-.94835c6.1025,10.95728,13.82592,21.20638,21.37829,31.19536,4.03178,5.33254,10.74018,9.32281,13.61872,15.41424,4.617,9.77026-12.14881,3.29149-15.45236,1.21954a2.07924,2.07924,0,0,0-2.8234,2.8234c1.213,2.139,4.01675,3.94706,5.82554,5.56956,2.20627,1.979,4.5007,3.88812,6.55045,6.03392,4.35671,4.56085,8.04515,12.32088,7.7054,18.76919-.27859,5.28763-5.08581,4.6874-8.88091,6.25151-4.313,1.77757-8.14757,4.09123-12.9156,4.41287a88.0924,88.0924,0,0,1-23.09773-1.59423c-7.94878-1.64505-11.05447-10.21968-14.45482-16.86678-5.22425-10.21252-9.82884-20.75677-14.17623-31.36805-2.01958-4.92949-3.98742-9.884-5.80678-14.89133-.80181-2.20679-2.371-5.82673-2.467-7.642C627.71827,1387.685,623.59019,1387.66856,623.73077,1390.32725Z"/><path class="e" d="M689.01965,1464.08761c-1.5455-.843-25.57111-6.744-31.47214-27.39762"/><path class="f" d="M690.06119,1462.30575c-4.225-1.99846-8.68982-3.19453-12.81076-5.52125-8.25526-4.661-14.87662-11.4423-17.713-20.6431-.7801-2.53049-4.76534-1.451-3.97978,1.09718,2.8334,9.191,8.98054,16.39354,17.01158,21.548,4.71422,3.02566,11.0542,5.02311,15.40891,7.08291,2.388,1.12955,4.48519-2.4275,2.08308-3.56372Z"/><path class="e" d="M703.91272,1459.52134c-1.54551-.843-28.53643-6.79409-34.43746-27.44768"/><path class="f" d="M704.95426,1457.73948c-4.62826-2.1442-9.642-3.22922-14.23721-5.58359-8.70427-4.4597-16.28127-11.04047-19.2519-20.63081-.78343-2.5292-4.76878-1.45-3.97978,1.09717,2.96054,9.55775,9.91068,16.68046,18.44089,21.6234,5.2163,3.02264,12.23978,4.87774,16.94492,7.05755,2.39439,1.10928,4.49323-2.44713,2.08308-3.56372Z"/><path class="e" d="M711.85316,1450.795c-1.54551-.843-24.02561-5.901-29.92663-26.55462"/><path class="f" d="M712.8947,1449.01313c-3.97367-1.86547-8.18031-2.92512-12.05776-5.10978-8.05062-4.536-14.17531-11.29583-16.92052-20.21156-.77926-2.53083-4.76448-1.45131-3.97978,1.09717a38.47724,38.47724,0,0,0,16.25731,21.13078c4.47142,2.90368,10.47722,4.71334,14.61767,6.65711,2.39037,1.12218,4.48815-2.43464,2.08308-3.56372Z"/><path class="e" d="M691.54866,1420.81342a48.6073,48.6073,0,0,1-20.44284-14.61206"/><path class="f" d="M692.09725,1418.82353c-7.61862-2.56009-14.47636-7.96939-19.53224-14.08136-1.69438-2.04832-4.5999.8856-2.91837,2.91837a48.77,48.77,0,0,0,21.35344,15.14277c2.52337.84793,3.60594-3.13676,1.09717-3.97978Z"/><path class="e" d="M657.4521,1434.49792s16.4815-2.22659,21.66944-8.1128l5.18794-5.8862"/><path class="f" d="M658.05584,1436.68785a60.577,60.577,0,0,0,15.866-4.25634c5.20642-2.28068,8.31089-6.14849,11.99347-10.32672,1.92621-2.18546-1.27435-5.40992-3.21176-3.21175-3.46266,3.92872-6.37081,7.66692-11.3331,9.70892a60.268,60.268,0,0,1-14.52213,3.706c-2.88272.40089-1.65586,4.778,1.20747,4.37986Z"/><path class="g" d="M63.51744,968.77169S-53.66008,1228.41684-63.77612,1249.49193s-44.6792,102.84646-40.46418,110.43349,46.3652,21.9181,51.42323,20.23209S27.26828,1243.5909,32.3263,1225.88783s62.0655-76.32268,56.7301-101.16045-8.67888-155.95569-8.67888-155.95569Z"/><path class="g" d="M493.77478,955.28363s117.17751,259.64515,127.29356,280.72024,44.6792,102.84646,40.46418,110.43349-46.36521,21.9181-51.42323,20.23209-80.08535-136.56661-85.14338-154.26968-62.06549-76.32268-56.73009-101.16045,8.67888-155.95569,8.67888-155.95569Z"/><path class="g" d="M161.41331,923.208s-95.36686,37.13367-97.89587,45.56371,40.57162,252.05811,48.94794,275.66222,39.56745,124.76455,34.50943,126.87206-1.686,17.28158,3.372,21.4966,248.8741,11.80205,261.84666,5.058S423.48,1377.6285,420.108,1377.6285s34.56315-127.71507,35.40616-165.018,38.2606-257.32689,38.2606-257.32689L380.48685,913.13344,285.98422,951.295Z"/><path class="h" d="M110.09048,678.44907S81.39677,469.80421,179.91182,432.63985s163.40519-19.467,163.40519-19.467,98.51505,17.69731,123.8812,66.65988,39.524,34.21481,39.524,34.21481,2.94955,11.20829-10.02848,12.978S468.25855,687.0122,468.25855,687.0122Z"/><path class="i" d="M126.229,578.93756c-.33274,13.972-1.90465,80.04208-2.35862,99.105,0,0-34.11873-4.47862-34.80465,22.41665-.69194,27.13595,37.16327,31.85506,37.16327,31.85506s16.117,175.8987,167.741,175.758c125.53761-2.88472,159.16441-151.757,160.27531-174.38086.07846-1.59788.84038-1.42021,2.43341-1.56728,28.74185-2.6535,43.43024-51.47288-7.17768-55.26148l-1.17931-97.92513s-59.61189-48.10035-65.88918-44.33245c-19.31876,11.596-72.16867,24.54455-216.08868,1.26907,0,0-14.33482,7.107-40.11484,43.06338"/><path class="f" d="M189.6518,609.02371s27.1089-5.33426,38.98725-3.35454"/><path class="f" d="M190.94011,613.6968c11.50493-2.24912,24.70478-5.0846,36.41063-3.35454,6.10159.90179,8.73471-8.43605,2.57662-9.34618-13.57615-2.00649-28.20616.74321-41.56387,3.35453-6.11572,1.19558-3.52667,10.53933,2.57662,9.34619Z"/><path class="f" d="M350.38529,604.944s25.74334,0,38.89446,4.29872"/><path class="f" d="M350.38529,609.79016c12.42912.01751,25.67478.409,37.60615,4.1256,5.969,1.85933,8.52217-7.49415,2.57663-9.34618-12.71254-3.95995-26.93585-4.45316-40.18278-4.47183-6.237-.00879-6.24654,9.68361,0,9.69241Z"/><ellipse class="j" cx="363.95172" cy="663.97544" rx="13.56643" ry="8.81312"/><ellipse class="j" cx="211.51973" cy="663.97544" rx="13.56643" ry="8.81312"/><ellipse class="k" cx="289.27952" cy="792.07867" rx="10.8586" ry="7.05404"/><path class="f" d="M251.44735,843.40946c22.85253,19.29815,56.67514,12.46315,79.70422-2.29493,5.23554-3.35518.3805-11.74794-4.892-8.36911-14.83737,9.50846-32.418,15.694-50.11023,11.67733a50.29526,50.29526,0,0,1-13.324-4.99667c-1.36141-.75539-2.65075-1.603-3.95022-2.45651-1.4006-.91995.09978.15551-.57424-.41368-4.73779-4.00089-11.62752,2.82213-6.85357,6.85357Z"/><path class="g" d="M204.22656,882.59008s-34.06915,19.79506-42.92068,35.60138,98.20993,81.77137,98.20993,81.77137,29.90692-45.31146,26.231-51.00173S204.22656,882.59008,204.22656,882.59008Z"/><path class="g" d="M371.14958,882.59008s31.67687,23.58858,40.5284,39.3949-99.21782,80.50674-99.21782,80.50674-26.50675-47.84035-22.83083-53.53062S371.14958,882.59008,371.14958,882.59008Z"/><path class="l" d="M278.59266,1397.22833s-3.48128-201.68864-4.74579-218.75946S285.74682,948.9611,285.74682,948.9611s-11.89217,296.52656-7.15416,319.28766S278.59266,1397.22833,278.59266,1397.22833Z"/><path class="l" d="M149.08232,1083.4202c-1.2645,2.95051-8.00853,38.35666-8.00853,38.35666l7.16084-.18326,75.18821-1.92424-5.21421-36.24916Z"/><path class="m" d="M148.23463,1121.5936s1.49349,37.27543,12.55114,46.97,50.25733,4.53115,50.25733,4.53115l3.372-51.50112"/><path class="l" d="M420.951,1083.4202c1.2645,2.95051,8.00853,38.35666,8.00853,38.35666l-7.16084-.18326-75.18821-1.92424,5.21421-36.24916Z"/><path class="m" d="M421.79872,1121.5936s-1.4935,37.27543-12.55115,46.97-50.25732,4.53115-50.25732,4.53115l-3.372-51.50112"/><path class="l" d="M464.10108,991.3377s12.68642-4.21488,13.74284-15.37967-26.34438-21.8625-33.58131-25.41006-30.26876-8.35252-32.47312-9.24417-9.99681,20.30626-7.16206,21.39426l2.83475,1.088Z"/><rect class="n" x="148.23463" y="1392.80257" width="274.47857" height="40.46418"/><rect class="l" x="262.78572" y="1397.22833" width="45.37639" height="30.98039"/><path class="g" d="M609.25306,1368.41084s-5.84869,3.38227-3.74118,8.01879,5.47953,10.53755,8.00854,12.64506,61.11777-18.54609,61.53927-24.02561-1.96076-21.07509-7.09216-20.65359S609.25306,1368.41084,609.25306,1368.41084Z"/><path class="o" d="M91.48347,963.58486s-10.93683-16.07345.13518-24.83009,35.72251-28.7022,45.31738-15.26345,10.3138,17.98965,10.3138,17.98965"/><path class="o" d="M109.4434,989.07242s13.26638,27.97705,25.16533,30.61887,36.80721-8.51343,33.64912-21.89974-10.15137-32.391-10.15137-32.391Z"/><path class="k" d="M95.08635,949.65726s20.86892,25.57111,28.76979,46.92721.9073,11.06281.9073,11.06281-28.83409-50.26249-29.67709-52.5105S95.08635,949.65726,95.08635,949.65726Z"/><path class="l" d="M100.69909,991.3377S88.01267,987.12282,86.95624,975.958s26.34438-21.8625,33.58132-25.41006,30.26875-8.35252,32.47312-9.24417,9.9968,20.30626,7.162,21.39426l-2.83474,1.088Z"/><path class="p" d="M148.23457,1433.2667c-6.1943,16.51527-20.6152,93.00145-20.6152,93.00145s225.43558,52.34243,322.24905-4.90629c0,0-13.71445-73.34737-27.15522-83.84418S148.23457,1433.2667,148.23457,1433.2667Z"/><line class="q" x1="282.29498" y1="1431.43971" x2="282.29498" y2="1545.74592"/><line class="r" x1="370.49425" y1="1083.4202" x2="348.31844" y2="1108.10678"/><line class="r" x1="425.01812" y1="1097.38629" x2="404.43331" y2="1120.30175"/><line class="r" x1="377.23096" y1="1085.03876" x2="348.31844" y2="1117.22481"/><line class="r" x1="384.13615" y1="1084.56179" x2="353.47761" y2="1118.69155"/><line class="r" x1="390.88396" y1="1084.89366" x2="360.54335" y2="1118.66949"/><line class="r" x1="398.27447" y1="1084.91572" x2="366.74047" y2="1120.02006"/><line class="r" x1="406.21705" y1="1084.56179" x2="374.68306" y2="1119.66613"/><line class="r" x1="413.92412" y1="1084.56179" x2="382.39012" y2="1119.66613"/><line class="r" x1="420.5738" y1="1085.3082" x2="389.13932" y2="1120.30175"/><line class="r" x1="423.62229" y1="1090.54592" x2="396.89282" y2="1120.30175"/><line class="s" x1="364.56702" y1="1082.87283" x2="348.31844" y2="1099.85854"/><line class="s" x1="424.41892" y1="1105.75421" x2="410.25755" y2="1120.55803"/><line class="s" x1="427.32922" y1="1108.70659" x2="416.43795" y2="1120.23776"/><line class="r" x1="199.5779" y1="1083.63361" x2="221.7537" y2="1108.3202"/><line class="r" x1="145.05402" y1="1097.59971" x2="165.63883" y2="1120.51516"/><line class="r" x1="192.84118" y1="1085.25218" x2="221.7537" y2="1117.43823"/><line class="r" x1="185.93599" y1="1084.77521" x2="216.59454" y2="1118.90497"/><line class="r" x1="179.18818" y1="1085.10708" x2="209.52879" y2="1118.88291"/><line class="r" x1="171.79768" y1="1085.12914" x2="203.33167" y2="1120.23348"/><line class="r" x1="163.85509" y1="1084.77521" x2="195.38909" y2="1119.87954"/><line class="r" x1="156.14802" y1="1084.77521" x2="187.68202" y2="1119.87954"/><line class="r" x1="149.49835" y1="1085.52161" x2="180.93283" y2="1120.51516"/><line class="r" x1="146.44985" y1="1090.75933" x2="173.17933" y2="1120.51516"/><line class="s" x1="205.50513" y1="1083.08625" x2="221.7537" y2="1100.07196"/><line class="s" x1="145.65322" y1="1105.96763" x2="159.81459" y2="1120.77144"/><line class="s" x1="142.74292" y1="1108.92001" x2="153.63419" y2="1120.45118"/><line class="t" x1="262.68775" y1="1407.39766" x2="281.9291" y2="1428.81754"/><line class="t" x1="300.90157" y1="1395.41015" x2="308.6443" y2="1402.85476"/><line class="t" x1="294.59415" y1="1395.72035" x2="308.6443" y2="1411.36129"/><line class="t" x1="287.68599" y1="1395.74098" x2="309.73771" y2="1420.28944"/><line class="t" x1="280.26177" y1="1395.41015" x2="309.73771" y2="1428.2234"/><line class="t" x1="273.0577" y1="1395.41015" x2="302.53364" y2="1428.2234"/><line class="t" x1="266.84202" y1="1396.10784" x2="296.22493" y2="1428.81754"/><line class="t" x1="263.99249" y1="1401.00372" x2="288.97747" y2="1428.81754"/><line class="u" x1="263.24785" y1="1415.21945" x2="276.48498" y2="1429.05709"/><line class="u" x1="260.52749" y1="1417.97914" x2="270.70794" y2="1428.75773"/><circle class="t" cx="97.72985" cy="977.43644" r="1.84407"/><circle class="t" cx="467.88383" cy="977.43644" r="1.84407"/><path class="d" d="M470.89917,1007.04447c-6.092,0-19.49363,42.4286-19.49363,42.4286l90.9927,49.80365,80.34872-55.63825L592.6454,990.60589Z"/><path class="e" d="M868.05449,1520.83229c0,4.072,24.44711,65.18982,33.29865,71.09084,3.5045,2.33634,18.86168,3.69716,28.7675,3.33518,6.53632-.23885,9.98681-3.3648,15.38482-5.23194,3.93516-1.36114,5.48.07387,7.37628-2.31826,1.5173-1.914,1.22237-5.354.73763-8.00853-2.95051-16.15757-8.149-16.94948-19.81059-28.38113-.903-.88519,1.11958,1.23219,7.93772,3.47618,4.42634,1.45681,10.18686,1.72235,11.32068-2.55773.87036-3.28552-3.30667-9.35089-7.45635-12.79075-8.00853-6.63865-10.702-13.69634-18.91214-23.81486-4.41033-5.4355-9.80232-15.16772-9.80232-15.16772Z"/><path class="f" d="M865.99089,1520.83229c.13861,2.62154,1.38767,5.32011,2.25754,7.75237,1.85444,5.18525,3.88735,10.30861,5.97009,15.40573,4.83311,11.82809,9.92083,23.621,15.87715,34.93319a70.73986,70.73986,0,0,0,7.36807,12.00574c2.97322,3.63337,6.81572,4.46047,11.37121,5.16113,7.89743,1.21467,17.2248,2.42532,25.12377.76606,4.33586-.91079,7.917-3.53871,12.09533-4.84025,3.06712-.95539,6.27005-.26429,8.44822-3.05778,4.37306-5.60845-.051-17.35779-3.209-22.72877a33.98431,33.98431,0,0,0-6.36194-7.52221c-2.75924-2.56545-8.09082-6.09183-9.53181-8.63293l-2.8234,2.8234c4.93774,3.09691,12.9369,6.75843,18.747,4.148,7.08277-3.1822,2.7277-11.33651-.74858-15.50777-2.9213-3.50533-6.67606-6.15-9.56954-9.71053-3.32313-4.08923-6.04815-8.63947-9.16566-12.88231-4.68761-6.37969-9.2982-12.58745-13.16106-19.52337a2.07487,2.07487,0,0,0-2.33045-.94835L867.5059,1518.8424c-2.41571,1.00743-1.35554,5.00264,1.09718,3.97978l48.84187-20.36872-2.33044-.94835c6.1025,10.95729,13.82592,21.20638,21.37829,31.19536,4.03178,5.33254,10.74017,9.32281,13.61872,15.41424,4.617,9.77027-12.14882,3.2915-15.45236,1.21954a2.07924,2.07924,0,0,0-2.8234,2.8234c1.213,2.139,4.01675,3.94707,5.82554,5.56957,2.20627,1.979,4.5007,3.88812,6.55045,6.03391,4.35671,4.56085,8.04514,12.32089,7.7054,18.7692-.27859,5.28762-5.08581,4.68739-8.88091,6.2515-4.313,1.77757-8.14757,4.09123-12.9156,4.41288a88.09281,88.09281,0,0,1-23.09773-1.59424c-7.94878-1.645-11.05447-10.21968-14.45482-16.86677-5.22425-10.21252-9.82884-20.75678-14.17623-31.36806-2.01959-4.92949-3.98742-9.884-5.80678-14.89133-.80182-2.20678-2.371-5.82673-2.467-7.642C869.97838,1518.19007,865.85031,1518.17359,865.99089,1520.83229Z"/><path class="e" d="M931.27977,1594.59264c-1.54551-.843-25.57111-6.744-31.47214-27.39762"/><path class="f" d="M932.32131,1592.81078c-4.225-1.99846-8.68982-3.19452-12.81076-5.52125-8.25526-4.661-14.87662-11.4423-17.713-20.64309-.7801-2.5305-4.76534-1.451-3.97978,1.09717,2.8334,9.191,8.98054,16.39354,17.01158,21.548,4.71422,3.02566,11.0542,5.02311,15.40891,7.08292,2.388,1.12954,4.48519-2.42751,2.08308-3.56373Z"/><path class="e" d="M946.17284,1590.02637c-1.54551-.843-28.53644-6.79408-34.43746-27.44767"/><path class="f" d="M947.21438,1588.24451c-4.62827-2.1442-9.642-3.22922-14.23721-5.58359-8.70427-4.45969-16.28127-11.04047-19.2519-20.63081-.78343-2.5292-4.76879-1.45-3.97978,1.09717,2.96054,9.55775,9.91068,16.68046,18.44089,21.6234,5.2163,3.02265,12.23978,4.87774,16.94492,7.05755,2.39438,1.10929,4.49323-2.44713,2.08308-3.56372Z"/><path class="e" d="M954.11328,1581.3c-1.54551-.843-24.02561-5.901-29.92664-26.55461"/><path class="f" d="M955.15482,1579.51816c-3.97367-1.86547-8.18031-2.92511-12.05777-5.10978-8.05061-4.536-14.17531-11.29583-16.92052-20.21156-.77925-2.53083-4.76447-1.45131-3.97977,1.09717a38.47726,38.47726,0,0,0,16.25731,21.13079c4.47142,2.90367,10.47721,4.71333,14.61767,6.6571,2.39037,1.12219,4.48815-2.43463,2.08308-3.56372Z"/><path class="e" d="M933.80878,1551.31845a48.6073,48.6073,0,0,1-20.44284-14.61206"/><path class="f" d="M934.35737,1549.32856c-7.61862-2.56008-14.47637-7.96939-19.53224-14.08136-1.69438-2.04831-4.5999.88561-2.91838,2.91838a48.77008,48.77008,0,0,0,21.35344,15.14276c2.52338.84793,3.606-3.13675,1.09718-3.97978Z"/><path class="e" d="M899.71222,1565.003s16.4815-2.2266,21.66944-8.11281l5.18794-5.8862"/><path class="f" d="M900.316,1567.19289a60.577,60.577,0,0,0,15.866-4.25635c5.20642-2.28068,8.31089-6.14849,11.99346-10.32671,1.92622-2.18547-1.27434-5.40993-3.21175-3.21176-3.46266,3.92872-6.37081,7.66693-11.3331,9.70892a60.26853,60.26853,0,0,1-14.52213,3.706c-2.88273.40088-1.65587,4.778,1.20747,4.37986Z"/><path class="e" d="M180.6947,1534.57467c0,4.072-24.4471,65.18982-33.29864,71.09085-3.5045,2.33633-18.86169,3.69716-28.76751,3.33518-6.53632-.23886-9.98681-3.3648-15.38481-5.23194-3.93516-1.36115-5.48.07387-7.37629-2.31826-1.5173-1.914-1.22237-5.354-.73762-8.00853,2.95051-16.15758,8.149-16.94948,19.81058-28.38113.903-.8852-1.11958,1.23219-7.93772,3.47618-4.42633,1.4568-10.18686,1.72234-11.32068-2.55773-.87036-3.28552,3.30668-9.35089,7.45635-12.79075,8.00854-6.63866,10.702-13.69634,18.91214-23.81486,4.41034-5.4355,9.80233-15.16772,9.80233-15.16772Z"/><path class="f" d="M178.6311,1534.57467c-.27712,5.241-4.47581,13.08681-6.59226,18.38084-4.32183,10.81049-8.9436,21.52539-14.08151,31.97511-2.1117,4.29486-4.29886,8.57588-6.80243,12.65839-1.48569,2.42267-3.07888,5.45779-5.72117,6.74856-5.84076,2.85324-14.42028,2.48138-20.7694,2.6243-3.91993.08824-7.89213.18031-11.63562-1.15757-3.87692-1.38557-7.33335-3.82044-11.43623-4.55936-6.54807-1.1793-4.67969-7.46507-3.33932-12.31313a26.00014,26.00014,0,0,1,4.539-9.45333,56.70931,56.70931,0,0,1,6.89936-6.766c2.19336-1.95654,5.75959-4.2338,7.22189-6.81247a2.07911,2.07911,0,0,0-2.8234-2.8234c-3.30078,2.07022-20.08385,8.58139-15.45236-1.21954,2.89022-6.11614,9.57527-10.06628,13.61871-15.41425,7.5539-9.991,15.27462-20.236,21.3783-31.19535l-2.33045.94835,48.84188,20.36871c2.44847,1.0211,3.51683-2.9707,1.09717-3.97977l-48.84187-20.36872a2.06456,2.06456,0,0,0-2.33045.94835c-3.863,6.93617-8.47022,13.14593-13.16106,19.52336-2.90251,3.9461-5.47344,8.13628-8.48341,12.00247-3.06036,3.9309-7.08843,6.79551-10.25179,10.59037-3.48557,4.18139-7.82482,12.32345-.74858,15.50777,5.80056,2.61026,13.81567-1.05515,18.747-4.148l-2.8234-2.8234c-1.09044,1.92292-5.62527,5.112-7.89889,7.15334a45.089,45.089,0,0,0-6.65784,6.96521c-3.93094,5.44432-7.10256,14.45308-5.96245,21.17793.41566,2.45174,1.666,4.6735,4.0916,5.59456,1.33308.50621,2.84778.32707,4.22487.61918,2.94116.6239,5.599,2.24475,8.32425,3.445,7.6491,3.36875,16.41281,2.5463,24.54723,1.7761,4.97358-.47092,11.75283-.57015,15.68329-4.109,2.90934-2.61946,4.93783-6.51193,6.83194-9.86941,6.24-11.061,11.31661-22.81921,16.2122-34.52176,2.49727-5.96952,4.91886-11.976,7.14822-18.05133,1.07407-2.927,2.69653-6.25175,2.86417-9.42209C182.89865,1531.92039,178.771,1531.92809,178.6311,1534.57467Z"/><path class="e" d="M117.46942,1608.335c1.54551-.843,25.57112-6.744,31.47214-27.39762"/><path class="f" d="M118.511,1610.11689c4.34825-2.05675,10.701-4.0613,15.40892-7.08291,8.03082-5.15431,14.17795-12.35623,17.01157-21.548.78424-2.54393-3.19842-3.63176-3.97978-1.09718-2.83526,9.19708-9.457,15.98725-17.713,20.6431-4.12,2.32341-8.58753,3.52363-12.81077,5.52125-2.39951,1.135-.30725,4.69436,2.08308,3.56372Z"/><path class="e" d="M102.57636,1603.76876c1.5455-.843,28.53643-6.79409,34.43746-27.44768"/><path class="f" d="M103.6179,1605.55062c4.70225-2.17848,11.72988-4.03564,16.94491-7.05755,8.53116-4.94349,15.48-12.06442,18.4409-21.6234.78767-2.54291-3.19509-3.63045-3.97978-1.09718-2.96923,9.58582-10.55059,16.17247-19.2519,20.63082-4.59561,2.35467-9.60876,3.4393-14.23721,5.58359-2.40755,1.11538-.31363,4.67408,2.08308,3.56372Z"/><path class="e" d="M94.63592,1595.04241c1.5455-.843,24.0256-5.901,29.92663-26.55462"/><path class="f" d="M95.67746,1596.82427c4.13375-1.94062,10.15268-3.75761,14.61767-6.65711a38.47551,38.47551,0,0,0,16.25731-21.13078c.78337-2.54418-3.19927-3.63208-3.97978-1.09717-2.74514,8.91551-8.86985,15.67555-16.92052,20.21155-3.87722,2.18456-8.08429,3.24441-12.05776,5.10979-2.40248,1.12786-.30961,4.687,2.08308,3.56372Z"/><path class="e" d="M114.94041,1565.06084a48.60721,48.60721,0,0,0,20.44284-14.61207"/><path class="f" d="M115.489,1567.05073a48.77,48.77,0,0,0,21.35344-15.14277c1.68081-2.0319-1.22326-4.96757-2.91837-2.91837-5.05809,6.11463-11.91189,11.52069-19.53224,14.08136-2.50472.84166-1.43049,4.82915,1.09717,3.97978Z"/><path class="e" d="M149.037,1578.74534s-16.4815-2.22659-21.66944-8.1128l-5.18793-5.8862"/><path class="f" d="M149.64071,1576.55541a60.2694,60.2694,0,0,1-14.52213-3.706c-4.96283-2.04238-7.86981-5.77949-11.33311-9.70892-1.93657-2.19722-5.13878,1.02535-3.21175,3.21175,3.68348,4.17926,6.78425,8.04654,11.99347,10.32672a60.62631,60.62631,0,0,0,15.86605,4.25634c2.8587.39754,4.09476-3.97834,1.20747-4.37986Z"/><path class="g" d="M305.77756,1099.27672S188.6,1358.92187,178.484,1379.997s-44.6792,102.84646-40.46418,110.43349,46.3652,21.9181,51.42322,20.23209,80.08536-136.5666,85.14338-154.26968,62.0655-76.32268,56.73009-101.16045-8.67888-155.95569-8.67888-155.95569Z"/><path class="g" d="M736.03489,1085.78866s117.17752,259.64515,127.29357,280.72024,44.67919,102.84646,40.46418,110.43349-46.36521,21.9181-51.42323,20.23209-80.08536-136.5666-85.14338-154.26968-62.06549-76.32268-56.73009-101.16045,8.67888-155.95569,8.67888-155.95569Z"/><path class="g" d="M403.67343,1053.713s-95.36686,37.13367-97.89587,45.56371,40.57162,252.05812,48.94794,275.66222S394.293,1499.70349,389.23493,1501.811s-1.686,17.28158,3.372,21.4966,248.87411,11.80205,261.84667,5.058,11.28654-20.23209,7.91453-20.23209,34.56315-127.71506,35.40616-165.018,38.26059-257.32689,38.26059-257.32689L622.747,1043.63847,528.24434,1081.8Z"/><path class="h" d="M352.3506,808.95411s-28.69371-208.64487,69.82134-245.80922,163.40519-19.46705,163.40519-19.46705,98.515,17.69731,123.88119,66.65988,39.524,34.21481,39.524,34.21481,2.94956,11.2083-10.02847,12.978-28.43518,159.98667-28.43518,159.98667Z"/><path class="i" d="M368.48916,709.4426c-.33274,13.972-1.90465,80.04207-2.35862,99.105,0,0-34.11873-4.47863-34.80465,22.41664-.692,27.13595,37.16327,31.85507,37.16327,31.85507s16.11694,175.89869,167.741,175.758c125.53761-2.88471,159.16441-151.757,160.27531-174.38086.07846-1.59788.84038-1.42021,2.43341-1.56728,28.74185-2.6535,43.43024-51.47288-7.17768-55.26148l-1.17931-97.92512S630.97,661.34224,624.69268,665.11014c-19.31876,11.596-72.16868,24.54455-216.08869,1.26907,0,0-14.33481,7.107-40.11483,43.06339"/><path class="f" d="M431.91192,739.52874s27.10889-5.33426,38.98725-3.35454"/><path class="f" d="M433.20023,744.20183c11.50492-2.24912,24.70478-5.0846,36.41063-3.35453,6.10159.90178,8.7347-8.43606,2.57662-9.34619-13.57615-2.00649-28.20616.74321-41.56387,3.35454-6.11573,1.19557-3.52667,10.53933,2.57662,9.34618Z"/><path class="f" d="M592.6454,735.449s25.74335,0,38.89447,4.29871"/><path class="f" d="M592.6454,740.29519c12.42913.01751,25.67479.409,37.60616,4.12561,5.96895,1.85932,8.52217-7.49416,2.57662-9.34619-12.71253-3.96-26.93584-4.45316-40.18278-4.47183-6.237-.00878-6.24654,9.68361,0,9.69241Z"/><ellipse class="j" cx="606.21184" cy="794.48047" rx="13.56643" ry="8.81312"/><ellipse class="j" cx="453.77985" cy="794.48047" rx="13.56643" ry="8.81312"/><ellipse class="k" cx="531.53964" cy="922.5837" rx="10.8586" ry="7.05404"/><path class="f" d="M493.70747,973.91449c22.85253,19.29815,56.67514,12.46316,79.70422-2.29493,5.23553-3.35517.38049-11.74793-4.892-8.36911-14.83737,9.50847-32.418,15.694-50.11023,11.67733a50.29457,50.29457,0,0,1-13.324-4.99667c-1.36141-.75539-2.65075-1.603-3.95022-2.45651-1.4006-.91995.09978.15551-.57424-.41368-4.73779-4.00089-11.62752,2.82214-6.85357,6.85357Z"/><path class="g" d="M446.48668,1013.09511s-34.06915,19.79507-42.92069,35.60139,98.20994,81.77136,98.20994,81.77136,29.90692-45.31145,26.231-51.00173S446.48668,1013.09511,446.48668,1013.09511Z"/><path class="g" d="M613.4097,1013.09511s31.67686,23.58858,40.5284,39.3949-99.21782,80.50674-99.21782,80.50674-26.50675-47.84034-22.83083-53.53062S613.4097,1013.09511,613.4097,1013.09511Z"/><path class="l" d="M520.85277,1527.73337s-3.48127-201.68865-4.74578-218.75947,11.89995-229.50777,11.89995-229.50777-11.89217,296.52657-7.15417,319.28767S520.85277,1527.73337,520.85277,1527.73337Z"/><path class="l" d="M391.34244,1213.92523c-1.26451,2.95051-8.00854,38.35667-8.00854,38.35667l7.16085-.18327,75.1882-1.92424-5.2142-36.24916Z"/><path class="m" d="M390.49475,1252.09863s1.49349,37.27543,12.55114,46.97,50.25732,4.53115,50.25732,4.53115l3.372-51.50112"/><path class="l" d="M663.21114,1213.92523c1.26451,2.95051,8.00854,38.35667,8.00854,38.35667l-7.16084-.18327-75.18821-1.92424,5.21421-36.24916Z"/><path class="m" d="M664.05884,1252.09863s-1.4935,37.27543-12.55115,46.97-50.25732,4.53115-50.25732,4.53115l-3.372-51.50112"/><path class="l" d="M706.3612,1121.84274s12.68642-4.21488,13.74284-15.37968-26.34438-21.8625-33.58131-25.41006-30.26876-8.35251-32.47312-9.24416-9.99681,20.30626-7.16206,21.39426l2.83475,1.088Z"/><rect class="n" x="390.49475" y="1523.3076" width="274.47857" height="40.46418"/><rect class="l" x="505.04583" y="1527.73337" width="45.37639" height="30.98039"/><path class="g" d="M851.51317,1498.91588s-5.84868,3.38226-3.74117,8.01878,5.47952,10.53755,8.00854,12.64506,61.11777-18.54608,61.53927-24.02561-1.96076-21.07509-7.09216-20.65359S851.51317,1498.91588,851.51317,1498.91588Z"/><path class="v" d="M185.64125,1515.84455s4.951,3.45355,3.167,8.18779-4.63852,10.75963-6.77937,12.91156-51.73736-18.937-52.09417-24.532,1.65982-21.51926,6.00365-21.08888S185.64125,1515.84455,185.64125,1515.84455Z"/><path class="o" d="M333.74359,1094.0899s-10.93683-16.07346.13517-24.83009,35.72252-28.7022,45.31739-15.26346,10.31379,17.98965,10.31379,17.98965"/><path class="o" d="M351.70352,1119.57746s13.26638,27.977,25.16532,30.61886,36.80722-8.51343,33.64913-21.89974-10.15137-32.391-10.15137-32.391Z"/><path class="k" d="M337.34647,1080.16229s20.86892,25.57111,28.76979,46.92721.90729,11.06281.90729,11.06281-28.83408-50.26249-29.67708-52.5105S337.34647,1080.16229,337.34647,1080.16229Z"/><path class="l" d="M342.9592,1121.84274s-12.68642-4.21488-13.74284-15.37968,26.34438-21.8625,33.58131-25.41006,30.26876-8.35251,32.47313-9.24416,9.9968,20.30626,7.162,21.39426l-2.83474,1.088Z"/><path class="p" d="M390.49469,1563.77174c-6.1943,16.51527-20.61521,93.00145-20.61521,93.00145s225.43559,52.34242,322.24906-4.9063c0,0-13.71445-73.34736-27.15523-83.84417S390.49469,1563.77174,390.49469,1563.77174Z"/><line class="q" x1="524.5551" y1="1561.94474" x2="524.5551" y2="1676.25096"/><line class="r" x1="612.75436" y1="1213.92523" x2="590.57856" y2="1238.61181"/><line class="r" x1="667.27824" y1="1227.89132" x2="646.69343" y2="1250.80678"/><line class="r" x1="619.49108" y1="1215.54379" x2="590.57856" y2="1247.72984"/><line class="r" x1="626.39627" y1="1215.06682" x2="595.73772" y2="1249.19659"/><line class="r" x1="633.14408" y1="1215.39869" x2="602.80347" y2="1249.17452"/><line class="r" x1="640.53458" y1="1215.42076" x2="609.00059" y2="1250.52509"/><line class="r" x1="648.47717" y1="1215.06682" x2="616.94317" y2="1250.17116"/><line class="r" x1="656.18424" y1="1215.06682" x2="624.65024" y2="1250.17116"/><line class="r" x1="662.83391" y1="1215.81323" x2="631.39943" y2="1250.80678"/><line class="r" x1="665.88241" y1="1221.05095" x2="639.15293" y2="1250.80678"/><line class="s" x1="606.82713" y1="1213.37786" x2="590.57856" y2="1230.36357"/><line class="s" x1="666.67904" y1="1236.25925" x2="652.51767" y2="1251.06306"/><line class="s" x1="669.58934" y1="1239.21162" x2="658.69807" y2="1250.74279"/><line class="r" x1="441.83801" y1="1214.13864" x2="464.01382" y2="1238.82523"/><line class="r" x1="387.31414" y1="1228.10474" x2="407.89895" y2="1251.0202"/><line class="r" x1="435.1013" y1="1215.75721" x2="464.01382" y2="1247.94326"/><line class="r" x1="428.19611" y1="1215.28024" x2="458.85466" y2="1249.41"/><line class="r" x1="421.4483" y1="1215.61211" x2="451.78891" y2="1249.38794"/><line class="r" x1="414.05779" y1="1215.63417" x2="445.59179" y2="1250.73851"/><line class="r" x1="406.11521" y1="1215.28024" x2="437.6492" y2="1250.38458"/><line class="r" x1="398.40814" y1="1215.28024" x2="429.94214" y2="1250.38458"/><line class="r" x1="391.75846" y1="1216.02665" x2="423.19294" y2="1251.0202"/><line class="r" x1="388.70997" y1="1221.26437" x2="415.43944" y2="1251.0202"/><line class="s" x1="447.76524" y1="1213.59128" x2="464.01382" y2="1230.57699"/><line class="s" x1="387.91334" y1="1236.47266" x2="402.07471" y2="1251.27648"/><line class="s" x1="385.00304" y1="1239.42504" x2="395.89431" y2="1250.95621"/><line class="t" x1="504.94787" y1="1537.90269" x2="524.18921" y2="1559.32257"/><line class="t" x1="543.16169" y1="1525.91518" x2="550.90442" y2="1533.3598"/><line class="t" x1="536.85427" y1="1526.22539" x2="550.90442" y2="1541.86632"/><line class="t" x1="529.94611" y1="1526.24601" x2="551.99783" y2="1550.79447"/><line class="t" x1="522.52189" y1="1525.91518" x2="551.99783" y2="1558.72844"/><line class="t" x1="515.31782" y1="1525.91518" x2="544.79376" y2="1558.72844"/><line class="t" x1="509.10214" y1="1526.61287" x2="538.48505" y2="1559.32257"/><line class="t" x1="506.2526" y1="1531.50875" x2="531.23758" y2="1559.32257"/><line class="u" x1="505.50797" y1="1545.72448" x2="518.74509" y2="1559.56213"/><line class="u" x1="502.7876" y1="1548.48417" x2="512.96806" y2="1559.26276"/><circle class="t" cx="339.98997" cy="1107.94147" r="1.84407"/><circle class="t" cx="710.14395" cy="1107.94147" r="1.84407"/><path class="d" d="M1410.31809,876.53943c6.09195,0,19.49362,42.42861,19.49362,42.42861L1338.819,968.77169l-80.34873-55.63825,30.10156-53.03258Z"/><path class="e" d="M1013.16276,1390.32725c0,4.072-24.4471,65.18982-33.29864,71.09085-3.5045,2.33633-18.86169,3.69716-28.76751,3.33518-6.53632-.23886-9.98681-3.3648-15.38481-5.23194-3.93516-1.36115-5.48.07387-7.37629-2.31826-1.5173-1.914-1.22237-5.354-.73763-8.00853,2.95052-16.15758,8.149-16.94948,19.81059-28.38113.903-.88519-1.11958,1.23219-7.93772,3.47618-4.42633,1.4568-10.18686,1.72234-11.32068-2.55773-.87036-3.28552,3.30668-9.35089,7.45635-12.79075,8.00854-6.63866,10.702-13.69634,18.91214-23.81486,4.41034-5.4355,9.80233-15.16772,9.80233-15.16772Z"/><path class="f" d="M1011.09916,1390.32725c-.27712,5.241-4.47581,13.08681-6.59226,18.38084-4.32183,10.81049-8.9436,21.52539-14.08151,31.97511-2.1117,4.29486-4.29886,8.57588-6.80243,12.65839-1.48569,2.42267-3.07888,5.45779-5.72117,6.74856-5.84076,2.85324-14.42028,2.48138-20.7694,2.6243-3.91993.08824-7.89213.18032-11.63562-1.15757-3.87692-1.38557-7.33335-3.82044-11.43623-4.55936-6.54808-1.1793-4.67969-7.46507-3.33932-12.31312a26.00011,26.00011,0,0,1,4.539-9.45334,56.70931,56.70931,0,0,1,6.89936-6.766c2.19336-1.95653,5.75959-4.2338,7.22189-6.81247a2.07912,2.07912,0,0,0-2.8234-2.8234c-3.30078,2.07022-20.08385,8.5814-15.45236-1.21954,2.89022-6.11614,9.57527-10.06628,13.61871-15.41424,7.5539-9.991,15.27462-20.236,21.3783-31.19536l-2.33045.94835,48.84188,20.36871c2.44847,1.0211,3.51683-2.97069,1.09717-3.97977l-48.84187-20.36872a2.06456,2.06456,0,0,0-2.33045.94835c-3.863,6.93617-8.47022,13.14593-13.16106,19.52336-2.90251,3.9461-5.47344,8.13628-8.48341,12.00247-3.06036,3.9309-7.08843,6.79551-10.25179,10.59038-3.48557,4.18138-7.82482,12.32344-.74858,15.50776,5.80056,2.61026,13.81567-1.05515,18.747-4.148l-2.8234-2.8234c-1.09044,1.92292-5.62527,5.112-7.89889,7.15334a45.089,45.089,0,0,0-6.65784,6.96521c-3.93094,5.44432-7.10256,14.45309-5.96245,21.17793.41566,2.45174,1.666,4.6735,4.0916,5.59456,1.33308.50621,2.84778.32707,4.22487.61919,2.94116.62389,5.599,2.24474,8.32425,3.445,7.6491,3.36875,16.41281,2.5463,24.54722,1.7761,4.97359-.47092,11.75284-.57015,15.6833-4.109,2.90934-2.61946,4.93783-6.51193,6.83193-9.86941,6.24-11.061,11.31662-22.81921,16.21221-34.52176,2.49727-5.96952,4.91886-11.976,7.14822-18.05133,1.07407-2.927,2.69653-6.25175,2.86417-9.42209C1015.36671,1387.673,1011.2391,1387.68067,1011.09916,1390.32725Z"/><path class="e" d="M949.93748,1464.08761c1.54551-.843,25.57112-6.744,31.47214-27.39762"/><path class="f" d="M950.979,1465.86947c4.34825-2.05674,10.701-4.06129,15.40892-7.08291,8.03082-5.15431,14.178-12.35623,17.01157-21.548.78424-2.54393-3.19842-3.63176-3.97978-1.09718-2.83526,9.19708-9.457,15.98725-17.713,20.6431-4.12,2.32341-8.58753,3.52364-12.81077,5.52125-2.39951,1.135-.30725,4.69437,2.08308,3.56372Z"/><path class="e" d="M935.04442,1459.52134c1.5455-.843,28.53643-6.79409,34.43746-27.44768"/><path class="f" d="M936.086,1461.3032c4.70225-2.17848,11.72988-4.03564,16.94491-7.05755,8.53116-4.94349,15.48-12.06441,18.4409-21.6234.78767-2.54291-3.19509-3.63045-3.97978-1.09717-2.96923,9.58581-10.55059,16.17246-19.2519,20.63081-4.59561,2.35467-9.60876,3.4393-14.23721,5.58359-2.40755,1.11538-.31363,4.67408,2.08308,3.56372Z"/><path class="e" d="M927.104,1450.795c1.5455-.843,24.0256-5.901,29.92663-26.55462"/><path class="f" d="M928.14552,1452.57685c4.13375-1.94062,10.15268-3.75761,14.61766-6.65711A38.47549,38.47549,0,0,0,959.0205,1424.789c.78337-2.54418-3.19927-3.63208-3.97978-1.09717-2.74514,8.91552-8.86985,15.67555-16.92052,20.21156-3.87722,2.18455-8.08429,3.2444-12.05776,5.10978-2.40248,1.12786-.30961,4.687,2.08308,3.56372Z"/><path class="e" d="M947.40847,1420.81342a48.60724,48.60724,0,0,0,20.44284-14.61206"/><path class="f" d="M947.95706,1422.80331a48.77,48.77,0,0,0,21.35344-15.14277c1.68081-2.0319-1.22326-4.96757-2.91837-2.91837-5.05809,6.11463-11.91189,11.52069-19.53224,14.08136-2.50472.84166-1.4305,4.82915,1.09717,3.97978Z"/><path class="e" d="M981.505,1434.49792s-16.4815-2.22659-21.66944-8.1128l-5.18793-5.8862"/><path class="f" d="M982.10877,1432.308a60.2694,60.2694,0,0,1-14.52213-3.706c-4.96283-2.04238-7.86981-5.77949-11.33311-9.70892-1.93657-2.19722-5.13879,1.02535-3.21175,3.21175,3.68348,4.17926,6.78425,8.04654,11.99347,10.32672a60.62631,60.62631,0,0,0,15.866,4.25634c2.8587.39754,4.09476-3.97834,1.20747-4.37986Z"/><path class="g" d="M1575.43969,968.77169s117.17752,259.64515,127.29357,280.72024,44.6792,102.84646,40.46418,110.43349-46.36521,21.9181-51.42323,20.23209-80.08536-136.56661-85.14338-154.26968-62.06549-76.32268-56.73009-101.16045,8.67888-155.95569,8.67888-155.95569Z"/><path class="g" d="M1145.18236,955.28363s-117.17752,259.64515-127.29356,280.72024-44.6792,102.84646-40.46418,110.43349,46.3652,21.9181,51.42323,20.23209,80.08535-136.56661,85.14337-154.26968,62.0655-76.32268,56.7301-101.16045-8.67888-155.95569-8.67888-155.95569Z"/><path class="g" d="M1477.54382,923.208s95.36686,37.13367,97.89587,45.56371-40.57161,252.05811-48.94793,275.66222-39.56746,124.76455-34.50944,126.87206,1.686,17.28158-3.372,21.4966-248.87411,11.80205-261.84666,5.058-11.28655-20.23209-7.91454-20.23209-34.56315-127.71507-35.40615-165.018-38.2606-257.32689-38.2606-257.32689l113.28793-42.15019,94.50263,38.16157Z"/><path class="h" d="M1528.86665,678.44907s28.69371-208.64486-69.82133-245.80922-163.4052-19.467-163.4052-19.467-98.515,17.69731-123.88119,66.65988-39.524,34.21481-39.524,34.21481-2.94955,11.20829,10.02848,12.978,28.43517,159.98668,28.43517,159.98668Z"/><path class="i" d="M1512.7281,578.93756c.33273,13.972,1.90464,80.04208,2.35862,99.105,0,0,34.11872-4.47862,34.80465,22.41665.69194,27.13595-37.16327,31.85506-37.16327,31.85506s-16.117,175.8987-167.741,175.758c-125.53761-2.88472-159.16442-151.757-160.27531-174.38086-.07846-1.59788-.84039-1.42021-2.43342-1.56728-28.74184-2.6535-43.43024-51.47288,7.17768-55.26148l1.17931-97.92513s59.6119-48.10035,65.88918-44.33245c19.31877,11.596,72.16868,24.54455,216.08869,1.26907,0,0,14.33482,7.107,40.11484,43.06338"/><path class="f" d="M1449.30534,609.02371s-27.1089-5.33426-38.98725-3.35454"/><path class="f" d="M1450.59365,604.35061c-13.35937-2.61165-27.98633-5.36123-41.56388-3.35453-6.14834.90869-3.53487,10.24943,2.57663,9.34618,11.70537-1.73,24.90607,1.10549,36.41062,3.35454,6.09328,1.19119,8.7021-8.14871,2.57663-9.34619Z"/><path class="f" d="M1288.57185,604.944s-25.74335,0-38.89447,4.29872"/><path class="f" d="M1288.57185,600.09775c-13.24438.01866-27.47216.51247-40.18278,4.47183-5.936,1.84905-3.40242,11.20865,2.57663,9.34618,11.93156-3.71667,25.1769-4.10809,37.60615-4.1256,6.23621-.00879,6.2473-9.70121,0-9.69241Z"/><ellipse class="j" cx="1275.00542" cy="663.97544" rx="13.56643" ry="8.81312"/><ellipse class="j" cx="1427.43741" cy="663.97544" rx="13.56643" ry="8.81312"/><ellipse class="k" cx="1349.67762" cy="792.07867" rx="10.8586" ry="7.05404"/><path class="f" d="M1380.65622,836.55589c-.80283.678.94082-.61158-.42827.31124-1.25514.846-2.5136,1.66762-3.83373,2.41133a50.19851,50.19851,0,0,1-13.58648,5.14429c-17.69314,4.017-35.27245-2.16861-50.11023-11.67733-5.26719-3.37546-10.13315,5.0103-4.89194,8.36911,23.02938,14.75828,56.85154,21.5932,79.70422,2.29493,4.77189-4.0297-2.11376-10.85617-6.85357-6.85357Z"/><path class="g" d="M1434.73058,882.59008s34.06914,19.79506,42.92068,35.60138-98.20993,81.77137-98.20993,81.77137-29.90693-45.31146-26.231-51.00173S1434.73058,882.59008,1434.73058,882.59008Z"/><path class="g" d="M1267.80755,882.59008s-31.67686,23.58858-40.5284,39.3949,99.21783,80.50674,99.21783,80.50674,26.50675-47.84035,22.83083-53.53062S1267.80755,882.59008,1267.80755,882.59008Z"/><path class="l" d="M1360.36448,1397.22833s3.48128-201.68864,4.74578-218.75946-11.89994-229.50777-11.89994-229.50777,11.89217,296.52656,7.15416,319.28766S1360.36448,1397.22833,1360.36448,1397.22833Z"/><path class="l" d="M1489.87482,1083.4202c1.2645,2.95051,8.00853,38.35666,8.00853,38.35666l-7.16084-.18326-75.18821-1.92424,5.21421-36.24916Z"/><path class="m" d="M1490.72251,1121.5936s-1.4935,37.27543-12.55115,46.97-50.25732,4.53115-50.25732,4.53115l-3.372-51.50112"/><path class="l" d="M1218.00611,1083.4202c-1.2645,2.95051-8.00853,38.35666-8.00853,38.35666l7.16084-.18326,75.18821-1.92424-5.21421-36.24916Z"/><path class="m" d="M1217.15842,1121.5936s1.49349,37.27543,12.55114,46.97,50.25733,4.53115,50.25733,4.53115l3.372-51.50112"/><path class="l" d="M1174.85606,991.3377s-12.68642-4.21488-13.74284-15.37967,26.34438-21.8625,33.58131-25.41006,30.26876-8.35252,32.47312-9.24417,9.9968,20.30626,7.16206,21.39426l-2.83475,1.088Z"/><rect class="n" x="1216.24394" y="1392.80257" width="274.47857" height="40.46418" transform="translate(2706.96645 2826.06931) rotate(180)"/><rect class="l" x="1330.79503" y="1397.22833" width="45.37639" height="30.98039" transform="translate(2706.96645 2825.43706) rotate(180)"/><path class="g" d="M1029.70408,1368.41084s5.84868,3.38227,3.74117,8.01879-5.47952,10.53755-8.00853,12.64506-61.11777-18.54609-61.53927-24.02561,1.96076-21.07509,7.09215-20.65359S1029.70408,1368.41084,1029.70408,1368.41084Z"/><path class="o" d="M1547.47367,963.58486s10.93683-16.07345-.13518-24.83009-35.72252-28.7022-45.31739-15.26345-10.31379,17.98965-10.31379,17.98965"/><path class="o" d="M1529.51374,989.07242s-13.26639,27.97705-25.16533,30.61887-36.80722-8.51343-33.64912-21.89974,10.15136-32.391,10.15136-32.391Z"/><path class="k" d="M1543.87079,949.65726s-20.86893,25.57111-28.7698,46.92721-.90729,11.06281-.90729,11.06281,28.83408-50.26249,29.67709-52.5105S1543.87079,949.65726,1543.87079,949.65726Z"/><path class="l" d="M1538.25805,991.3377s12.68642-4.21488,13.74284-15.37967-26.34438-21.8625-33.58131-25.41006-30.26876-8.35252-32.47312-9.24417-9.9968,20.30626-7.16206,21.39426l2.83475,1.088Z"/><path class="p" d="M1490.72257,1433.2667c6.1943,16.51527,20.6152,93.00145,20.6152,93.00145s-225.43558,52.34243-322.24906-4.90629c0,0,13.71445-73.34737,27.15523-83.84418S1490.72257,1433.2667,1490.72257,1433.2667Z"/><line class="q" x1="1356.66216" y1="1431.43971" x2="1356.66216" y2="1545.74592"/><line class="r" x1="1268.46289" y1="1083.4202" x2="1290.63869" y2="1108.10678"/><line class="r" x1="1213.93901" y1="1097.38629" x2="1234.52382" y2="1120.30175"/><line class="r" x1="1261.72617" y1="1085.03876" x2="1290.63869" y2="1117.22481"/><line class="r" x1="1254.82099" y1="1084.56179" x2="1285.47953" y2="1118.69155"/><line class="r" x1="1248.07317" y1="1084.89366" x2="1278.41378" y2="1118.66949"/><line class="r" x1="1240.68267" y1="1084.91572" x2="1272.21667" y2="1120.02006"/><line class="r" x1="1232.74008" y1="1084.56179" x2="1264.27408" y2="1119.66613"/><line class="r" x1="1225.03302" y1="1084.56179" x2="1256.56701" y2="1119.66613"/><line class="r" x1="1218.38334" y1="1085.3082" x2="1249.81782" y2="1120.30175"/><line class="r" x1="1215.33485" y1="1090.54592" x2="1242.06432" y2="1120.30175"/><line class="s" x1="1274.39012" y1="1082.87283" x2="1290.63869" y2="1099.85854"/><line class="s" x1="1214.53822" y1="1105.75421" x2="1228.69958" y2="1120.55803"/><line class="s" x1="1211.62792" y1="1108.70659" x2="1222.51919" y2="1120.23776"/><line class="r" x1="1439.37924" y1="1083.63361" x2="1417.20344" y2="1108.3202"/><line class="r" x1="1493.90312" y1="1097.59971" x2="1473.31831" y2="1120.51516"/><line class="r" x1="1446.11596" y1="1085.25218" x2="1417.20344" y2="1117.43823"/><line class="r" x1="1453.02114" y1="1084.77521" x2="1422.3626" y2="1118.90497"/><line class="r" x1="1459.76896" y1="1085.10708" x2="1429.42835" y2="1118.88291"/><line class="r" x1="1467.15946" y1="1085.12914" x2="1435.62546" y2="1120.23348"/><line class="r" x1="1475.10205" y1="1084.77521" x2="1443.56805" y2="1119.87954"/><line class="r" x1="1482.80912" y1="1084.77521" x2="1451.27512" y2="1119.87954"/><line class="r" x1="1489.45879" y1="1085.52161" x2="1458.02431" y2="1120.51516"/><line class="r" x1="1492.50728" y1="1090.75933" x2="1465.77781" y2="1120.51516"/><line class="s" x1="1433.45201" y1="1083.08625" x2="1417.20344" y2="1100.07196"/><line class="s" x1="1493.30391" y1="1105.96763" x2="1479.14255" y2="1120.77144"/><line class="s" x1="1496.21421" y1="1108.92001" x2="1485.32294" y2="1120.45118"/><line class="t" x1="1376.26939" y1="1407.39766" x2="1357.02804" y2="1428.81754"/><line class="t" x1="1338.05557" y1="1395.41015" x2="1330.31283" y2="1402.85476"/><line class="t" x1="1344.36298" y1="1395.72035" x2="1330.31283" y2="1411.36129"/><line class="t" x1="1351.27115" y1="1395.74098" x2="1329.21943" y2="1420.28944"/><line class="t" x1="1358.69536" y1="1395.41015" x2="1329.21943" y2="1428.2234"/><line class="t" x1="1365.89943" y1="1395.41015" x2="1336.4235" y2="1428.2234"/><line class="t" x1="1372.11512" y1="1396.10784" x2="1342.7322" y2="1428.81754"/><line class="t" x1="1374.96465" y1="1401.00372" x2="1349.97967" y2="1428.81754"/><line class="u" x1="1375.70929" y1="1415.21945" x2="1362.47216" y2="1429.05709"/><line class="u" x1="1378.42965" y1="1417.97914" x2="1368.2492" y2="1428.75773"/><circle class="t" cx="1541.22729" cy="977.43644" r="1.84407"/><circle class="t" cx="1171.0733" cy="977.43644" r="1.84407"/><path class="d" d="M1168.058,1007.04447c6.092,0,19.49362,42.4286,19.49362,42.4286l-90.99269,49.80365-80.34873-55.63825,30.10156-53.03258Z"/><path class="e" d="M770.90265,1520.83229c0,4.072-24.44711,65.18982-33.29865,71.09084-3.5045,2.33634-18.86169,3.69716-28.7675,3.33518-6.53633-.23885-9.98682-3.3648-15.38482-5.23194-3.93516-1.36114-5.48.07387-7.37629-2.31826-1.51729-1.914-1.22237-5.354-.73762-8.00853,2.95051-16.15757,8.149-16.94948,19.81058-28.38113.903-.88519-1.11958,1.23219-7.93772,3.47618-4.42633,1.45681-10.18686,1.72235-11.32068-2.55773-.87035-3.28552,3.30668-9.35089,7.45635-12.79075,8.00854-6.63865,10.702-13.69634,18.91214-23.81486,4.41034-5.4355,9.80233-15.16772,9.80233-15.16772Z"/><path class="f" d="M768.839,1520.83229c-.27712,5.241-4.47581,13.0868-6.59226,18.38083-4.32183,10.81049-8.9436,21.5254-14.08151,31.97511-2.1117,4.29487-4.29886,8.57588-6.80243,12.65839-1.48569,2.42267-3.07888,5.45779-5.72117,6.74856-5.84076,2.85324-14.42028,2.48138-20.76939,2.62431-3.91994.08824-7.89214.18031-11.63562-1.15758-3.87692-1.38557-7.33336-3.82044-11.43624-4.55936-6.54807-1.1793-4.67969-7.46507-3.33931-12.31312a26.00016,26.00016,0,0,1,4.539-9.45334,56.70868,56.70868,0,0,1,6.89937-6.766c2.19335-1.95653,5.75959-4.2338,7.22188-6.81247a2.07911,2.07911,0,0,0-2.8234-2.8234c-3.30078,2.07022-20.08385,8.5814-15.45236-1.21954,2.89022-6.11614,9.57527-10.06627,13.61871-15.41424,7.55391-9.991,15.27462-20.236,21.3783-31.19536l-2.33045.94835,48.84188,20.36872c2.44847,1.02109,3.51683-2.9707,1.09717-3.97978l-48.84187-20.36872a2.06458,2.06458,0,0,0-2.33045.94835c-3.863,6.93617-8.47022,13.14593-13.16106,19.52337-2.9025,3.9461-5.47344,8.13628-8.48341,12.00246-3.06035,3.93091-7.08842,6.79551-10.25179,10.59038-3.48557,4.18138-7.82482,12.32345-.74858,15.50777,5.80056,2.61026,13.81567-1.05516,18.747-4.148l-2.8234-2.8234c-1.09044,1.92292-5.62526,5.112-7.89888,7.15334a45.08905,45.08905,0,0,0-6.65785,6.96521c-3.93094,5.44432-7.10256,14.45309-5.96245,21.17793.41566,2.45174,1.666,4.6735,4.09161,5.59457,1.33307.50621,2.84777.32706,4.22486.61918,2.94117.62389,5.599,2.24474,8.32426,3.445,7.64909,3.36876,16.41281,2.5463,24.54722,1.7761,4.97359-.47092,11.75283-.57014,15.68329-4.109,2.90934-2.61947,4.93783-6.51193,6.83194-9.86942,6.24-11.061,11.31661-22.81921,16.21221-34.52176,2.49726-5.96952,4.91885-11.976,7.14821-18.05133,1.07407-2.927,2.69653-6.25175,2.86417-9.42208C773.1066,1518.178,768.979,1518.1857,768.839,1520.83229Z"/><path class="e" d="M707.67737,1594.59264c1.5455-.843,25.57111-6.744,31.47214-27.39762"/><path class="f" d="M708.71891,1596.37451c4.34824-2.05675,10.701-4.0613,15.40891-7.08292,8.03083-5.1543,14.178-12.35623,17.01157-21.548.78424-2.54393-3.19842-3.63175-3.97977-1.09717-2.83527,9.19708-9.457,15.98724-17.713,20.64309-4.12,2.32341-8.58753,3.52364-12.81076,5.52125-2.39952,1.135-.30726,4.69437,2.08308,3.56373Z"/><path class="e" d="M692.7843,1590.02637c1.54551-.843,28.53643-6.79408,34.43746-27.44767"/><path class="f" d="M693.82584,1591.80823c4.70225-2.17847,11.72988-4.03563,16.94491-7.05755,8.53117-4.94349,15.48-12.06441,18.4409-21.6234.78767-2.54291-3.19509-3.63045-3.97978-1.09717-2.96923,9.58581-10.55058,16.17246-19.2519,20.63081-4.59561,2.35468-9.60876,3.43931-14.23721,5.58359-2.40755,1.11538-.31363,4.67408,2.08308,3.56372Z"/><path class="e" d="M684.84386,1581.3c1.54551-.843,24.02561-5.901,29.92663-26.55461"/><path class="f" d="M685.8854,1583.08188c4.13375-1.94062,10.15268-3.75761,14.61767-6.6571a38.47548,38.47548,0,0,0,16.25731-21.13079c.78337-2.54418-3.19926-3.63208-3.97978-1.09717-2.74514,8.91552-8.86984,15.67555-16.92052,20.21156-3.87722,2.18455-8.08429,3.2444-12.05776,5.10978-2.40248,1.12787-.30961,4.687,2.08308,3.56372Z"/><path class="e" d="M705.14835,1551.31845a48.60724,48.60724,0,0,0,20.44284-14.61206"/><path class="f" d="M705.69694,1553.30834a48.77,48.77,0,0,0,21.35344-15.14276c1.68081-2.03191-1.22326-4.96758-2.91837-2.91838-5.05808,6.11464-11.91189,11.52069-19.53224,14.08136-2.50472.84166-1.43049,4.82915,1.09717,3.97978Z"/><path class="e" d="M739.24492,1565.003s-16.48151-2.2266-21.66944-8.11281l-5.18794-5.8862"/><path class="f" d="M739.84865,1562.813a60.26942,60.26942,0,0,1-14.52213-3.706c-4.96282-2.04237-7.86981-5.77948-11.3331-9.70892-1.93658-2.19722-5.13879,1.02535-3.21176,3.21176,3.68348,4.17925,6.78425,8.04654,11.99347,10.32671a60.62643,60.62643,0,0,0,15.866,4.25635c2.8587.39754,4.09476-3.97835,1.20747-4.37986Z"/><path class="e" d="M1458.26243,1534.57467c0,4.072,24.44711,65.18982,33.29865,71.09085,3.5045,2.33633,18.86168,3.69716,28.7675,3.33518,6.53633-.23886,9.98682-3.3648,15.38482-5.23194,3.93516-1.36115,5.48.07387,7.37628-2.31826,1.5173-1.914,1.22237-5.354.73763-8.00853-2.95051-16.15758-8.149-16.94948-19.81059-28.38113-.903-.8852,1.11959,1.23219,7.93772,3.47618,4.42634,1.4568,10.18686,1.72234,11.32069-2.55773.87035-3.28552-3.30668-9.35089-7.45635-12.79075-8.00854-6.63866-10.702-13.69634-18.91214-23.81486-4.41034-5.4355-9.80233-15.16772-9.80233-15.16772Z"/><path class="f" d="M1456.19883,1534.57467c.13862,2.62154,1.38767,5.32011,2.25754,7.75238,1.85444,5.18525,3.88735,10.30861,5.97009,15.40572,4.83311,11.8281,9.92084,23.621,15.87715,34.9332a70.7405,70.7405,0,0,0,7.36807,12.00574c2.97322,3.63337,6.81572,4.46046,11.37121,5.16112,7.89743,1.21467,17.2248,2.42532,25.12377.76607,4.33587-.91079,7.917-3.53871,12.09533-4.84025,3.06713-.9554,6.27005-.26429,8.44822-3.05779,4.37306-5.60844-.051-17.35778-3.209-22.72876a33.98459,33.98459,0,0,0-6.36194-7.52222c-2.75924-2.56544-8.09082-6.09182-9.53181-8.63292l-2.8234,2.8234c4.93774,3.09691,12.93691,6.75843,18.747,4.148,7.08278-3.1822,2.72771-11.3365-.74858-15.50777-2.9213-3.50532-6.67606-6.15-9.56954-9.71053-3.32313-4.08922-6.04814-8.63947-9.16566-12.88231-4.68761-6.37969-9.2982-12.58744-13.16106-19.52336a2.07486,2.07486,0,0,0-2.33045-.94835l-48.84187,20.36872c-2.41572,1.00743-1.35555,5.00264,1.09717,3.97977l48.84187-20.36871-2.33044-.94835c6.1025,10.95728,13.82592,21.20638,21.37829,31.19535,4.03178,5.33254,10.74018,9.32281,13.61872,15.41425,4.617,9.77026-12.14881,3.29149-15.45236,1.21954a2.07924,2.07924,0,0,0-2.8234,2.8234c1.213,2.139,4.01675,3.94706,5.82554,5.56956,2.20627,1.97905,4.5007,3.88812,6.55045,6.03392,4.35671,4.56085,8.04515,12.32088,7.7054,18.76919-.27859,5.28763-5.08581,4.6874-8.88091,6.25151-4.313,1.77757-8.14757,4.09123-12.9156,4.41287a88.0924,88.0924,0,0,1-23.09773-1.59423c-7.94878-1.64505-11.05447-10.21968-14.45482-16.86678-5.22425-10.21252-9.82884-20.75677-14.17623-31.36806-2.01958-4.92948-3.98742-9.884-5.80678-14.89132-.80181-2.20679-2.371-5.82673-2.467-7.642C1460.18633,1531.93245,1456.05825,1531.916,1456.19883,1534.57467Z"/><path class="e" d="M1521.48771,1608.335c-1.5455-.843-25.57111-6.744-31.47214-27.39762"/><path class="f" d="M1522.52925,1606.55317c-4.225-1.99846-8.68982-3.19453-12.81076-5.52125-8.25526-4.661-14.87662-11.4423-17.713-20.6431-.7801-2.53049-4.76534-1.451-3.97978,1.09718,2.8334,9.191,8.98054,16.39353,17.01158,21.548,4.71422,3.02566,11.0542,5.02311,15.40891,7.08291,2.388,1.12955,4.48519-2.42751,2.08308-3.56372Z"/><path class="e" d="M1536.38078,1603.76876c-1.54551-.843-28.53643-6.79409-34.43746-27.44768"/><path class="f" d="M1537.42232,1601.9869c-4.62827-2.1442-9.642-3.22922-14.23721-5.58359-8.70427-4.4597-16.28127-11.04047-19.2519-20.63082-.78343-2.52919-4.76878-1.45-3.97978,1.09718,2.96054,9.55775,9.91068,16.68046,18.44089,21.6234,5.2163,3.02264,12.23978,4.87774,16.94492,7.05755,2.39439,1.10928,4.49323-2.44713,2.08308-3.56372Z"/><path class="e" d="M1544.32122,1595.04241c-1.54551-.843-24.02561-5.901-29.92663-26.55462"/><path class="f" d="M1545.36276,1593.26055c-3.97367-1.86547-8.18031-2.92512-12.05776-5.10979-8.05062-4.53595-14.17531-11.29582-16.92052-20.21155-.77926-2.53083-4.76448-1.45131-3.97978,1.09717a38.47724,38.47724,0,0,0,16.25731,21.13078c4.47142,2.90368,10.47722,4.71334,14.61767,6.65711,2.39037,1.12218,4.48815-2.43464,2.08308-3.56372Z"/><path class="e" d="M1524.01672,1565.06084a48.60727,48.60727,0,0,1-20.44284-14.61207"/><path class="f" d="M1524.56531,1563.071c-7.61862-2.56009-14.47636-7.96939-19.53224-14.08136-1.69438-2.04832-4.5999.8856-2.91837,2.91837a48.77,48.77,0,0,0,21.35344,15.14277c2.52337.84793,3.60594-3.13676,1.09717-3.97978Z"/><path class="e" d="M1489.92016,1578.74534s16.4815-2.22659,21.66944-8.1128l5.18794-5.8862"/><path class="f" d="M1490.5239,1580.93527a60.577,60.577,0,0,0,15.86605-4.25634c5.20642-2.28068,8.31089-6.14849,11.99347-10.32672,1.92621-2.18546-1.27435-5.40992-3.21176-3.21175-3.46266,3.92871-6.37081,7.66692-11.3331,9.70892a60.268,60.268,0,0,1-14.52213,3.706c-2.88273.40089-1.65587,4.77805,1.20747,4.37986Z"/><path class="g" d="M1333.17958,1099.27672s117.17752,259.64515,127.29356,280.72024,44.6792,102.84646,40.46418,110.43349-46.36521,21.9181-51.42323,20.23209-80.08535-136.5666-85.14338-154.26968-62.06549-76.32268-56.73009-101.16045,8.67888-155.95569,8.67888-155.95569Z"/><path class="g" d="M902.92224,1085.78866S785.74472,1345.43381,775.62868,1366.5089s-44.6792,102.84646-40.46418,110.43349,46.36521,21.9181,51.42323,20.23209,80.08535-136.5666,85.14338-154.26968,62.06549-76.32268,56.73009-101.16045-8.67888-155.95569-8.67888-155.95569Z"/><path class="g" d="M1235.2837,1053.713s95.36687,37.13367,97.89588,45.56371-40.57162,252.05812-48.94794,275.66222-39.56746,124.76455-34.50943,126.87206,1.686,17.28158-3.372,21.4966-248.8741,11.80205-261.84666,5.058-11.28655-20.23209-7.91453-20.23209-34.56316-127.71506-35.40616-165.018-38.2606-257.32689-38.2606-257.32689l113.28793-42.15019L1110.7128,1081.8Z"/><path class="h" d="M1286.60654,808.95411s28.69371-208.64487-69.82134-245.80922S1053.38,543.67784,1053.38,543.67784s-98.51505,17.69731-123.8812,66.65988-39.524,34.21481-39.524,34.21481-2.94955,11.2083,10.02848,12.978,28.43517,159.98667,28.43517,159.98667Z"/><path class="i" d="M1270.468,709.4426c.33274,13.972,1.90465,80.04207,2.35862,99.105,0,0,34.11873-4.47863,34.80465,22.41664.69194,27.13595-37.16327,31.85507-37.16327,31.85507s-16.11695,175.89869-167.741,175.758c-125.53761-2.88471-159.16441-151.757-160.27531-174.38086-.07846-1.59788-.84038-1.42021-2.43342-1.56728-28.74184-2.6535-43.43023-51.47288,7.17769-55.26148l1.1793-97.92512s59.6119-48.10036,65.88919-44.33246c19.31876,11.596,72.16867,24.54455,216.08868,1.26907,0,0,14.33482,7.107,40.11484,43.06339"/><path class="f" d="M1207.04522,739.52874s-27.1089-5.33426-38.98725-3.35454"/><path class="f" d="M1208.33353,734.85565c-13.35937-2.61165-27.98632-5.36123-41.56388-3.35454-6.14833.90869-3.53487,10.24943,2.57663,9.34619,11.70537-1.73,24.90607,1.10549,36.41062,3.35453,6.09328,1.19119,8.7021-8.1487,2.57663-9.34618Z"/><path class="f" d="M1046.31173,735.449s-25.74335,0-38.89446,4.29871"/><path class="f" d="M1046.31173,730.60278c-13.24438.01866-27.47216.51248-40.18278,4.47183-5.936,1.84905-3.40242,11.20866,2.57663,9.34619,11.93156-3.71668,25.17691-4.1081,37.60615-4.12561,6.23621-.00879,6.2473-9.70121,0-9.69241Z"/><ellipse class="j" cx="1032.7453" cy="794.48047" rx="13.56643" ry="8.81312"/><ellipse class="j" cx="1185.17729" cy="794.48047" rx="13.56643" ry="8.81312"/><ellipse class="k" cx="1107.4175" cy="922.5837" rx="10.8586" ry="7.05404"/><path class="f" d="M1138.3961,967.06092c-.80283.678.94083-.61158-.42827.31124-1.25514.846-2.5136,1.66762-3.83373,2.41133a50.19851,50.19851,0,0,1-13.58648,5.14429c-17.69314,4.017-35.27245-2.16861-50.11023-11.67733-5.26719-3.37546-10.13315,5.0103-4.89194,8.36911,23.02938,14.75828,56.85154,21.5932,79.70422,2.29493,4.77189-4.0297-2.11376-10.85617-6.85357-6.85357Z"/><path class="g" d="M1192.47046,1013.09511s34.06914,19.79507,42.92068,35.60139-98.20993,81.77136-98.20993,81.77136-29.90693-45.31145-26.231-51.00173S1192.47046,1013.09511,1192.47046,1013.09511Z"/><path class="g" d="M1025.54743,1013.09511s-31.67686,23.58858-40.5284,39.3949,99.21783,80.50674,99.21783,80.50674,26.50675-47.84034,22.83083-53.53062S1025.54743,1013.09511,1025.54743,1013.09511Z"/><path class="l" d="M1118.10436,1527.73337s3.48128-201.68865,4.74578-218.75947-11.89994-229.50777-11.89994-229.50777,11.89217,296.52657,7.15416,319.28767S1118.10436,1527.73337,1118.10436,1527.73337Z"/><path class="l" d="M1247.6147,1213.92523c1.2645,2.95051,8.00853,38.35667,8.00853,38.35667l-7.16084-.18327-75.18821-1.92424,5.21421-36.24916Z"/><path class="m" d="M1248.46239,1252.09863s-1.4935,37.27543-12.55114,46.97-50.25733,4.53115-50.25733,4.53115l-3.372-51.50112"/><path class="l" d="M975.746,1213.92523c-1.2645,2.95051-8.00853,38.35667-8.00853,38.35667l7.16084-.18327,75.18821-1.92424-5.21421-36.24916Z"/><path class="m" d="M974.8983,1252.09863s1.4935,37.27543,12.55115,46.97,50.25732,4.53115,50.25732,4.53115l3.372-51.50112"/><path class="l" d="M932.59594,1121.84274s-12.68642-4.21488-13.74284-15.37968,26.34438-21.8625,33.58131-25.41006,30.26876-8.35251,32.47312-9.24416,9.9968,20.30626,7.16206,21.39426l-2.83475,1.088Z"/><rect class="n" x="973.98382" y="1523.3076" width="274.47857" height="40.46418" transform="translate(2222.44621 3087.07938) rotate(180)"/><rect class="l" x="1088.53491" y="1527.73337" width="45.37639" height="30.98039" transform="translate(2222.44621 3086.44712) rotate(180)"/><path class="g" d="M787.444,1498.91588s5.84869,3.38226,3.74118,8.01878-5.47953,10.53755-8.00854,12.64506-61.11777-18.54608-61.53927-24.02561,1.96076-21.07509,7.09216-20.65359S787.444,1498.91588,787.444,1498.91588Z"/><path class="v" d="M1453.31589,1515.84455s-4.951,3.45355-3.167,8.18779,4.63852,10.75963,6.77938,12.91156,51.73736-18.937,52.09417-24.532-1.65983-21.51926-6.00365-21.08888S1453.31589,1515.84455,1453.31589,1515.84455Z"/><path class="o" d="M1305.21355,1094.0899s10.93683-16.07346-.13518-24.83009-35.72251-28.7022-45.31739-15.26346-10.31379,17.98965-10.31379,17.98965"/><path class="o" d="M1287.25362,1119.57746s-13.26639,27.977-25.16533,30.61886-36.80721-8.51343-33.64912-21.89974,10.15137-32.391,10.15137-32.391Z"/><path class="k" d="M1301.61067,1080.16229s-20.86892,25.57111-28.76979,46.92721-.9073,11.06281-.9073,11.06281,28.83408-50.26249,29.67709-52.5105S1301.61067,1080.16229,1301.61067,1080.16229Z"/><path class="l" d="M1295.99793,1121.84274s12.68642-4.21488,13.74284-15.37968-26.34438-21.8625-33.58131-25.41006-30.26876-8.35251-32.47312-9.24416-9.9968,20.30626-7.16206,21.39426l2.83475,1.088Z"/><path class="p" d="M1248.46245,1563.77174c6.1943,16.51527,20.6152,93.00145,20.6152,93.00145s-225.43558,52.34242-322.249-4.9063c0,0,13.71445-73.34736,27.15522-83.84417S1248.46245,1563.77174,1248.46245,1563.77174Z"/><line class="q" x1="1114.40204" y1="1561.94474" x2="1114.40204" y2="1676.25096"/><line class="r" x1="1026.20277" y1="1213.92523" x2="1048.37857" y2="1238.61181"/><line class="r" x1="971.67889" y1="1227.89132" x2="992.26371" y2="1250.80678"/><line class="r" x1="1019.46605" y1="1215.54379" x2="1048.37857" y2="1247.72984"/><line class="r" x1="1012.56087" y1="1215.06682" x2="1043.21941" y2="1249.19659"/><line class="r" x1="1005.81306" y1="1215.39869" x2="1036.15367" y2="1249.17452"/><line class="r" x1="998.42255" y1="1215.42076" x2="1029.95655" y2="1250.52509"/><line class="r" x1="990.47996" y1="1215.06682" x2="1022.01396" y2="1250.17116"/><line class="r" x1="982.7729" y1="1215.06682" x2="1014.30689" y2="1250.17116"/><line class="r" x1="976.12322" y1="1215.81323" x2="1007.5577" y2="1250.80678"/><line class="r" x1="973.07473" y1="1221.05095" x2="999.8042" y2="1250.80678"/><line class="s" x1="1032.13" y1="1213.37786" x2="1048.37857" y2="1230.36357"/><line class="s" x1="972.2781" y1="1236.25925" x2="986.43947" y2="1251.06306"/><line class="s" x1="969.3678" y1="1239.21162" x2="980.25907" y2="1250.74279"/><line class="r" x1="1197.11912" y1="1214.13864" x2="1174.94332" y2="1238.82523"/><line class="r" x1="1251.643" y1="1228.10474" x2="1231.05819" y2="1251.0202"/><line class="r" x1="1203.85584" y1="1215.75721" x2="1174.94332" y2="1247.94326"/><line class="r" x1="1210.76103" y1="1215.28024" x2="1180.10248" y2="1249.41"/><line class="r" x1="1217.50884" y1="1215.61211" x2="1187.16823" y2="1249.38794"/><line class="r" x1="1224.89934" y1="1215.63417" x2="1193.36535" y2="1250.73851"/><line class="r" x1="1232.84193" y1="1215.28024" x2="1201.30793" y2="1250.38458"/><line class="r" x1="1240.549" y1="1215.28024" x2="1209.015" y2="1250.38458"/><line class="r" x1="1247.19867" y1="1216.02665" x2="1215.76419" y2="1251.0202"/><line class="r" x1="1250.24716" y1="1221.26437" x2="1223.51769" y2="1251.0202"/><line class="s" x1="1191.19189" y1="1213.59128" x2="1174.94332" y2="1230.57699"/><line class="s" x1="1251.04379" y1="1236.47266" x2="1236.88243" y2="1251.27648"/><line class="s" x1="1253.9541" y1="1239.42504" x2="1243.06283" y2="1250.95621"/><line class="t" x1="1134.00927" y1="1537.90269" x2="1114.76792" y2="1559.32257"/><line class="t" x1="1095.79545" y1="1525.91518" x2="1088.05271" y2="1533.3598"/><line class="t" x1="1102.10287" y1="1526.22539" x2="1088.05271" y2="1541.86632"/><line class="t" x1="1109.01103" y1="1526.24601" x2="1086.95931" y2="1550.79447"/><line class="t" x1="1116.43525" y1="1525.91518" x2="1086.95931" y2="1558.72844"/><line class="t" x1="1123.63931" y1="1525.91518" x2="1094.16338" y2="1558.72844"/><line class="t" x1="1129.855" y1="1526.61287" x2="1100.47208" y2="1559.32257"/><line class="t" x1="1132.70453" y1="1531.50875" x2="1107.71955" y2="1559.32257"/><line class="u" x1="1133.44917" y1="1545.72448" x2="1120.21204" y2="1559.56213"/><line class="u" x1="1136.16953" y1="1548.48417" x2="1125.98908" y2="1559.26276"/><circle class="t" cx="1298.96717" cy="1107.94147" r="1.84407"/><circle class="t" cx="928.81318" cy="1107.94147" r="1.84407"/><path class="d" d="M882.283,1004.08443c6.092,0,19.49362,42.42861,19.49362,42.42861l-90.99269,49.80365-80.34873-55.63825,30.10157-53.03258Z"/><path class="e" d="M485.12766,1517.87226c0,4.072-24.44711,65.18982-33.29865,71.09084-3.5045,2.33633-18.86168,3.69716-28.7675,3.33518-6.53633-.23885-9.98681-3.3648-15.38482-5.23194-3.93516-1.36114-5.48.07387-7.37628-2.31826-1.5173-1.914-1.22237-5.354-.73763-8.00853,2.95051-16.15757,8.149-16.94948,19.81059-28.38113.903-.88519-1.11959,1.23219-7.93772,3.47618-4.42634,1.4568-10.18686,1.72234-11.32068-2.55773-.87036-3.28552,3.30667-9.35089,7.45634-12.79075,8.00854-6.63866,10.702-13.69634,18.91214-23.81486,4.41034-5.4355,9.80233-15.16772,9.80233-15.16772Z"/><path class="f" d="M483.06406,1517.87226c-.27713,5.241-4.47581,13.0868-6.59226,18.38083-4.32184,10.81049-8.9436,21.5254-14.08152,31.97511-2.1117,4.29486-4.29886,8.57588-6.80243,12.65839-1.48569,2.42267-3.07887,5.45779-5.72117,6.74856-5.84076,2.85324-14.42028,2.48138-20.76939,2.6243-3.91994.08825-7.89213.18032-11.63562-1.15757-3.87692-1.38557-7.33336-3.82044-11.43624-4.55936-6.54807-1.1793-4.67968-7.46507-3.33931-12.31312a26.00009,26.00009,0,0,1,4.539-9.45334,56.7094,56.7094,0,0,1,6.89937-6.766c2.19335-1.95653,5.75959-4.2338,7.22188-6.81247a2.07911,2.07911,0,0,0-2.8234-2.8234c-3.30078,2.07022-20.08385,8.5814-15.45236-1.21954,2.89022-6.11614,9.57527-10.06627,13.61872-15.41424,7.5539-9.991,15.27462-20.236,21.37829-31.19536l-2.33044.94835,48.84187,20.36872c2.44848,1.02109,3.51683-2.9707,1.09718-3.97978l-48.84188-20.36872a2.06458,2.06458,0,0,0-2.33045.94835c-3.863,6.93617-8.47022,13.14593-13.16106,19.52337-2.9025,3.94609-5.47344,8.13628-8.48341,12.00246-3.06035,3.93091-7.08842,6.79551-10.25179,10.59038-3.48557,4.18138-7.82482,12.32344-.74858,15.50776,5.80056,2.61026,13.81567-1.05515,18.747-4.148l-2.8234-2.8234c-1.09044,1.92292-5.62526,5.112-7.89888,7.15334a45.08907,45.08907,0,0,0-6.65785,6.96521c-3.93093,5.44432-7.10256,14.45309-5.96245,21.17793.41566,2.45174,1.666,4.6735,4.09161,5.59457,1.33307.5062,2.84778.32706,4.22486.61918,2.94117.62389,5.599,2.24474,8.32426,3.445,7.64909,3.36875,16.41281,2.5463,24.54722,1.7761,4.97359-.47092,11.75283-.57014,15.68329-4.109,2.90934-2.61946,4.93784-6.51193,6.83194-9.86941,6.24-11.061,11.31662-22.81921,16.21221-34.52176,2.49726-5.96952,4.91885-11.976,7.14821-18.05133,1.07407-2.927,2.69654-6.25175,2.86417-9.42208C487.33161,1515.218,483.204,1515.22567,483.06406,1517.87226Z"/><path class="e" d="M421.90238,1591.63261c1.5455-.843,25.57111-6.744,31.47214-27.39762"/><path class="f" d="M422.94392,1593.41447c4.34824-2.05674,10.701-4.06129,15.40891-7.08291,8.03083-5.15431,14.178-12.35623,17.01158-21.548.78423-2.54393-3.19842-3.63175-3.97978-1.09718-2.83527,9.19709-9.457,15.98725-17.713,20.6431-4.12,2.32341-8.58753,3.52364-12.81076,5.52125-2.39952,1.135-.30725,4.69437,2.08308,3.56372Z"/><path class="e" d="M407.00931,1587.06634c1.54551-.843,28.53644-6.79408,34.43746-27.44768"/><path class="f" d="M408.05085,1588.8482c4.70225-2.17847,11.72988-4.03564,16.94492-7.05755,8.53116-4.94349,15.48-12.06441,18.44089-21.6234.78767-2.54291-3.19509-3.63045-3.97978-1.09717-2.96923,9.58581-10.55058,16.17246-19.2519,20.63081-4.5956,2.35468-9.60876,3.4393-14.23721,5.58359-2.40755,1.11538-.31362,4.67408,2.08308,3.56372Z"/><path class="e" d="M399.06887,1578.34c1.54551-.843,24.02561-5.901,29.92663-26.55461"/><path class="f" d="M400.11041,1580.12185c4.13376-1.94062,10.15269-3.75761,14.61767-6.6571a38.47548,38.47548,0,0,0,16.25731-21.13079c.78337-2.54418-3.19926-3.63208-3.97977-1.09717-2.74515,8.91552-8.86985,15.67555-16.92052,20.21156-3.87723,2.18455-8.08429,3.2444-12.05777,5.10978-2.40248,1.12787-.30961,4.687,2.08308,3.56372Z"/><path class="e" d="M419.37337,1548.35842a48.6073,48.6073,0,0,0,20.44284-14.61206"/><path class="f" d="M419.922,1550.34831a48.77,48.77,0,0,0,21.35344-15.14277c1.68081-2.0319-1.22326-4.96757-2.91837-2.91837-5.05808,6.11464-11.91189,11.52069-19.53224,14.08136-2.50471.84166-1.43049,4.82915,1.09717,3.97978Z"/><path class="e" d="M453.46993,1562.04293s-16.4815-2.2266-21.66944-8.11281l-5.18794-5.8862"/><path class="f" d="M454.07366,1559.853a60.26954,60.26954,0,0,1-14.52213-3.706c-4.96282-2.04238-7.86981-5.77949-11.3331-9.70892-1.93657-2.19722-5.13879,1.02535-3.21176,3.21176,3.68348,4.17925,6.78426,8.04654,11.99347,10.32671a60.62641,60.62641,0,0,0,15.86605,4.25634c2.85871.39755,4.09476-3.97834,1.20747-4.37985Z"/><path class="e" d="M1172.48744,1531.61464c0,4.072,24.44711,65.18982,33.29865,71.09085,3.5045,2.33633,18.86169,3.69716,28.7675,3.33518,6.53633-.23886,9.98682-3.3648,15.38482-5.23194,3.93516-1.36115,5.48.07386,7.37629-2.31826,1.51729-1.914,1.22237-5.354.73762-8.00854-2.95051-16.15757-8.149-16.94947-19.81058-28.38112-.903-.8852,1.11958,1.23219,7.93772,3.47618,4.42633,1.4568,10.18686,1.72234,11.32068-2.55774.87035-3.28551-3.30668-9.35088-7.45635-12.79074-8.00854-6.63866-10.702-13.69635-18.91214-23.81486-4.41034-5.4355-9.80233-15.16772-9.80233-15.16772Z"/><path class="f" d="M1170.42384,1531.61464c.13862,2.62154,1.38768,5.32011,2.25755,7.75238,1.85443,5.18525,3.88734,10.30861,5.97009,15.40572,4.8331,11.8281,9.92083,23.621,15.87715,34.9332a70.74,70.74,0,0,0,7.36806,12.00573c2.97322,3.63338,6.81572,4.46047,11.37121,5.16113,7.89744,1.21467,17.2248,2.42532,25.12377.76607,4.33587-.9108,7.917-3.53872,12.09533-4.84025,3.06713-.9554,6.27-.26429,8.44822-3.05779,4.37307-5.60844-.051-17.35778-3.209-22.72877a33.9845,33.9845,0,0,0-6.36194-7.52221c-2.75924-2.56544-8.09082-6.09182-9.53181-8.63293l-2.8234,2.82341c4.93774,3.09691,12.93691,6.75842,18.747,4.148,7.08278-3.1822,2.72771-11.3365-.74858-15.50777-2.9213-3.50532-6.67606-6.15-9.56954-9.71053-3.32313-4.08922-6.04814-8.63947-9.16566-12.88231-4.68761-6.37969-9.2982-12.58744-13.16106-19.52336a2.07486,2.07486,0,0,0-2.33045-.94835l-48.84187,20.36871c-2.41572,1.00744-1.35554,5.00265,1.09717,3.97978l48.84188-20.36871-2.33045-.94835c6.1025,10.95728,13.82592,21.20638,21.3783,31.19535,4.03177,5.33254,10.74017,9.32281,13.61871,15.41425,4.617,9.77026-12.14881,3.29149-15.45236,1.21953a2.07924,2.07924,0,0,0-2.8234,2.8234c1.213,2.139,4.01675,3.94707,5.82554,5.56957,2.20627,1.979,4.5007,3.88812,6.55045,6.03392,4.35671,4.56085,8.04515,12.32088,7.7054,18.76919-.27859,5.28763-5.0858,4.6874-8.88091,6.2515-4.313,1.77758-8.14756,4.09124-12.9156,4.41288a88.09276,88.09276,0,0,1-23.09772-1.59423c-7.94879-1.64505-11.05447-10.21968-14.45482-16.86678-5.22426-10.21252-9.82885-20.75677-14.17624-31.36806-2.01958-4.92948-3.98742-9.884-5.80678-14.89132-.80181-2.20679-2.371-5.82674-2.467-7.642C1174.41134,1528.97242,1170.28326,1528.956,1170.42384,1531.61464Z"/><path class="e" d="M1235.71272,1605.375c-1.5455-.843-25.57111-6.744-31.47213-27.39762"/><path class="f" d="M1236.75426,1603.59314c-4.225-1.99846-8.68981-3.19453-12.81076-5.52125-8.25526-4.661-14.87662-11.4423-17.713-20.6431-.78009-2.5305-4.76534-1.451-3.97977,1.09718,2.83339,9.191,8.98053,16.39353,17.01157,21.548,4.71422,3.02566,11.05421,5.02312,15.40892,7.08292,2.388,1.12955,4.48519-2.42751,2.08307-3.56372Z"/><path class="e" d="M1250.60579,1600.80873c-1.54551-.843-28.53643-6.79409-34.43746-27.44768"/><path class="f" d="M1251.64733,1599.02687c-4.62826-2.1442-9.642-3.22922-14.23721-5.58359-8.70427-4.4597-16.28127-11.04048-19.2519-20.63082-.78342-2.52919-4.76878-1.45-3.97978,1.09718,2.96054,9.55775,9.91068,16.68046,18.4409,21.62339,5.21629,3.02265,12.23977,4.87774,16.94491,7.05756,2.39439,1.10928,4.49324-2.44713,2.08308-3.56372Z"/><path class="e" d="M1258.54623,1592.08238c-1.54551-.843-24.02561-5.901-29.92663-26.55462"/><path class="f" d="M1259.58777,1590.30052c-3.97367-1.86547-8.18031-2.92512-12.05776-5.10979-8.05062-4.53595-14.17531-11.29582-16.92052-20.21156-.77926-2.53082-4.76447-1.4513-3.97978,1.09718a38.47724,38.47724,0,0,0,16.25731,21.13078c4.47142,2.90368,10.47722,4.71334,14.61767,6.65711,2.39037,1.12218,4.48816-2.43464,2.08308-3.56372Z"/><path class="e" d="M1238.24174,1562.10081a48.60731,48.60731,0,0,1-20.44284-14.61207"/><path class="f" d="M1238.79032,1560.11092c-7.61861-2.56009-14.47636-7.9694-19.53224-14.08136-1.69438-2.04832-4.5999.8856-2.91837,2.91837a48.77,48.77,0,0,0,21.35344,15.14277c2.52337.84793,3.60594-3.13676,1.09717-3.97978Z"/><path class="e" d="M1204.14518,1575.78531s16.4815-2.2266,21.66943-8.1128l5.18794-5.8862"/><path class="f" d="M1204.74891,1577.97524a60.577,60.577,0,0,0,15.86605-4.25634c5.20642-2.28068,8.3109-6.14849,11.99347-10.32672,1.92621-2.18547-1.27435-5.40992-3.21175-3.21175-3.46267,3.92871-6.37082,7.66692-11.33311,9.70892a60.268,60.268,0,0,1-14.52213,3.706c-2.88272.40088-1.65586,4.77805,1.20747,4.37986Z"/><path class="g" d="M1047.40459,1096.31669s117.17752,259.64515,127.29356,280.72024,44.6792,102.84646,40.46418,110.43349-46.3652,21.9181-51.42323,20.23209-80.08535-136.5666-85.14337-154.26968-62.0655-76.32268-56.7301-101.16045,8.67888-155.95569,8.67888-155.95569Z"/><path class="g" d="M617.14726,1082.82863s-117.17752,259.64515-127.29357,280.72024-44.6792,102.84646-40.46418,110.43349,46.36521,21.9181,51.42323,20.23209,80.08536-136.5666,85.14338-154.26968,62.06549-76.32268,56.73009-101.16045-8.67888-155.95569-8.67888-155.95569Z"/><path class="g" d="M949.50872,1050.753s95.36686,37.13367,97.89587,45.56371-40.57162,252.05812-48.94794,275.66222S958.8892,1496.74346,963.94722,1498.851s1.686,17.28158-3.372,21.4966-248.8741,11.80205-261.84666,5.058S687.442,1505.1735,690.814,1505.1735s-34.56315-127.71507-35.40616-165.018-38.26059-257.32689-38.26059-257.32689l113.28792-42.15019L824.93781,1078.84Z"/><path class="h" d="M1000.83155,805.99408s28.69371-208.64487-69.82134-245.80923-163.40519-19.467-163.40519-19.467-98.515,17.69731-123.8812,66.65988-39.524,34.21481-39.524,34.21481-2.94955,11.2083,10.02848,12.978S642.66348,814.5572,642.66348,814.5572Z"/><path class="i" d="M984.693,706.48257c.33274,13.972,1.90465,80.04207,2.35862,99.105,0,0,34.11873-4.47863,34.80465,22.41664.69194,27.136-37.16327,31.85507-37.16327,31.85507S968.576,1035.758,816.952,1035.61731c-125.53761-2.88471-159.16441-151.757-160.27531-174.38086-.07846-1.59788-.84038-1.42021-2.43341-1.56728-28.74185-2.6535-43.43024-51.47288,7.17768-55.26148l1.17931-97.92512s59.61189-48.10036,65.88918-44.33246c19.31876,11.596,72.16867,24.54455,216.08868,1.26907,0,0,14.33482,7.107,40.11484,43.06339"/><path class="f" d="M921.27023,736.56871s-27.10889-5.33426-38.98725-3.35454"/><path class="f" d="M922.55854,731.89562c-13.35937-2.61165-27.98632-5.36123-41.56387-3.35454-6.14834.90869-3.53488,10.24943,2.57662,9.34619,11.70537-1.73,24.90607,1.10548,36.41063,3.35453,6.09328,1.19119,8.70209-8.14871,2.57662-9.34618Z"/><path class="f" d="M760.53675,732.489s-25.74335,0-38.89447,4.29871"/><path class="f" d="M760.53675,727.64275c-13.24438.01866-27.47217.51248-40.18279,4.47183-5.936,1.849-3.40242,11.20866,2.57663,9.34618,11.93156-3.71667,25.17691-4.10809,37.60616-4.1256,6.23621-.00879,6.24729-9.70121,0-9.69241Z"/><ellipse class="j" cx="746.97031" cy="791.52044" rx="13.56643" ry="8.81312"/><ellipse class="j" cx="899.4023" cy="791.52044" rx="13.56643" ry="8.81312"/><ellipse class="k" cx="821.64251" cy="919.62367" rx="10.8586" ry="7.05404"/><path class="f" d="M852.62111,964.10089c-.80283.678.94083-.61158-.42827.31124-1.25514.846-2.51359,1.66762-3.83372,2.41133a50.19876,50.19876,0,0,1-13.58648,5.14429c-17.69314,4.017-35.27246-2.16861-50.11023-11.67733-5.26719-3.37546-10.13316,5.0103-4.892,8.36911,23.02938,14.75828,56.85154,21.5932,79.70422,2.29493,4.7719-4.0297-2.11376-10.85617-6.85357-6.85357Z"/><path class="g" d="M906.69547,1010.13508s34.06915,19.79506,42.92069,35.60138-98.20994,81.77137-98.20994,81.77137-29.90692-45.31145-26.231-51.00173S906.69547,1010.13508,906.69547,1010.13508Z"/><path class="g" d="M739.77245,1010.13508s-31.67686,23.58858-40.5284,39.3949,99.21782,80.50674,99.21782,80.50674,26.50675-47.84034,22.83083-53.53062S739.77245,1010.13508,739.77245,1010.13508Z"/><path class="l" d="M832.32937,1524.77334s3.48128-201.68865,4.74579-218.75947-11.89995-229.50777-11.89995-229.50777,11.89217,296.52656,7.15416,319.28767S832.32937,1524.77334,832.32937,1524.77334Z"/><path class="l" d="M961.83971,1210.9652c1.26451,2.95051,8.00854,38.35667,8.00854,38.35667l-7.16085-.18327-75.1882-1.92424,5.2142-36.24916Z"/><path class="m" d="M962.6874,1249.1386s-1.49349,37.27543-12.55114,46.97-50.25732,4.53115-50.25732,4.53115l-3.372-51.50112"/><path class="l" d="M689.971,1210.9652c-1.26451,2.95051-8.00854,38.35667-8.00854,38.35667l7.16084-.18327,75.18821-1.92424-5.21421-36.24916Z"/><path class="m" d="M689.12331,1249.1386s1.4935,37.27543,12.55115,46.97,50.25732,4.53115,50.25732,4.53115l3.372-51.50112"/><path class="l" d="M646.821,1118.88271s-12.68642-4.21489-13.74284-15.37968,26.34438-21.8625,33.58131-25.41006,30.26876-8.35252,32.47312-9.24417,9.99681,20.30626,7.16206,21.39427l-2.83475,1.088Z"/><rect class="n" x="688.20884" y="1520.34757" width="274.47857" height="40.46418" transform="translate(1650.89624 3081.15931) rotate(180)"/><rect class="l" x="802.75992" y="1524.77334" width="45.37639" height="30.98039" transform="translate(1650.89624 3080.52706) rotate(180)"/><path class="g" d="M501.669,1495.95585s5.84869,3.38226,3.74118,8.01878-5.47953,10.53755-8.00854,12.64506-61.11777-18.54608-61.53927-24.02561,1.96076-21.07509,7.09216-20.65359S501.669,1495.95585,501.669,1495.95585Z"/><path class="v" d="M1167.5409,1512.88452s-4.951,3.45355-3.167,8.18779,4.63853,10.75963,6.77938,12.91156,51.73736-18.937,52.09417-24.532-1.65982-21.51926-6.00365-21.08888S1167.5409,1512.88452,1167.5409,1512.88452Z"/><path class="o" d="M1019.43856,1091.12987s10.93683-16.07346-.13517-24.8301-35.72252-28.70219-45.31739-15.26345-10.31379,17.98965-10.31379,17.98965"/><path class="o" d="M1001.47863,1116.61742s-13.26638,27.977-25.16532,30.61887-36.80722-8.51343-33.64913-21.89974,10.15137-32.391,10.15137-32.391Z"/><path class="k" d="M1015.83568,1077.20226s-20.86892,25.57111-28.76979,46.92721-.90729,11.06281-.90729,11.06281,28.83408-50.26249,29.67708-52.5105S1015.83568,1077.20226,1015.83568,1077.20226Z"/><path class="l" d="M1010.223,1118.88271s12.68641-4.21489,13.74284-15.37968-26.34438-21.8625-33.58131-25.41006-30.26876-8.35252-32.47313-9.24417-9.9968,20.30626-7.16205,21.39427l2.83474,1.088Z"/><path class="p" d="M962.68746,1560.8117c6.1943,16.51528,20.6152,93.00145,20.6152,93.00145s-225.43558,52.34243-322.249-4.90629c0,0,13.71445-73.34736,27.15523-83.84418S962.68746,1560.8117,962.68746,1560.8117Z"/><line class="q" x1="828.62705" y1="1558.98471" x2="828.62705" y2="1673.29093"/><line class="r" x1="740.42778" y1="1210.9652" x2="762.60359" y2="1235.65178"/><line class="r" x1="685.90391" y1="1224.93129" x2="706.48872" y2="1247.84675"/><line class="r" x1="733.69107" y1="1212.58376" x2="762.60359" y2="1244.76981"/><line class="r" x1="726.78588" y1="1212.10679" x2="757.44443" y2="1246.23656"/><line class="r" x1="720.03807" y1="1212.43866" x2="750.37868" y2="1246.21449"/><line class="r" x1="712.64756" y1="1212.46073" x2="744.18156" y2="1247.56506"/><line class="r" x1="704.70498" y1="1212.10679" x2="736.23897" y2="1247.21113"/><line class="r" x1="696.99791" y1="1212.10679" x2="728.53191" y2="1247.21113"/><line class="r" x1="690.34823" y1="1212.8532" x2="721.78271" y2="1247.84675"/><line class="r" x1="687.29974" y1="1218.09092" x2="714.02922" y2="1247.84675"/><line class="s" x1="746.35502" y1="1210.41783" x2="762.60359" y2="1227.40354"/><line class="s" x1="686.50311" y1="1233.29921" x2="700.66448" y2="1248.10303"/><line class="s" x1="683.59281" y1="1236.25159" x2="694.48408" y2="1247.78276"/><line class="r" x1="911.34414" y1="1211.17861" x2="889.16833" y2="1235.8652"/><line class="r" x1="965.86801" y1="1225.14471" x2="945.2832" y2="1248.06017"/><line class="r" x1="918.08085" y1="1212.79718" x2="889.16833" y2="1244.98323"/><line class="r" x1="924.98604" y1="1212.32021" x2="894.32749" y2="1246.44997"/><line class="r" x1="931.73385" y1="1212.65208" x2="901.39324" y2="1246.42791"/><line class="r" x1="939.12435" y1="1212.67414" x2="907.59036" y2="1247.77848"/><line class="r" x1="947.06694" y1="1212.32021" x2="915.53295" y2="1247.42454"/><line class="r" x1="954.77401" y1="1212.32021" x2="923.24001" y2="1247.42454"/><line class="r" x1="961.42368" y1="1213.06661" x2="929.9892" y2="1248.06017"/><line class="r" x1="964.47218" y1="1218.30434" x2="937.7427" y2="1248.06017"/><line class="s" x1="905.4169" y1="1210.63125" x2="889.16833" y2="1227.61696"/><line class="s" x1="965.26881" y1="1233.51263" x2="951.10744" y2="1248.31645"/><line class="s" x1="968.17911" y1="1236.46501" x2="957.28784" y2="1247.99618"/><line class="t" x1="848.23428" y1="1534.94266" x2="828.99293" y2="1556.36254"/><line class="t" x1="810.02046" y1="1522.95515" x2="802.27773" y2="1530.39977"/><line class="t" x1="816.32788" y1="1523.26536" x2="802.27773" y2="1538.90629"/><line class="t" x1="823.23604" y1="1523.28598" x2="801.18432" y2="1547.83444"/><line class="t" x1="830.66026" y1="1522.95515" x2="801.18432" y2="1555.76841"/><line class="t" x1="837.86433" y1="1522.95515" x2="808.38839" y2="1555.76841"/><line class="t" x1="844.08001" y1="1523.65284" x2="814.6971" y2="1556.36254"/><line class="t" x1="846.92954" y1="1528.54872" x2="821.94457" y2="1556.36254"/><line class="u" x1="847.67418" y1="1542.76445" x2="834.43706" y2="1556.6021"/><line class="u" x1="850.39454" y1="1545.52414" x2="840.21409" y2="1556.30273"/><circle class="t" cx="1013.19218" cy="1104.98144" r="1.84407"/><circle class="t" cx="643.0382" cy="1104.98144" r="1.84407"/></g><path class="e" d="M1214.79006,155.863c-2.27125-4.27721-4.026-7.58164-5.88045-11.0739-3.32054,1.6642-5.79264,2.87733-8.24215,4.13461q-69.27171,35.55647-138.57988,71.04144c-3.28625,1.67652-7.32246,3.457-10.73319,3.02123-10.52313-1.34428-19.60719,1.57239-28.29873,7.01309-27.39707,17.14993-54.9178,34.10457-82.1747,51.47407-4.86352,3.09927-8.31963,3.0173-13.24357.19306a108.03728,108.03728,0,0,0-53.7327-14.75291c-29.86375-.17672-59.73362-.3768-89.59307.02262-61.76669.82622-114.70141,51.06244-117.56886,112.84132-1.6015,34.50423-.577,69.12822-.90268,103.69669-.04449,4.72115,1.78533,6.61578,6.26327,8.00695,69.59136,21.62,140.4553,32.16223,213.35867,24.57874,33.925-3.52887,67.01946-10.6317,98.45658-24.49429,6.02564-2.65706,8.08193-6.15376,7.9139-12.61847-.424-16.31.08183-32.64218-.19051-48.95868-.4458-26.70514,2.76272-53.69533-6.41259-80.106,2.84715-1.81018,5.36421-3.43667,7.90635-5.02281,25.07973-15.64842,50.25259-31.14978,75.217-46.98012,18.57356-11.77786,23.47264-33.10212,12.19531-52.0058-3.0762-5.15652-6.7295-9.96851-10.59894-15.64412ZM826.58018,252.184c2.20962,0,4.42122.06246,6.62852-.00907,70.15805-2.27342,114.27967-81.70113,78.76168-142.18412-3.70389-6.30724-4.87735-10.27825-.12883-17.18441,10.92826-15.89382,7.25141-26.62231-10.70691-33.29991A237.13223,237.13223,0,0,0,865.3752,49.36712c-23.523-4.7311-47.15583-9.078-70.89772-12.51573-27.598-3.99607-50.23529,20.50177-42.11015,46.16282,2.92633,9.24207.92041,14.695-3.77727,22.12408-20.17478,31.90511-21.24786,65.36795-3.08283,98.20666C762.85648,234.709,790.72178,250.614,826.58018,252.184Z"/><path d="M1214.79006,155.863l-144.84094,74.36674c3.86944,5.67561,7.52274,10.4876,10.59894,15.64412,11.27733,18.90368,6.37825,40.22794-12.19531,52.0058-24.96441,15.83034-50.13727,31.3317-75.217,46.98012-2.54214,1.58614-5.0592,3.21263-7.90635,5.02281,9.17531,26.41065,5.96679,53.40084,6.41259,80.106.27234,16.3165-.23351,32.64866.19051,48.95868.168,6.46471-1.88826,9.96141-7.9139,12.61847C952.48148,505.42834,919.387,512.53117,885.462,516.06c-72.90337,7.58349-143.76731-2.95875-213.35867-24.57874-4.47794-1.39117-6.30776-3.2858-6.26327-8.00695.32573-34.56847-.69882-69.19246.90268-103.69669,2.86745-61.77888,55.80217-112.0151,117.56886-112.84132,29.85945-.39942,59.72932-.19934,89.59307-.02262a108.03728,108.03728,0,0,1,53.7327,14.75291c4.92394,2.82424,8.38,2.90621,13.24357-.19306,27.2569-17.3695,54.77763-34.32414,82.1747-51.47407,8.69154-5.4407,17.7756-8.35737,28.29873-7.01309,3.41073.43573,7.44694-1.34471,10.73319-3.02123q69.35959-35.38408,138.57988-71.04144c2.44951-1.25728,4.92161-2.47041,8.24215-4.13461C1210.76409,148.28139,1212.51881,151.58582,1214.79006,155.863Z"/><path d="M826.58018,252.184c-35.8584-1.57-63.7237-17.475-81.07295-48.839-18.165-32.83871-17.09195-66.30155,3.08283-98.20666,4.69768-7.429,6.7036-12.882,3.77727-22.12408-8.12514-25.66105,14.51214-50.15889,42.11015-46.16282,23.74189,3.43769,47.3747,7.78463,70.89772,12.51573a237.13223,237.13223,0,0,1,35.75944,10.13934c17.95832,6.6776,21.63517,17.40609,10.70691,33.29991-4.74852,6.90616-3.57506,10.87717.12883,17.18441,35.518,60.483-8.60363,139.9107-78.76168,142.18412C831.0014,252.24643,828.7898,252.184,826.58018,252.184Z"/></svg>