<svg xmlns="http://www.w3.org/2000/svg" xmlns:xlink="http://www.w3.org/1999/xlink" viewBox="0 0 1665.06773 1665.06773"><defs><style>.a,.z{fill:none;}.b{fill:#856eaf;}.c,.f,.j,.m,.r,.s,.t,.u,.v{fill:#fff;}.d{clip-path:url(#a);}.e,.g,.k,.l,.o,.w,.x{fill:#1d1d1b;}.aa,.e,.f,.h,.i,.j,.k,.l,.m,.n,.o,.p,.q,.r,.s,.t,.u,.v,.w,.x{stroke:#1d1d1b;}.aa,.e,.f,.h,.i,.j,.k,.l,.m,.n,.o,.p,.q,.r,.s,.t,.u,.v,.w,.x,.z{stroke-miterlimit:10;}.e{stroke-width:1.54032px;}.f{stroke-width:0.27515px;}.aa,.h,.i{fill:#dadada;}.h{stroke-width:5.76199px;}.i,.m,.n,.q{stroke-width:5.50294px;}.j{stroke-width:6.78469px;}.k{stroke-width:8.72317px;}.l{stroke-width:1.55156px;}.n{fill:#c6c6c6;}.o{stroke-width:5.63411px;}.p{fill:#ededed;}.p,.s{stroke-width:2.47632px;}.q{fill:#b2b2b2;}.r{stroke-width:5.59144px;}.t{stroke-width:1.97346px;}.u{stroke-width:2.31471px;}.v{stroke-width:1.84466px;}.w{stroke-width:6.57901px;}.x{stroke-width:7px;}.ab,.y{fill:#be1622;}.z{stroke:#b2b2b2;stroke-width:8px;}.aa{stroke-width:5.18882px;}.ab{opacity:0.13;}</style><clipPath id="a"><circle class="a" cx="832.53387" cy="832.53387" r="832.53387"/></clipPath></defs><circle class="b" cx="830.96985" cy="832.53387" r="831.04805"/><path class="c" d="M523.58584,315.12078c-.26069,26.06831-16.4851,50.2796-41.243,59.24967A63.92556,63.92556,0,0,1,411.83662,355.427c-17.03741-20.24319-19.07944-50.13814-5.553-72.73313,13.4791-22.51591,40.533-34.76127,66.3531-29.54395a63.86141,63.86141,0,0,1,50.94913,61.97087c.07522,7.52135,11.77067,7.54031,11.69526,0a75.784,75.784,0,0,0-49.20189-70.30052c-29.25-10.86343-63.66592-1.449-83.34657,22.73288C382.88523,291.94,380.02,327.03536,396.52289,354.01476a75.68156,75.68156,0,0,0,78.55478,34.4825c34.837-6.68045,59.85252-38.28622,60.20343-73.37648C535.35638,307.59295,523.66118,307.587,523.58584,315.12078Z"/><path class="c" d="M518.052,270.90064l97.88114-58.10057,13.79616-8.18917c4.969-2.9495,2.88007-10.89688-2.95141-10.89688H576.61265c-7.52534,0-7.5378,11.69526,0,11.69526h50.16521l-2.95141-10.89689-97.42918,57.83229-14.24813,8.45744c-6.46688,3.83864-.5908,13.953,5.90283,10.09852Z"/><path class="c" d="M621.13911,198.00711l-9.55528,46.582c-1.507,7.34652,9.76375,10.48859,11.2775,3.10906l9.55528-46.582c1.507-7.34652-9.76375-10.48859-11.2775-3.10907Z"/><path class="c" d="M1126.10111,275.18706c-21.69971-14.78719-32.39534-42.08993-25.95194-67.65193,6.42316-25.48166,28.69728-44.99663,54.94438-47.52835a63.90259,63.90259,0,0,1,63.46973,35.94687c11.42929,23.87052,5.95489,53.27925-12.77113,71.80948-21.38343,21.15986-54.75389,23.68778-79.691,7.42393-6.32267-4.1236-12.19006,5.998-5.90283,10.09852,25.82838,16.8451,60.55682,16.4138,85.46183-2.11761,25.12542-18.69541,36.5068-51.69586,27.42439-81.82355a75.59556,75.59556,0,0,0-68.70606-53.267c-31.30314-1.29812-60.4061,17.812-72.27447,46.65806-13.53581,32.89884-.95716,70.75309,28.09431,90.55013C1126.434,289.5349,1132.29126,279.40533,1126.10111,275.18706Z"/><path class="c" d="M1155.56588,295.64221V421.24772c0,7.52535,11.69526,7.53781,11.69526,0V295.64221c0-7.52534-11.69526-7.5378-11.69526,0Z"/><path class="c" d="M1103.5374,356.31836h115.85774c7.52534,0,7.5378-11.69526,0-11.69526H1103.5374c-7.52534,0-7.53781,11.69526,0,11.69526Z"/><g class="d"><path class="e" d="M1592.2695,736.95712s-18.63519,46.91313-4.3205,85.16081c6.01929,16.083,23.28809,11.72388,29.21363,57.94556,2.50415,19.53284,21.4473,84.766,18.76645,94.72341s-4.59575,16.00079-4.59575,16.00079l-12.09808-26.79516L1540.24364,932.117s-3.27784-1.89064-11.626-14.07847-29.9631-27.12563-29.9631-27.12563,21.615-32.55157,31.5724-41.74306,34.08511-52.0851,40.21277-67.40425,7.66456-39.4036,7.66456-39.4036Z"/><path class="f" d="M1474.21292,885.32482c6.092,0,19.49362,42.42861,19.49362,42.42861l-90.99269,49.80365-80.34872-55.63825,30.10156-53.03258Z"/><path class="c" d="M1227.08486,1423.30515c-1.07472,3.92766,6.37494,69.33061,13.35518,77.35856,2.76362,3.17843,17.21712,8.54418,26.86725,10.80944,6.3676,1.49473,10.52076-.6097,16.22016-.986,4.15487-.27429,5.26617,1.51756,7.72659-.28926,1.96866-1.44569,2.59209-4.84154,2.82514-7.52989,1.41852-16.36339-3.38667-18.49924-11.61761-32.60336-.63736-1.09213.75467,1.484,6.73881,5.44791,3.8849,2.57337,9.37109,4.34985,11.59433.52078,1.70664-2.93931-.72148-9.89205-3.81614-14.30515-5.97246-8.51693-6.70774-16.03526-11.95619-27.96187-2.81938-6.40678-5.45159-17.217-5.45159-17.217Z"/><path class="g" d="M1225.095,1422.75656c-.55753,2.56216-.06544,5.50074.13141,8.07332.40733,5.323.99361,10.634,1.632,15.93361,1.53048,12.7054,3.32775,25.43752,6.05817,37.94672a77.76112,77.76112,0,0,0,3.837,13.49467c1.7443,4.16585,4.61261,6.04595,8.69437,7.95238,7.1265,3.3285,15.19536,6.41468,22.99535,7.6282,3.85369.59956,7.44871-.11589,11.23839-.723a35.91326,35.91326,0,0,1,8.258-.08864,6.82136,6.82136,0,0,0,3.37124-.42352c6.93512-3.12442,5.6636-16.76194,4.2899-22.67a31.64718,31.64718,0,0,0-3.97685-9.132c-2.0762-3.43131-6.53088-8.4364-7.30349-11.47785l-3.44907,2.00778c3.92735,4.27078,10.71629,9.92871,16.986,8.92971,7.97667-1.271,5.46795-10.86248,3.04482-15.83766-2.14891-4.41215-5.16532-8.18689-7.01839-12.78846-1.68688-4.18889-2.9821-8.52732-4.58324-12.74906-2.87534-7.58141-5.79807-14.93312-7.73995-22.832a2.07124,2.07124,0,0,0-1.98989-1.515l-52.48593,6.75582c-2.59789.33439-2.63124,4.46589,0,4.1272l52.48593-6.75581-1.98989-1.515c2.983,12.13392,7.70227,23.99023,12.32319,35.58109,2.50588,6.2856,7.9603,11.936,9.13139,18.61252,1.82931,10.42908-12.44087.11845-15.24571-2.93166-1.43768-1.5634-3.93807.08283-3.44908,2.00778.6373,2.50877,3.00862,5.13805,4.4048,7.29859a89.28173,89.28173,0,0,1,4.90334,7.967c2.26749,4.47837,6.05785,21.9559-1.56211,23.20392-1.06618.17462-2.63312-.41079-3.75571-.41741a30.23017,30.23017,0,0,0-5.03836.54251c-4.92.80758-9.02238,1.19761-13.93983-.1069-6.89246-1.82844-14.03833-4.079-20.31768-7.50614-6.51795-3.55734-7.2693-13.46556-8.63414-20.07127-2.32173-11.237-3.9725-22.626-5.355-34.013-.6359-5.23769-1.21647-10.48592-1.638-15.74569-.17851-2.22772-.69711-5.99366-.33329-7.6656C1229.63818,1421.26453,1225.66036,1420.15835,1225.095,1422.75656Z"/><path class="c" d="M1268.601,1511.137c-1.26821-1.221-22.8845-13.25381-23.12525-34.73252"/><path class="g" d="M1270.06019,1509.67783c-3.53681-3.02174-7.50252-5.354-10.85381-8.66187-6.75428-6.66677-11.35082-14.98635-11.667-24.61147-.087-2.649-4.21462-2.661-4.1272,0,.31564,9.60816,4.31733,18.14465,10.69127,25.24253,3.78334,4.213,9.2597,7.72078,13.0384,10.94918,2.009,1.71646,4.94175-1.18966,2.91837-2.91837Z"/><path class="c" d="M1284.17116,1510.66333c-1.26821-1.221-25.73146-14.08472-25.97222-35.56343"/><path class="g" d="M1285.63035,1509.20414c-3.89016-3.26952-8.414-5.6352-12.21337-9.10179-7.23131-6.59792-12.811-14.95853-13.15443-25.00245-.09058-2.64865-4.21821-2.66087-4.12721,0,.34174,9.993,5.13732,18.67239,12.05007,25.6973,4.26743,4.33667,10.44719,7.89677,14.52656,11.32532,2.02082,1.69841,4.955-1.20665,2.91838-2.91838Z"/><path class="c" d="M1294.13317,1504.34209c-1.26821-1.221-21.61628-12.0328-21.857-33.51151"/><path class="g" d="M1295.59236,1502.8829c-3.33461-2.83723-7.10109-4.96581-10.25843-8.08475-6.572-6.4921-10.69548-14.65213-10.99419-23.96757-.08495-2.64926-4.21253-2.661-4.12721,0a38.50717,38.50717,0,0,0,10.09568,24.6697c3.56476,4.00534,8.81425,7.2792,12.36578,10.301,2.012,1.71192,4.94512-1.19393,2.91837-2.91838Z"/><path class="c" d="M1282.46157,1470.06468a48.60726,48.60726,0,0,1-15.86148-19.48937"/><path class="g" d="M1283.5031,1468.28282c-6.66957-4.47377-11.86887-11.52483-15.12115-18.749-1.08854-2.418-4.64636-.32177-3.56372,2.08308a48.68725,48.68725,0,0,0,16.6018,20.22969c2.21186,1.48367,4.28014-2.09,2.08307-3.56372Z"/><path class="c" d="M1245.96227,1474.265s16.48477,2.20226,23.04228-2.106l6.55752-4.30825"/><path class="g" d="M1245.96227,1476.536a60.51948,60.51948,0,0,0,16.70626.04691c5.501-.83682,9.48753-3.78042,14.03978-6.77123,2.433-1.59848.16-5.53327-2.29249-3.922-4.366,2.86843-8.19316,5.72746-13.51453,6.37971a60.49661,60.49661,0,0,1-14.939-.27552c-2.89048-.37425-2.86311,4.1714,0,4.5421Z"/><path class="h" d="M1665.44,986.85277a27.11726,27.11726,0,0,1,9.82624,26.31686c-11.41991,60.30886-51.05144,270.20264-53.42345,291.00354-2.77331,24.32009-17.6891,116.07067-25.65292,120.4486s-53.31632-6.40023-56.86117-10.713,15.49412-164.16732,20.87295-182.67995-10.82543-156.06179,7.74265-175.10913,70.2026-86.4542,70.2026-86.4542Z"/><path class="i" d="M1227.84762,971.44864s44.49538,281.36513,48.69045,304.36286,15.951,110.99183,9.88306,117.1974-50.506,8.90391-54.93969,5.94274-29.3584-158.90072-29.56476-177.311-50.9591-132.29879-48.41357-184.3005c3.57447-73.02128,75.57164-78.89745,75.57164-78.89745Z"/><path class="i" d="M1541.43866,931.99337s95.36686,37.13367,97.89587,45.56371c2.1173,7.05766-31.23077,128.274-45.926,197.91068-2.85752,13.541-35.64282,65.776-37.00645,69.61867-8.37632,23.60411-5.583,132.89742-.525,135.00493s1.686,17.28158-3.372,21.4966-248.8741,11.80205-261.84666,5.058-11.28655-20.23209-7.91453-20.23209c2.19277,0-1.382-76.61724-4.9101-146.60571-1.1232-22.2815-19.82373-32.83269-31.64988-47.48936-18.51329-22.94432-22.48177-44.89073-22.66166-52.85106-.843-37.30292-14.44511-175.39874-14.44511-175.39874l113.28793-42.15019,94.50262,38.16157Z"/><path class="e" d="M1592.76149,689.78766s28.69371-208.64487-69.82134-245.80922-163.40519-19.467-163.40519-19.467-98.515,17.69731-123.8812,66.65988-1.06034,207.17951-1.06034,207.17951Z"/><path class="j" d="M1576.62293,587.723c.33274,13.972,1.90465,80.04207,2.35862,99.105,0,0,34.11873-4.47863,34.80465,22.41664.69194,27.13595-37.16327,31.85507-37.16327,31.85507s-16.11694,175.89869-167.741,175.758c-125.53761-2.88471-159.16441-151.757-160.27531-174.38086-.07846-1.59788-.84038-1.42021-2.43341-1.56728-28.74185-2.6535-43.43024-51.47288,7.17768-55.26148l1.17931-97.92512s59.61189-48.10036,65.88918-44.33246c19.31876,11.596,72.16867,24.54455,216.08868,1.26907,0,0,14.33482,7.107,40.11484,43.06339"/><path class="g" d="M1504.89867,619.95529c-1.00781-.10437-27.13286,0-38.9873-3.3545"/><path class="g" d="M1504.89867,615.10908c-12.56173-.77117-25.41161.11-37.699-3.18138-6.03184-1.61573-8.60524,7.73132-2.57663,9.34619,13.13507,3.51845,26.84836,2.70329,40.27562,3.5276,6.22962.38244,6.207-9.31136,0-9.69241Z"/><path class="g" d="M1363.13906,619.95529s-24.23881,4.29871-38.89447,4.29871"/><path class="g" d="M1361.85075,615.28219c-12.374,2.18241-25.02549,4.02932-37.60616,4.12561-6.23418.04771-6.24863,9.74023,0,9.69241,13.42819-.10278,26.97505-2.14238,40.18278-4.47183,6.13193-1.08149,3.53317-10.42377-2.57662-9.34619Z"/><ellipse class="k" cx="1338.90025" cy="672.76083" rx="13.56643" ry="8.81312"/><ellipse class="k" cx="1491.33224" cy="672.76083" rx="13.56643" ry="8.81312"/><ellipse class="l" cx="1413.57245" cy="800.86406" rx="10.8586" ry="7.05404"/><path class="i" d="M1498.62541,891.37547s34.06915,19.79506,42.92069,35.60138-98.20994,81.77137-98.20994,81.77137-29.90692-45.31145-26.231-51.00173S1498.62541,891.37547,1498.62541,891.37547Z"/><path class="i" d="M1331.70239,891.37547s-31.67686,23.58858-40.5284,39.3949,99.21782,80.50674,99.21782,80.50674,26.50675-47.84034,22.83083-53.53062S1331.70239,891.37547,1331.70239,891.37547Z"/><path class="m" d="M1424.25931,1406.01373s3.48128-201.68865,4.74579-218.75947-11.89995-229.50777-11.89995-229.50777,11.89217,296.52656,7.15416,319.28766S1424.25931,1406.01373,1424.25931,1406.01373Z"/><path class="m" d="M1553.76965,1092.20559c1.26451,2.95051,8.00854,38.35667,8.00854,38.35667l-7.16085-.18327-75.1882-1.92424,5.2142-36.24916Z"/><path class="n" d="M1554.61734,1130.379s-1.49349,37.27543-12.55114,46.97-50.25732,4.53115-50.25732,4.53115l-3.372-51.50112"/><path class="m" d="M1281.901,1092.20559c-1.26451,2.95051-8.00854,38.35667-8.00854,38.35667l7.16084-.18327,75.18821-1.92424-5.21421-36.24916Z"/><path class="n" d="M1281.05325,1130.379s1.4935,37.27543,12.55115,46.97,50.25732,4.53115,50.25732,4.53115l3.372-51.50112"/><path class="m" d="M1238.75089,1000.1231s-12.68642-4.21489-13.74284-15.37968,26.34438-21.8625,33.58131-25.41006,30.26876-8.35252,32.47312-9.24417,9.99681,20.30626,7.16206,21.39427l-2.83475,1.088Z"/><rect class="o" x="1280.13878" y="1401.58796" width="274.47857" height="40.46418" transform="translate(2834.75612 2843.64009) rotate(180)"/><rect class="m" x="1394.68986" y="1406.01373" width="45.37639" height="30.98039" transform="translate(2834.75612 2843.00784) rotate(180)"/><path class="i" d="M1216.91439,1397.80014s-6.534,1.71871-5.7249,6.74706,2.50409,11.61011,4.38721,14.31037,63.8455-1.75787,65.69825-6.93186,3.671-20.84532-1.38965-21.79308S1216.91439,1397.80014,1216.91439,1397.80014Z"/><path class="p" d="M1611.3685,972.37026s10.93683-16.07346-.13517-24.8301-35.72252-28.70219-45.31739-15.26345-10.31379,17.98965-10.31379,17.98965"/><path class="p" d="M1593.40857,997.85781s-13.26638,27.977-25.16532,30.61887-36.80722-8.51343-33.64913-21.89974,10.15137-32.391,10.15137-32.391Z"/><path class="l" d="M1607.76562,958.44265s-20.86892,25.57111-28.76979,46.92721-.90729,11.06281-.90729,11.06281,28.83408-50.26249,29.67708-52.5105S1607.76562,958.44265,1607.76562,958.44265Z"/><path class="m" d="M1602.15289,1000.1231s12.68641-4.21489,13.74284-15.37968-26.34438-21.8625-33.58131-25.41006-30.26876-8.35252-32.47313-9.24417-9.9968,20.30626-7.16205,21.39427l2.83474,1.088Z"/><path class="q" d="M1554.6174,1442.05209c6.1943,16.51528,20.6152,93.00145,20.6152,93.00145s-225.43558,52.34243-322.24905-4.90629c0,0,13.71445-73.34736,27.15523-83.84418S1554.6174,1442.05209,1554.6174,1442.05209Z"/><line class="r" x1="1420.55699" y1="1440.2251" x2="1420.55699" y2="1554.53132"/><line class="s" x1="1332.35772" y1="1092.20559" x2="1354.53353" y2="1116.89217"/><line class="s" x1="1277.83385" y1="1106.17168" x2="1298.41866" y2="1129.08714"/><line class="s" x1="1325.62101" y1="1093.82415" x2="1354.53353" y2="1126.0102"/><line class="s" x1="1318.71582" y1="1093.34718" x2="1349.37437" y2="1127.47695"/><line class="s" x1="1311.96801" y1="1093.67905" x2="1342.30862" y2="1127.45488"/><line class="s" x1="1304.5775" y1="1093.70112" x2="1336.1115" y2="1128.80545"/><line class="s" x1="1296.63492" y1="1093.34718" x2="1328.16891" y2="1128.45152"/><line class="s" x1="1288.92785" y1="1093.34718" x2="1320.46185" y2="1128.45152"/><line class="s" x1="1282.27817" y1="1094.09359" x2="1313.71265" y2="1129.08714"/><line class="s" x1="1279.22968" y1="1099.33131" x2="1305.95916" y2="1129.08714"/><line class="t" x1="1338.28496" y1="1091.65822" x2="1354.53353" y2="1108.64393"/><line class="t" x1="1278.43305" y1="1114.5396" x2="1292.59442" y2="1129.34342"/><line class="t" x1="1275.52275" y1="1117.49198" x2="1286.41402" y2="1129.02315"/><line class="s" x1="1503.27408" y1="1092.419" x2="1481.09827" y2="1117.10559"/><line class="s" x1="1557.79795" y1="1106.3851" x2="1537.21314" y2="1129.30056"/><line class="s" x1="1510.01079" y1="1094.03757" x2="1481.09827" y2="1126.22362"/><line class="s" x1="1516.91598" y1="1093.5606" x2="1486.25743" y2="1127.69036"/><line class="s" x1="1523.66379" y1="1093.89247" x2="1493.32318" y2="1127.6683"/><line class="s" x1="1531.05429" y1="1093.91453" x2="1499.5203" y2="1129.01887"/><line class="s" x1="1538.99688" y1="1093.5606" x2="1507.46289" y2="1128.66493"/><line class="s" x1="1546.70395" y1="1093.5606" x2="1515.16995" y2="1128.66493"/><line class="s" x1="1553.35363" y1="1094.307" x2="1521.91915" y2="1129.30056"/><line class="s" x1="1556.40212" y1="1099.54473" x2="1529.67264" y2="1129.30056"/><line class="t" x1="1497.34684" y1="1091.87164" x2="1481.09827" y2="1108.85735"/><line class="t" x1="1557.19875" y1="1114.75302" x2="1543.03738" y2="1129.55683"/><line class="t" x1="1560.10905" y1="1117.7054" x2="1549.21778" y2="1129.23657"/><line class="u" x1="1440.16422" y1="1416.18305" x2="1420.92287" y2="1437.60293"/><line class="u" x1="1401.9504" y1="1404.19554" x2="1394.20767" y2="1411.64015"/><line class="u" x1="1408.25782" y1="1404.50575" x2="1394.20767" y2="1420.14668"/><line class="u" x1="1415.16598" y1="1404.52637" x2="1393.11426" y2="1429.07483"/><line class="u" x1="1422.5902" y1="1404.19554" x2="1393.11426" y2="1437.0088"/><line class="u" x1="1429.79427" y1="1404.19554" x2="1400.31833" y2="1437.0088"/><line class="u" x1="1436.00995" y1="1404.89323" x2="1406.62704" y2="1437.60293"/><line class="u" x1="1438.85949" y1="1409.78911" x2="1413.87451" y2="1437.60293"/><line class="v" x1="1439.60412" y1="1424.00484" x2="1426.367" y2="1437.84249"/><line class="v" x1="1442.32448" y1="1426.76453" x2="1432.14403" y2="1437.54312"/><circle class="u" cx="1605.12212" cy="986.22183" r="1.84407"/><circle class="u" cx="1234.96814" cy="986.22183" r="1.84407"/><path class="w" d="M1323.4822,672.32642s-24.23723-5.77462-25.677-16.333"/><path class="x" d="M1332.775,664.07174s-25.78815-6.14414-27.32007-17.37818"/><path class="x" d="M1341.75907,663.40355s-23.83118-11.61267-22.87984-22.9107"/><path class="w" d="M1504.59424,676.90811s24.23722-5.77462,25.677-16.333"/><path class="x" d="M1495.30143,668.65343s25.78815-6.14414,27.32006-17.37818"/><path class="x" d="M1486.31737,667.98524s23.83118-11.61267,22.87984-22.9107"/><path class="y" d="M1360.029,835.8257s39.72942-5.29411,42.155-5.29411,14.6081,5.10638,14.6081,5.10638l11.68977-5.74468,40.56845,5.93241s-27.14436,29.01789-57.98818,28.15269C1379.20524,863.08478,1360.029,835.8257,1360.029,835.8257Z"/><path class="g" d="M1446.01255,555.81545c12.72461,5.73741,30.34163,15.69486,69.40546,15.31188s41.3617.01073,41.3617.01073,1.53192,2.67012,8.80851-2.69158l7.2766-5.3617-34.08511-22.97873Z"/><path class="g" d="M1385.20524,540.10605c-14.55319,4.85107-47.39034,31.02487-73.40425,31.69687-28.48657.73584-21.44681,22.81375-75.57447,18.72867"/><path class="e" d="M1234.6946,740.021s32.78593,76.39937,2.29788,106.0851c-9.70213,9.44681-34.84534,63.61444-36,68.42554-4.59575,19.14893-12.6383,53.3617-9.95745,63.31914s4.59574,16.00079,4.59574,16.00079l12.09809-26.79516,78.99161-31.87549s3.27784-1.89064,11.626-14.07847,29.9631-27.12563,29.9631-27.12563-21.615-32.55157-31.5724-41.74306-34.08511-52.0851-40.21277-67.40425-7.66456-39.4036-7.66456-39.4036Z"/><path class="e" d="M1299.54567,567.55286c-10.55412,12.00293,6.6383-13.27659-23.48936,40.34043s-2.5532,97.02127-11.23405,149.10638S1253.07758,883.638,1242.35418,894.872s14.61582-51.33568,16.65854-58.21276-54.95641-47.48937-54.95641-82.72341,16.85106-58.21277,16.85106-98.55319V611.97839s-14.29787-30.63829-6.6383-58.7234,8.17022-30.6383,8.17022-30.6383,18.96756-40.63758,20.60114-42.576"/><path class="e" d="M1590.09886,558.358c14.80851,43.40768,15.31915,68.93959,18.383,94.47151s14.68977,28.87373,13.78723,87.19149-99.82978,94.84444-22.97872,140.04255c39.79515,23.40456-38.29787,16.85106-39.31915,13.78723s12.51064-135.82978,12.89362-147.06383,0-14.80851,0-14.80851,3.44681-29.617,6-53.617,9.70212-116.93617-1.53192-135.31915S1575.29035,514.95028,1590.09886,558.358Z"/><path class="z" d="M1246.184,827.20515s13.22109,5.11367,23.10638,2.95941a15.26241,15.26241,0,0,0,9.09879-6.27127"/><path class="z" d="M1553.58568,812.74813s13.22109,5.11367,23.10638,2.95942a15.26245,15.26245,0,0,0,9.0988-6.27128"/><polygon class="g" points="1399.758 535.255 1288.695 535.255 1259.405 581.468 1337.333 560.404 1399.758 535.255"/><path class="g" d="M1446.01255,549.53019c12.72461,5.73741,30.34163,15.69486,69.40546,15.31188s41.3617.01073,41.3617.01073,1.53192,2.67012,8.80851-2.69158l7.2766-5.36171-34.08511-22.97872Z"/><path class="g" d="M1385.20524,533.82079c-14.55319,4.85106-47.39034,31.02487-73.40425,31.69686-28.48657.73584-21.44681,22.81376-75.57447,18.72867"/><path class="e" d="M1234.6946,733.73568s32.78593,76.39937,2.29788,106.08511c-9.70213,9.44681-34.84534,63.61444-36,68.42553-4.59575,19.14894-12.6383,53.3617-9.95745,63.31915s4.59574,16.00079,4.59574,16.00079l12.09809-26.79517,78.99161-31.87548s3.27784-1.89064,11.626-14.07848,29.9631-27.12562,29.9631-27.12562-21.615-32.55157-31.5724-41.74306-34.08511-52.08511-40.21277-67.40426-7.66456-39.40359-7.66456-39.40359Z"/><path class="e" d="M1299.54567,561.2676c-10.55412,12.00292,6.6383-13.2766-23.48936,40.34042s-2.5532,97.02128-11.23405,149.10639-11.74468,126.63829-22.46808,137.87234,14.61582-51.33569,16.65854-58.21277-54.95641-47.48936-54.95641-82.7234,16.85106-58.21277,16.85106-98.55319V605.69313s-14.29787-30.6383-6.6383-58.7234,8.17022-30.6383,8.17022-30.6383,18.96756-40.63758,20.60114-42.576"/><path class="e" d="M1590.09886,552.07269c14.80851,43.40767,15.31915,68.93959,18.383,94.4715s14.68977,28.87374,13.78723,87.19149-99.82978,94.84444-22.97872,140.04256c39.79515,23.40456-38.29787,16.85106-39.31915,13.78723s12.51064-135.82979,12.89362-147.06383,0-14.80851,0-14.80851,3.44681-29.617,6-53.617,9.70212-116.93617-1.53192-135.31915S1575.29035,508.665,1590.09886,552.07269Z"/><path class="z" d="M1246.184,820.91988s13.22109,5.11368,23.10638,2.95942a15.26245,15.26245,0,0,0,9.09879-6.27128"/><path class="z" d="M1553.58568,806.46286s13.22109,5.11368,23.10638,2.95942a15.26246,15.26246,0,0,0,9.0988-6.27127"/><polygon class="g" points="1399.758 528.97 1288.695 528.97 1259.405 575.182 1337.333 554.119 1399.758 528.97"/><path class="f" d="M228.63905,876.53943c-6.092,0-19.49362,42.42861-19.49362,42.42861l90.99269,49.80365,80.34873-55.63825-30.10156-53.03258Z"/><path class="c" d="M625.79437,1390.32725c0,4.072,24.44711,65.18982,33.29865,71.09085,3.5045,2.33633,18.86168,3.69716,28.7675,3.33518,6.53633-.23886,9.98682-3.3648,15.38482-5.23194,3.93516-1.36115,5.48.07387,7.37628-2.31826,1.5173-1.914,1.22237-5.354.73763-8.00853-2.95051-16.15758-8.149-16.94948-19.81059-28.38113-.903-.88519,1.11959,1.23219,7.93772,3.47618,4.42634,1.4568,10.18686,1.72234,11.32069-2.55773.87035-3.28552-3.30668-9.35089-7.45635-12.79075-8.00854-6.63866-10.702-13.69634-18.91214-23.81486-4.41034-5.4355-9.80233-15.16772-9.80233-15.16772Z"/><path class="g" d="M623.73077,1390.32725c.13862,2.62154,1.38767,5.32011,2.25754,7.75238,1.85444,5.18525,3.88735,10.30861,5.9701,15.40572,4.8331,11.8281,9.92083,23.621,15.87714,34.9332a70.7405,70.7405,0,0,0,7.36807,12.00574c2.97322,3.63337,6.81572,4.46046,11.37121,5.16112,7.89743,1.21467,17.2248,2.42532,25.12377.76607,4.33587-.91079,7.917-3.53871,12.09533-4.84025,3.06713-.95539,6.27-.26429,8.44822-3.05778,4.37306-5.60845-.051-17.35779-3.209-22.72877a33.98431,33.98431,0,0,0-6.36194-7.52221c-2.75924-2.56545-8.09082-6.09183-9.53181-8.63293l-2.8234,2.8234c4.93774,3.09691,12.93691,6.75843,18.747,4.148,7.08278-3.1822,2.72771-11.3365-.74858-15.50776-2.9213-3.50533-6.67606-6.15-9.56954-9.71054-3.32313-4.08922-6.04814-8.63947-9.16566-12.88231-4.68761-6.37969-9.2982-12.58744-13.16106-19.52336a2.07486,2.07486,0,0,0-2.33045-.94835l-48.84187,20.36872c-2.41572,1.00743-1.35554,5.00264,1.09717,3.97977l48.84187-20.36871-2.33044-.94835c6.1025,10.95728,13.82592,21.20638,21.37829,31.19536,4.03178,5.33254,10.74018,9.32281,13.61872,15.41424,4.617,9.77026-12.14881,3.29149-15.45236,1.21954a2.07924,2.07924,0,0,0-2.8234,2.8234c1.213,2.139,4.01675,3.94706,5.82554,5.56956,2.20627,1.979,4.5007,3.88812,6.55045,6.03392,4.35671,4.56085,8.04515,12.32088,7.7054,18.76919-.27859,5.28763-5.08581,4.6874-8.88091,6.25151-4.313,1.77757-8.14757,4.09123-12.9156,4.41287a88.0924,88.0924,0,0,1-23.09773-1.59423c-7.94878-1.64505-11.05447-10.21968-14.45482-16.86678-5.22425-10.21252-9.82884-20.75677-14.17623-31.36805-2.01958-4.92949-3.98742-9.884-5.80678-14.89133-.80181-2.20679-2.371-5.82673-2.467-7.642C627.71827,1387.685,623.59019,1387.66856,623.73077,1390.32725Z"/><path class="c" d="M689.01965,1464.08761c-1.5455-.843-25.57111-6.744-31.47214-27.39762"/><path class="g" d="M690.06119,1462.30575c-4.225-1.99846-8.68982-3.19453-12.81076-5.52125-8.25526-4.661-14.87662-11.4423-17.713-20.6431-.7801-2.53049-4.76534-1.451-3.97978,1.09718,2.8334,9.191,8.98054,16.39354,17.01158,21.548,4.71422,3.02566,11.0542,5.02311,15.40891,7.08291,2.388,1.12955,4.48519-2.4275,2.08308-3.56372Z"/><path class="c" d="M703.91272,1459.52134c-1.54551-.843-28.53643-6.79409-34.43746-27.44768"/><path class="g" d="M704.95426,1457.73948c-4.62826-2.1442-9.642-3.22922-14.23721-5.58359-8.70427-4.4597-16.28127-11.04047-19.2519-20.63081-.78343-2.5292-4.76878-1.45-3.97978,1.09717,2.96054,9.55775,9.91068,16.68046,18.44089,21.6234,5.2163,3.02264,12.23978,4.87774,16.94492,7.05755,2.39439,1.10928,4.49323-2.44713,2.08308-3.56372Z"/><path class="c" d="M711.85316,1450.795c-1.54551-.843-24.02561-5.901-29.92663-26.55462"/><path class="g" d="M712.8947,1449.01313c-3.97367-1.86547-8.18031-2.92512-12.05776-5.10978-8.05062-4.536-14.17531-11.29583-16.92052-20.21156-.77926-2.53083-4.76448-1.45131-3.97978,1.09717a38.47724,38.47724,0,0,0,16.25731,21.13078c4.47142,2.90368,10.47722,4.71334,14.61767,6.65711,2.39037,1.12218,4.48815-2.43464,2.08308-3.56372Z"/><path class="c" d="M691.54866,1420.81342a48.6073,48.6073,0,0,1-20.44284-14.61206"/><path class="g" d="M692.09725,1418.82353c-7.61862-2.56009-14.47636-7.96939-19.53224-14.08136-1.69438-2.04832-4.5999.8856-2.91837,2.91837a48.77,48.77,0,0,0,21.35344,15.14277c2.52337.84793,3.60594-3.13676,1.09717-3.97978Z"/><path class="c" d="M657.4521,1434.49792s16.4815-2.22659,21.66944-8.1128l5.18794-5.8862"/><path class="g" d="M658.05584,1436.68785a60.577,60.577,0,0,0,15.866-4.25634c5.20642-2.28068,8.31089-6.14849,11.99347-10.32672,1.92621-2.18546-1.27435-5.40992-3.21176-3.21175-3.46266,3.92872-6.37081,7.66692-11.3331,9.70892a60.268,60.268,0,0,1-14.52213,3.706c-2.88272.40089-1.65586,4.778,1.20747,4.37986Z"/><path class="i" d="M63.51744,968.77169S-53.66008,1228.41684-63.77612,1249.49193s-44.6792,102.84646-40.46418,110.43349,46.3652,21.9181,51.42323,20.23209S27.26828,1243.5909,32.3263,1225.88783s62.0655-76.32268,56.7301-101.16045-8.67888-155.95569-8.67888-155.95569Z"/><path class="i" d="M493.77478,955.28363s117.17751,259.64515,127.29356,280.72024,44.6792,102.84646,40.46418,110.43349-46.36521,21.9181-51.42323,20.23209-80.08535-136.56661-85.14338-154.26968-62.06549-76.32268-56.73009-101.16045,8.67888-155.95569,8.67888-155.95569Z"/><path class="i" d="M161.41331,923.208s-95.36686,37.13367-97.89587,45.56371,40.57162,252.05811,48.94794,275.66222,39.56745,124.76455,34.50943,126.87206-1.686,17.28158,3.372,21.4966,248.8741,11.80205,261.84666,5.058S423.48,1377.6285,420.108,1377.6285s34.56315-127.71507,35.40616-165.018,38.2606-257.32689,38.2606-257.32689L380.48685,913.13344,285.98422,951.295Z"/><path class="e" d="M110.09048,678.44907S81.39677,469.80421,179.91182,432.63985s163.40519-19.467,163.40519-19.467,98.51505,17.69731,123.8812,66.65988,39.524,34.21481,39.524,34.21481,2.94955,11.20829-10.02848,12.978S468.25855,687.0122,468.25855,687.0122Z"/><path class="j" d="M126.229,578.93756c-.33274,13.972-1.90465,80.04208-2.35862,99.105,0,0-34.11873-4.47862-34.80465,22.41665-.69194,27.13595,37.16327,31.85506,37.16327,31.85506s16.117,175.8987,167.741,175.758c125.53761-2.88472,159.16441-151.757,160.27531-174.38086.07846-1.59788.84038-1.42021,2.43341-1.56728,28.74185-2.6535,43.43024-51.47288-7.17768-55.26148l-1.17931-97.92513s-59.61189-48.10035-65.88918-44.33245c-19.31876,11.596-72.16867,24.54455-216.08868,1.26907,0,0-14.33482,7.107-40.11484,43.06338"/><path class="g" d="M189.6518,609.02371s27.1089-5.33426,38.98725-3.35454"/><path class="g" d="M190.94011,613.6968c11.50493-2.24912,24.70478-5.0846,36.41063-3.35454,6.10159.90179,8.73471-8.43605,2.57662-9.34618-13.57615-2.00649-28.20616.74321-41.56387,3.35453-6.11572,1.19558-3.52667,10.53933,2.57662,9.34619Z"/><path class="g" d="M350.38529,604.944s25.74334,0,38.89446,4.29872"/><path class="g" d="M350.38529,609.79016c12.42912.01751,25.67478.409,37.60615,4.1256,5.969,1.85933,8.52217-7.49415,2.57663-9.34618-12.71254-3.95995-26.93585-4.45316-40.18278-4.47183-6.237-.00879-6.24654,9.68361,0,9.69241Z"/><ellipse class="k" cx="363.95172" cy="663.97544" rx="13.56643" ry="8.81312"/><ellipse class="k" cx="211.51973" cy="663.97544" rx="13.56643" ry="8.81312"/><ellipse class="l" cx="289.27952" cy="792.07867" rx="10.8586" ry="7.05404"/><path class="g" d="M251.44735,843.40946c22.85253,19.29815,56.67514,12.46315,79.70422-2.29493,5.23554-3.35518.3805-11.74794-4.892-8.36911-14.83737,9.50846-32.418,15.694-50.11023,11.67733a50.29526,50.29526,0,0,1-13.324-4.99667c-1.36141-.75539-2.65075-1.603-3.95022-2.45651-1.4006-.91995.09978.15551-.57424-.41368-4.73779-4.00089-11.62752,2.82213-6.85357,6.85357Z"/><path class="i" d="M204.22656,882.59008s-34.06915,19.79506-42.92068,35.60138,98.20993,81.77137,98.20993,81.77137,29.90692-45.31146,26.231-51.00173S204.22656,882.59008,204.22656,882.59008Z"/><path class="i" d="M371.14958,882.59008s31.67687,23.58858,40.5284,39.3949-99.21782,80.50674-99.21782,80.50674-26.50675-47.84035-22.83083-53.53062S371.14958,882.59008,371.14958,882.59008Z"/><path class="m" d="M278.59266,1397.22833s-3.48128-201.68864-4.74579-218.75946S285.74682,948.9611,285.74682,948.9611s-11.89217,296.52656-7.15416,319.28766S278.59266,1397.22833,278.59266,1397.22833Z"/><path class="m" d="M149.08232,1083.4202c-1.2645,2.95051-8.00853,38.35666-8.00853,38.35666l7.16084-.18326,75.18821-1.92424-5.21421-36.24916Z"/><path class="n" d="M148.23463,1121.5936s1.49349,37.27543,12.55114,46.97,50.25733,4.53115,50.25733,4.53115l3.372-51.50112"/><path class="m" d="M420.951,1083.4202c1.2645,2.95051,8.00853,38.35666,8.00853,38.35666l-7.16084-.18326-75.18821-1.92424,5.21421-36.24916Z"/><path class="n" d="M421.79872,1121.5936s-1.4935,37.27543-12.55115,46.97-50.25732,4.53115-50.25732,4.53115l-3.372-51.50112"/><path class="m" d="M464.10108,991.3377s12.68642-4.21488,13.74284-15.37967-26.34438-21.8625-33.58131-25.41006-30.26876-8.35252-32.47312-9.24417-9.99681,20.30626-7.16206,21.39426l2.83475,1.088Z"/><rect class="o" x="148.23463" y="1392.80257" width="274.47857" height="40.46418"/><rect class="m" x="262.78572" y="1397.22833" width="45.37639" height="30.98039"/><path class="i" d="M609.25306,1368.41084s-5.84869,3.38227-3.74118,8.01879,5.47953,10.53755,8.00854,12.64506,61.11777-18.54609,61.53927-24.02561-1.96076-21.07509-7.09216-20.65359S609.25306,1368.41084,609.25306,1368.41084Z"/><path class="p" d="M91.48347,963.58486s-10.93683-16.07345.13518-24.83009,35.72251-28.7022,45.31738-15.26345,10.3138,17.98965,10.3138,17.98965"/><path class="p" d="M109.4434,989.07242s13.26638,27.97705,25.16533,30.61887,36.80721-8.51343,33.64912-21.89974-10.15137-32.391-10.15137-32.391Z"/><path class="l" d="M95.08635,949.65726s20.86892,25.57111,28.76979,46.92721.9073,11.06281.9073,11.06281-28.83409-50.26249-29.67709-52.5105S95.08635,949.65726,95.08635,949.65726Z"/><path class="m" d="M100.69909,991.3377S88.01267,987.12282,86.95624,975.958s26.34438-21.8625,33.58132-25.41006,30.26875-8.35252,32.47312-9.24417,9.9968,20.30626,7.162,21.39426l-2.83474,1.088Z"/><path class="q" d="M148.23457,1433.2667c-6.1943,16.51527-20.6152,93.00145-20.6152,93.00145s225.43558,52.34243,322.24905-4.90629c0,0-13.71445-73.34737-27.15522-83.84418S148.23457,1433.2667,148.23457,1433.2667Z"/><line class="r" x1="282.29498" y1="1431.43971" x2="282.29498" y2="1545.74592"/><line class="s" x1="370.49425" y1="1083.4202" x2="348.31844" y2="1108.10678"/><line class="s" x1="425.01812" y1="1097.38629" x2="404.43331" y2="1120.30175"/><line class="s" x1="377.23096" y1="1085.03876" x2="348.31844" y2="1117.22481"/><line class="s" x1="384.13615" y1="1084.56179" x2="353.47761" y2="1118.69155"/><line class="s" x1="390.88396" y1="1084.89366" x2="360.54335" y2="1118.66949"/><line class="s" x1="398.27447" y1="1084.91572" x2="366.74047" y2="1120.02006"/><line class="s" x1="406.21705" y1="1084.56179" x2="374.68306" y2="1119.66613"/><line class="s" x1="413.92412" y1="1084.56179" x2="382.39012" y2="1119.66613"/><line class="s" x1="420.5738" y1="1085.3082" x2="389.13932" y2="1120.30175"/><line class="s" x1="423.62229" y1="1090.54592" x2="396.89282" y2="1120.30175"/><line class="t" x1="364.56702" y1="1082.87283" x2="348.31844" y2="1099.85854"/><line class="t" x1="424.41892" y1="1105.75421" x2="410.25755" y2="1120.55803"/><line class="t" x1="427.32922" y1="1108.70659" x2="416.43795" y2="1120.23776"/><line class="s" x1="199.5779" y1="1083.63361" x2="221.7537" y2="1108.3202"/><line class="s" x1="145.05402" y1="1097.59971" x2="165.63883" y2="1120.51516"/><line class="s" x1="192.84118" y1="1085.25218" x2="221.7537" y2="1117.43823"/><line class="s" x1="185.93599" y1="1084.77521" x2="216.59454" y2="1118.90497"/><line class="s" x1="179.18818" y1="1085.10708" x2="209.52879" y2="1118.88291"/><line class="s" x1="171.79768" y1="1085.12914" x2="203.33167" y2="1120.23348"/><line class="s" x1="163.85509" y1="1084.77521" x2="195.38909" y2="1119.87954"/><line class="s" x1="156.14802" y1="1084.77521" x2="187.68202" y2="1119.87954"/><line class="s" x1="149.49835" y1="1085.52161" x2="180.93283" y2="1120.51516"/><line class="s" x1="146.44985" y1="1090.75933" x2="173.17933" y2="1120.51516"/><line class="t" x1="205.50513" y1="1083.08625" x2="221.7537" y2="1100.07196"/><line class="t" x1="145.65322" y1="1105.96763" x2="159.81459" y2="1120.77144"/><line class="t" x1="142.74292" y1="1108.92001" x2="153.63419" y2="1120.45118"/><line class="u" x1="262.68775" y1="1407.39766" x2="281.9291" y2="1428.81754"/><line class="u" x1="300.90157" y1="1395.41015" x2="308.6443" y2="1402.85476"/><line class="u" x1="294.59415" y1="1395.72035" x2="308.6443" y2="1411.36129"/><line class="u" x1="287.68599" y1="1395.74098" x2="309.73771" y2="1420.28944"/><line class="u" x1="280.26177" y1="1395.41015" x2="309.73771" y2="1428.2234"/><line class="u" x1="273.0577" y1="1395.41015" x2="302.53364" y2="1428.2234"/><line class="u" x1="266.84202" y1="1396.10784" x2="296.22493" y2="1428.81754"/><line class="u" x1="263.99249" y1="1401.00372" x2="288.97747" y2="1428.81754"/><line class="v" x1="263.24785" y1="1415.21945" x2="276.48498" y2="1429.05709"/><line class="v" x1="260.52749" y1="1417.97914" x2="270.70794" y2="1428.75773"/><circle class="u" cx="97.72985" cy="977.43644" r="1.84407"/><circle class="u" cx="467.88383" cy="977.43644" r="1.84407"/><path class="f" d="M470.89917,1007.04447c-6.092,0-19.49363,42.4286-19.49363,42.4286l90.9927,49.80365,80.34872-55.63825L592.6454,990.60589Z"/><path class="c" d="M868.05449,1520.83229c0,4.072,24.44711,65.18982,33.29865,71.09084,3.5045,2.33634,18.86168,3.69716,28.7675,3.33518,6.53632-.23885,9.98681-3.3648,15.38482-5.23194,3.93516-1.36114,5.48.07387,7.37628-2.31826,1.5173-1.914,1.22237-5.354.73763-8.00853-2.95051-16.15757-8.149-16.94948-19.81059-28.38113-.903-.88519,1.11958,1.23219,7.93772,3.47618,4.42634,1.45681,10.18686,1.72235,11.32068-2.55773.87036-3.28552-3.30667-9.35089-7.45635-12.79075-8.00853-6.63865-10.702-13.69634-18.91214-23.81486-4.41033-5.4355-9.80232-15.16772-9.80232-15.16772Z"/><path class="g" d="M865.99089,1520.83229c.13861,2.62154,1.38767,5.32011,2.25754,7.75237,1.85444,5.18525,3.88735,10.30861,5.97009,15.40573,4.83311,11.82809,9.92083,23.621,15.87715,34.93319a70.73986,70.73986,0,0,0,7.36807,12.00574c2.97322,3.63337,6.81572,4.46047,11.37121,5.16113,7.89743,1.21467,17.2248,2.42532,25.12377.76606,4.33586-.91079,7.917-3.53871,12.09533-4.84025,3.06712-.95539,6.27005-.26429,8.44822-3.05778,4.37306-5.60845-.051-17.35779-3.209-22.72877a33.98431,33.98431,0,0,0-6.36194-7.52221c-2.75924-2.56545-8.09082-6.09183-9.53181-8.63293l-2.8234,2.8234c4.93774,3.09691,12.9369,6.75843,18.747,4.148,7.08277-3.1822,2.7277-11.33651-.74858-15.50777-2.9213-3.50533-6.67606-6.15-9.56954-9.71053-3.32313-4.08923-6.04815-8.63947-9.16566-12.88231-4.68761-6.37969-9.2982-12.58745-13.16106-19.52337a2.07487,2.07487,0,0,0-2.33045-.94835L867.5059,1518.8424c-2.41571,1.00743-1.35554,5.00264,1.09718,3.97978l48.84187-20.36872-2.33044-.94835c6.1025,10.95729,13.82592,21.20638,21.37829,31.19536,4.03178,5.33254,10.74017,9.32281,13.61872,15.41424,4.617,9.77027-12.14882,3.2915-15.45236,1.21954a2.07924,2.07924,0,0,0-2.8234,2.8234c1.213,2.139,4.01675,3.94707,5.82554,5.56957,2.20627,1.979,4.5007,3.88812,6.55045,6.03391,4.35671,4.56085,8.04514,12.32089,7.7054,18.7692-.27859,5.28762-5.08581,4.68739-8.88091,6.2515-4.313,1.77757-8.14757,4.09123-12.9156,4.41288a88.09281,88.09281,0,0,1-23.09773-1.59424c-7.94878-1.645-11.05447-10.21968-14.45482-16.86677-5.22425-10.21252-9.82884-20.75678-14.17623-31.36806-2.01959-4.92949-3.98742-9.884-5.80678-14.89133-.80182-2.20678-2.371-5.82673-2.467-7.642C869.97838,1518.19007,865.85031,1518.17359,865.99089,1520.83229Z"/><path class="c" d="M931.27977,1594.59264c-1.54551-.843-25.57111-6.744-31.47214-27.39762"/><path class="g" d="M932.32131,1592.81078c-4.225-1.99846-8.68982-3.19452-12.81076-5.52125-8.25526-4.661-14.87662-11.4423-17.713-20.64309-.7801-2.5305-4.76534-1.451-3.97978,1.09717,2.8334,9.191,8.98054,16.39354,17.01158,21.548,4.71422,3.02566,11.0542,5.02311,15.40891,7.08292,2.388,1.12954,4.48519-2.42751,2.08308-3.56373Z"/><path class="c" d="M946.17284,1590.02637c-1.54551-.843-28.53644-6.79408-34.43746-27.44767"/><path class="g" d="M947.21438,1588.24451c-4.62827-2.1442-9.642-3.22922-14.23721-5.58359-8.70427-4.45969-16.28127-11.04047-19.2519-20.63081-.78343-2.5292-4.76879-1.45-3.97978,1.09717,2.96054,9.55775,9.91068,16.68046,18.44089,21.6234,5.2163,3.02265,12.23978,4.87774,16.94492,7.05755,2.39438,1.10929,4.49323-2.44713,2.08308-3.56372Z"/><path class="c" d="M954.11328,1581.3c-1.54551-.843-24.02561-5.901-29.92664-26.55461"/><path class="g" d="M955.15482,1579.51816c-3.97367-1.86547-8.18031-2.92511-12.05777-5.10978-8.05061-4.536-14.17531-11.29583-16.92052-20.21156-.77925-2.53083-4.76447-1.45131-3.97977,1.09717a38.47726,38.47726,0,0,0,16.25731,21.13079c4.47142,2.90367,10.47721,4.71333,14.61767,6.6571,2.39037,1.12219,4.48815-2.43463,2.08308-3.56372Z"/><path class="c" d="M933.80878,1551.31845a48.6073,48.6073,0,0,1-20.44284-14.61206"/><path class="g" d="M934.35737,1549.32856c-7.61862-2.56008-14.47637-7.96939-19.53224-14.08136-1.69438-2.04831-4.5999.88561-2.91838,2.91838a48.77008,48.77008,0,0,0,21.35344,15.14276c2.52338.84793,3.606-3.13675,1.09718-3.97978Z"/><path class="c" d="M899.71222,1565.003s16.4815-2.2266,21.66944-8.11281l5.18794-5.8862"/><path class="g" d="M900.316,1567.19289a60.577,60.577,0,0,0,15.866-4.25635c5.20642-2.28068,8.31089-6.14849,11.99346-10.32671,1.92622-2.18547-1.27434-5.40993-3.21175-3.21176-3.46266,3.92872-6.37081,7.66693-11.3331,9.70892a60.26853,60.26853,0,0,1-14.52213,3.706c-2.88273.40088-1.65587,4.778,1.20747,4.37986Z"/><path class="c" d="M180.6947,1534.57467c0,4.072-24.4471,65.18982-33.29864,71.09085-3.5045,2.33633-18.86169,3.69716-28.76751,3.33518-6.53632-.23886-9.98681-3.3648-15.38481-5.23194-3.93516-1.36115-5.48.07387-7.37629-2.31826-1.5173-1.914-1.22237-5.354-.73762-8.00853,2.95051-16.15758,8.149-16.94948,19.81058-28.38113.903-.8852-1.11958,1.23219-7.93772,3.47618-4.42633,1.4568-10.18686,1.72234-11.32068-2.55773-.87036-3.28552,3.30668-9.35089,7.45635-12.79075,8.00854-6.63866,10.702-13.69634,18.91214-23.81486,4.41034-5.4355,9.80233-15.16772,9.80233-15.16772Z"/><path class="g" d="M178.6311,1534.57467c-.27712,5.241-4.47581,13.08681-6.59226,18.38084-4.32183,10.81049-8.9436,21.52539-14.08151,31.97511-2.1117,4.29486-4.29886,8.57588-6.80243,12.65839-1.48569,2.42267-3.07888,5.45779-5.72117,6.74856-5.84076,2.85324-14.42028,2.48138-20.7694,2.6243-3.91993.08824-7.89213.18031-11.63562-1.15757-3.87692-1.38557-7.33335-3.82044-11.43623-4.55936-6.54807-1.1793-4.67969-7.46507-3.33932-12.31313a26.00014,26.00014,0,0,1,4.539-9.45333,56.70931,56.70931,0,0,1,6.89936-6.766c2.19336-1.95654,5.75959-4.2338,7.22189-6.81247a2.07911,2.07911,0,0,0-2.8234-2.8234c-3.30078,2.07022-20.08385,8.58139-15.45236-1.21954,2.89022-6.11614,9.57527-10.06628,13.61871-15.41425,7.5539-9.991,15.27462-20.236,21.3783-31.19535l-2.33045.94835,48.84188,20.36871c2.44847,1.0211,3.51683-2.9707,1.09717-3.97977l-48.84187-20.36872a2.06456,2.06456,0,0,0-2.33045.94835c-3.863,6.93617-8.47022,13.14593-13.16106,19.52336-2.90251,3.9461-5.47344,8.13628-8.48341,12.00247-3.06036,3.9309-7.08843,6.79551-10.25179,10.59037-3.48557,4.18139-7.82482,12.32345-.74858,15.50777,5.80056,2.61026,13.81567-1.05515,18.747-4.148l-2.8234-2.8234c-1.09044,1.92292-5.62527,5.112-7.89889,7.15334a45.089,45.089,0,0,0-6.65784,6.96521c-3.93094,5.44432-7.10256,14.45308-5.96245,21.17793.41566,2.45174,1.666,4.6735,4.0916,5.59456,1.33308.50621,2.84778.32707,4.22487.61918,2.94116.6239,5.599,2.24475,8.32425,3.445,7.6491,3.36875,16.41281,2.5463,24.54723,1.7761,4.97358-.47092,11.75283-.57015,15.68329-4.109,2.90934-2.61946,4.93783-6.51193,6.83194-9.86941,6.24-11.061,11.31661-22.81921,16.2122-34.52176,2.49727-5.96952,4.91886-11.976,7.14822-18.05133,1.07407-2.927,2.69653-6.25175,2.86417-9.42209C182.89865,1531.92039,178.771,1531.92809,178.6311,1534.57467Z"/><path class="c" d="M117.46942,1608.335c1.54551-.843,25.57112-6.744,31.47214-27.39762"/><path class="g" d="M118.511,1610.11689c4.34825-2.05675,10.701-4.0613,15.40892-7.08291,8.03082-5.15431,14.17795-12.35623,17.01157-21.548.78424-2.54393-3.19842-3.63176-3.97978-1.09718-2.83526,9.19708-9.457,15.98725-17.713,20.6431-4.12,2.32341-8.58753,3.52363-12.81077,5.52125-2.39951,1.135-.30725,4.69436,2.08308,3.56372Z"/><path class="c" d="M102.57636,1603.76876c1.5455-.843,28.53643-6.79409,34.43746-27.44768"/><path class="g" d="M103.6179,1605.55062c4.70225-2.17848,11.72988-4.03564,16.94491-7.05755,8.53116-4.94349,15.48-12.06442,18.4409-21.6234.78767-2.54291-3.19509-3.63045-3.97978-1.09718-2.96923,9.58582-10.55059,16.17247-19.2519,20.63082-4.59561,2.35467-9.60876,3.4393-14.23721,5.58359-2.40755,1.11538-.31363,4.67408,2.08308,3.56372Z"/><path class="c" d="M94.63592,1595.04241c1.5455-.843,24.0256-5.901,29.92663-26.55462"/><path class="g" d="M95.67746,1596.82427c4.13375-1.94062,10.15268-3.75761,14.61767-6.65711a38.47551,38.47551,0,0,0,16.25731-21.13078c.78337-2.54418-3.19927-3.63208-3.97978-1.09717-2.74514,8.91551-8.86985,15.67555-16.92052,20.21155-3.87722,2.18456-8.08429,3.24441-12.05776,5.10979-2.40248,1.12786-.30961,4.687,2.08308,3.56372Z"/><path class="c" d="M114.94041,1565.06084a48.60721,48.60721,0,0,0,20.44284-14.61207"/><path class="g" d="M115.489,1567.05073a48.77,48.77,0,0,0,21.35344-15.14277c1.68081-2.0319-1.22326-4.96757-2.91837-2.91837-5.05809,6.11463-11.91189,11.52069-19.53224,14.08136-2.50472.84166-1.43049,4.82915,1.09717,3.97978Z"/><path class="c" d="M149.037,1578.74534s-16.4815-2.22659-21.66944-8.1128l-5.18793-5.8862"/><path class="g" d="M149.64071,1576.55541a60.2694,60.2694,0,0,1-14.52213-3.706c-4.96283-2.04238-7.86981-5.77949-11.33311-9.70892-1.93657-2.19722-5.13878,1.02535-3.21175,3.21175,3.68348,4.17926,6.78425,8.04654,11.99347,10.32672a60.62631,60.62631,0,0,0,15.86605,4.25634c2.8587.39754,4.09476-3.97834,1.20747-4.37986Z"/><path class="i" d="M305.77756,1099.27672S188.6,1358.92187,178.484,1379.997s-44.6792,102.84646-40.46418,110.43349,46.3652,21.9181,51.42322,20.23209,80.08536-136.5666,85.14338-154.26968,62.0655-76.32268,56.73009-101.16045-8.67888-155.95569-8.67888-155.95569Z"/><path class="i" d="M736.03489,1085.78866s117.17752,259.64515,127.29357,280.72024,44.67919,102.84646,40.46418,110.43349-46.36521,21.9181-51.42323,20.23209-80.08536-136.5666-85.14338-154.26968-62.06549-76.32268-56.73009-101.16045,8.67888-155.95569,8.67888-155.95569Z"/><path class="i" d="M403.67343,1053.713s-95.36686,37.13367-97.89587,45.56371,40.57162,252.05812,48.94794,275.66222S394.293,1499.70349,389.23493,1501.811s-1.686,17.28158,3.372,21.4966,248.87411,11.80205,261.84667,5.058,11.28654-20.23209,7.91453-20.23209,34.56315-127.71506,35.40616-165.018,38.26059-257.32689,38.26059-257.32689L622.747,1043.63847,528.24434,1081.8Z"/><path class="e" d="M352.3506,808.95411s-28.69371-208.64487,69.82134-245.80922,163.40519-19.46705,163.40519-19.46705,98.515,17.69731,123.88119,66.65988,39.524,34.21481,39.524,34.21481,2.94956,11.2083-10.02847,12.978-28.43518,159.98667-28.43518,159.98667Z"/><path class="j" d="M368.48916,709.4426c-.33274,13.972-1.90465,80.04207-2.35862,99.105,0,0-34.11873-4.47863-34.80465,22.41664-.692,27.13595,37.16327,31.85507,37.16327,31.85507s16.11694,175.89869,167.741,175.758c125.53761-2.88471,159.16441-151.757,160.27531-174.38086.07846-1.59788.84038-1.42021,2.43341-1.56728,28.74185-2.6535,43.43024-51.47288-7.17768-55.26148l-1.17931-97.92512S630.97,661.34224,624.69268,665.11014c-19.31876,11.596-72.16868,24.54455-216.08869,1.26907,0,0-14.33481,7.107-40.11483,43.06339"/><path class="g" d="M431.91192,739.52874s27.10889-5.33426,38.98725-3.35454"/><path class="g" d="M433.20023,744.20183c11.50492-2.24912,24.70478-5.0846,36.41063-3.35453,6.10159.90178,8.7347-8.43606,2.57662-9.34619-13.57615-2.00649-28.20616.74321-41.56387,3.35454-6.11573,1.19557-3.52667,10.53933,2.57662,9.34618Z"/><path class="g" d="M592.6454,735.449s25.74335,0,38.89447,4.29871"/><path class="g" d="M592.6454,740.29519c12.42913.01751,25.67479.409,37.60616,4.12561,5.96895,1.85932,8.52217-7.49416,2.57662-9.34619-12.71253-3.96-26.93584-4.45316-40.18278-4.47183-6.237-.00878-6.24654,9.68361,0,9.69241Z"/><ellipse class="k" cx="606.21184" cy="794.48047" rx="13.56643" ry="8.81312"/><ellipse class="k" cx="453.77985" cy="794.48047" rx="13.56643" ry="8.81312"/><ellipse class="l" cx="531.53964" cy="922.5837" rx="10.8586" ry="7.05404"/><path class="g" d="M493.70747,973.91449c22.85253,19.29815,56.67514,12.46316,79.70422-2.29493,5.23553-3.35517.38049-11.74793-4.892-8.36911-14.83737,9.50847-32.418,15.694-50.11023,11.67733a50.29457,50.29457,0,0,1-13.324-4.99667c-1.36141-.75539-2.65075-1.603-3.95022-2.45651-1.4006-.91995.09978.15551-.57424-.41368-4.73779-4.00089-11.62752,2.82214-6.85357,6.85357Z"/><path class="i" d="M446.48668,1013.09511s-34.06915,19.79507-42.92069,35.60139,98.20994,81.77136,98.20994,81.77136,29.90692-45.31145,26.231-51.00173S446.48668,1013.09511,446.48668,1013.09511Z"/><path class="i" d="M613.4097,1013.09511s31.67686,23.58858,40.5284,39.3949-99.21782,80.50674-99.21782,80.50674-26.50675-47.84034-22.83083-53.53062S613.4097,1013.09511,613.4097,1013.09511Z"/><path class="m" d="M520.85277,1527.73337s-3.48127-201.68865-4.74578-218.75947,11.89995-229.50777,11.89995-229.50777-11.89217,296.52657-7.15417,319.28767S520.85277,1527.73337,520.85277,1527.73337Z"/><path class="m" d="M391.34244,1213.92523c-1.26451,2.95051-8.00854,38.35667-8.00854,38.35667l7.16085-.18327,75.1882-1.92424-5.2142-36.24916Z"/><path class="n" d="M390.49475,1252.09863s1.49349,37.27543,12.55114,46.97,50.25732,4.53115,50.25732,4.53115l3.372-51.50112"/><path class="m" d="M663.21114,1213.92523c1.26451,2.95051,8.00854,38.35667,8.00854,38.35667l-7.16084-.18327-75.18821-1.92424,5.21421-36.24916Z"/><path class="n" d="M664.05884,1252.09863s-1.4935,37.27543-12.55115,46.97-50.25732,4.53115-50.25732,4.53115l-3.372-51.50112"/><path class="m" d="M706.3612,1121.84274s12.68642-4.21488,13.74284-15.37968-26.34438-21.8625-33.58131-25.41006-30.26876-8.35251-32.47312-9.24416-9.99681,20.30626-7.16206,21.39426l2.83475,1.088Z"/><rect class="o" x="390.49475" y="1523.3076" width="274.47857" height="40.46418"/><rect class="m" x="505.04583" y="1527.73337" width="45.37639" height="30.98039"/><path class="i" d="M851.51317,1498.91588s-5.84868,3.38226-3.74117,8.01878,5.47952,10.53755,8.00854,12.64506,61.11777-18.54608,61.53927-24.02561-1.96076-21.07509-7.09216-20.65359S851.51317,1498.91588,851.51317,1498.91588Z"/><path class="aa" d="M185.64125,1515.84455s4.951,3.45355,3.167,8.18779-4.63852,10.75963-6.77937,12.91156-51.73736-18.937-52.09417-24.532,1.65982-21.51926,6.00365-21.08888S185.64125,1515.84455,185.64125,1515.84455Z"/><path class="p" d="M333.74359,1094.0899s-10.93683-16.07346.13517-24.83009,35.72252-28.7022,45.31739-15.26346,10.31379,17.98965,10.31379,17.98965"/><path class="p" d="M351.70352,1119.57746s13.26638,27.977,25.16532,30.61886,36.80722-8.51343,33.64913-21.89974-10.15137-32.391-10.15137-32.391Z"/><path class="l" d="M337.34647,1080.16229s20.86892,25.57111,28.76979,46.92721.90729,11.06281.90729,11.06281-28.83408-50.26249-29.67708-52.5105S337.34647,1080.16229,337.34647,1080.16229Z"/><path class="m" d="M342.9592,1121.84274s-12.68642-4.21488-13.74284-15.37968,26.34438-21.8625,33.58131-25.41006,30.26876-8.35251,32.47313-9.24416,9.9968,20.30626,7.162,21.39426l-2.83474,1.088Z"/><path class="q" d="M390.49469,1563.77174c-6.1943,16.51527-20.61521,93.00145-20.61521,93.00145s225.43559,52.34242,322.24906-4.9063c0,0-13.71445-73.34736-27.15523-83.84417S390.49469,1563.77174,390.49469,1563.77174Z"/><line class="r" x1="524.5551" y1="1561.94474" x2="524.5551" y2="1676.25096"/><line class="s" x1="612.75436" y1="1213.92523" x2="590.57856" y2="1238.61181"/><line class="s" x1="667.27824" y1="1227.89132" x2="646.69343" y2="1250.80678"/><line class="s" x1="619.49108" y1="1215.54379" x2="590.57856" y2="1247.72984"/><line class="s" x1="626.39627" y1="1215.06682" x2="595.73772" y2="1249.19659"/><line class="s" x1="633.14408" y1="1215.39869" x2="602.80347" y2="1249.17452"/><line class="s" x1="640.53458" y1="1215.42076" x2="609.00059" y2="1250.52509"/><line class="s" x1="648.47717" y1="1215.06682" x2="616.94317" y2="1250.17116"/><line class="s" x1="656.18424" y1="1215.06682" x2="624.65024" y2="1250.17116"/><line class="s" x1="662.83391" y1="1215.81323" x2="631.39943" y2="1250.80678"/><line class="s" x1="665.88241" y1="1221.05095" x2="639.15293" y2="1250.80678"/><line class="t" x1="606.82713" y1="1213.37786" x2="590.57856" y2="1230.36357"/><line class="t" x1="666.67904" y1="1236.25925" x2="652.51767" y2="1251.06306"/><line class="t" x1="669.58934" y1="1239.21162" x2="658.69807" y2="1250.74279"/><line class="s" x1="441.83801" y1="1214.13864" x2="464.01382" y2="1238.82523"/><line class="s" x1="387.31414" y1="1228.10474" x2="407.89895" y2="1251.0202"/><line class="s" x1="435.1013" y1="1215.75721" x2="464.01382" y2="1247.94326"/><line class="s" x1="428.19611" y1="1215.28024" x2="458.85466" y2="1249.41"/><line class="s" x1="421.4483" y1="1215.61211" x2="451.78891" y2="1249.38794"/><line class="s" x1="414.05779" y1="1215.63417" x2="445.59179" y2="1250.73851"/><line class="s" x1="406.11521" y1="1215.28024" x2="437.6492" y2="1250.38458"/><line class="s" x1="398.40814" y1="1215.28024" x2="429.94214" y2="1250.38458"/><line class="s" x1="391.75846" y1="1216.02665" x2="423.19294" y2="1251.0202"/><line class="s" x1="388.70997" y1="1221.26437" x2="415.43944" y2="1251.0202"/><line class="t" x1="447.76524" y1="1213.59128" x2="464.01382" y2="1230.57699"/><line class="t" x1="387.91334" y1="1236.47266" x2="402.07471" y2="1251.27648"/><line class="t" x1="385.00304" y1="1239.42504" x2="395.89431" y2="1250.95621"/><line class="u" x1="504.94787" y1="1537.90269" x2="524.18921" y2="1559.32257"/><line class="u" x1="543.16169" y1="1525.91518" x2="550.90442" y2="1533.3598"/><line class="u" x1="536.85427" y1="1526.22539" x2="550.90442" y2="1541.86632"/><line class="u" x1="529.94611" y1="1526.24601" x2="551.99783" y2="1550.79447"/><line class="u" x1="522.52189" y1="1525.91518" x2="551.99783" y2="1558.72844"/><line class="u" x1="515.31782" y1="1525.91518" x2="544.79376" y2="1558.72844"/><line class="u" x1="509.10214" y1="1526.61287" x2="538.48505" y2="1559.32257"/><line class="u" x1="506.2526" y1="1531.50875" x2="531.23758" y2="1559.32257"/><line class="v" x1="505.50797" y1="1545.72448" x2="518.74509" y2="1559.56213"/><line class="v" x1="502.7876" y1="1548.48417" x2="512.96806" y2="1559.26276"/><circle class="u" cx="339.98997" cy="1107.94147" r="1.84407"/><circle class="u" cx="710.14395" cy="1107.94147" r="1.84407"/><path class="e" d="M1286.11455,858.67676s-18.6352,46.91313-4.3205,85.16081c6.01929,16.083,23.28809,11.72388,29.21362,57.94556,2.50415,19.53284,21.44731,84.766,18.76646,94.72342s-4.59575,16.00079-4.59575,16.00079l-12.09809-26.79517-78.9916-31.87549s-3.27784-1.89064-11.626-14.07847-29.9631-27.12562-29.9631-27.12562,21.61495-32.55158,31.5724-41.74307,34.0851-52.0851,40.21276-67.40425,7.66457-39.4036,7.66457-39.4036Z"/><path class="f" d="M1168.058,1007.04447c6.092,0,19.49362,42.4286,19.49362,42.4286l-90.99269,49.80365-68.42654-41.30774a12.09835,12.09835,0,0,1-4.23722-16.99182l22.41659-50.37127Z"/><path class="c" d="M920.92991,1545.02479c-1.07472,3.92766,6.37493,69.33061,13.35518,77.35856,2.76362,3.17843,17.21712,8.54418,26.86724,10.80944,6.36761,1.49473,10.52077-.6097,16.22017-.986,4.15487-.27429,5.26617,1.51756,7.72659-.28926,1.96866-1.44569,2.59209-4.84154,2.82514-7.52989,1.41852-16.36339-3.38667-18.49924-11.61762-32.60336-.63735-1.09213.75468,1.484,6.73881,5.44791,3.8849,2.57337,9.37109,4.34986,11.59434.52078,1.70663-2.93931-.72148-9.892-3.81614-14.30515-5.97246-8.51693-6.70774-16.03526-11.95619-27.96187-2.81938-6.40678-5.45159-17.217-5.45159-17.217Z"/><path class="g" d="M918.94,1544.4762c-.55754,2.56216-.06545,5.50074.13141,8.07332.40732,5.323.99361,10.634,1.632,15.93361,1.53047,12.70541,3.32775,25.43753,6.05816,37.94673a77.7613,77.7613,0,0,0,3.837,13.49466c1.7443,4.16585,4.61261,6.046,8.69437,7.95238,7.12649,3.3285,15.19536,6.41468,22.99535,7.6282,3.85369.59956,7.44871-.11589,11.23839-.723a35.91317,35.91317,0,0,1,8.258-.08864,6.82123,6.82123,0,0,0,3.37124-.42352c6.93513-3.12442,5.66361-16.76193,4.28991-22.67a31.64718,31.64718,0,0,0-3.97685-9.132c-2.07621-3.43131-6.53088-8.4364-7.30349-11.47785l-3.44908,2.00778c3.92736,4.27079,10.7163,9.92871,16.986,8.92971,7.97667-1.271,5.46795-10.86247,3.04482-15.83766-2.14891-4.41215-5.16532-8.18689-7.01839-12.78846-1.68688-4.18889-2.9821-8.52732-4.58324-12.74906-2.87534-7.58141-5.79807-14.93312-7.74-22.832a2.0712,2.0712,0,0,0-1.98988-1.515l-52.48593,6.75581c-2.59789.33439-2.63125,4.46589,0,4.1272l52.48593-6.75581-1.98989-1.515c2.983,12.13391,7.70226,23.99022,12.32319,35.58108,2.50588,6.2856,7.9603,11.936,9.13139,18.61252,1.8293,10.42908-12.44088.11845-15.24571-2.93166-1.43768-1.5634-3.93807.08283-3.44908,2.00778.6373,2.50877,3.00862,5.13805,4.4048,7.29859a89.28316,89.28316,0,0,1,4.90334,7.967c2.26748,4.47837,6.05784,21.95591-1.56211,23.20392-1.06618.17462-2.63312-.41078-3.75571-.4174a30.2291,30.2291,0,0,0-5.03836.5425c-4.92.80759-9.02238,1.19761-13.93984-.1069-6.89245-1.82844-14.03833-4.079-20.31768-7.50614-6.51794-3.55734-7.26929-13.46555-8.63413-20.07127-2.32173-11.237-3.9725-22.626-5.355-34.013-.6359-5.23768-1.21648-10.48592-1.638-15.74569-.17852-2.22772-.69711-5.99366-.33329-7.6656C923.48322,1542.98417,919.50541,1541.878,918.94,1544.4762Z"/><path class="c" d="M962.44605,1632.85665c-1.26822-1.221-22.8845-13.2538-23.12525-34.73251"/><path class="g" d="M963.90524,1631.39747c-3.53681-3.02174-7.50252-5.354-10.85381-8.66187-6.75428-6.66677-11.35083-14.98634-11.667-24.61146-.087-2.649-4.21462-2.661-4.12721,0,.31565,9.60815,4.31733,18.14464,10.69128,25.24252,3.78333,4.21305,9.25969,7.72078,13.03839,10.94918,2.009,1.71646,4.94176-1.18966,2.91838-2.91837Z"/><path class="c" d="M978.01621,1632.383c-1.26822-1.221-25.73147-14.08472-25.97222-35.56343"/><path class="g" d="M979.4754,1630.92379c-3.89016-3.26953-8.414-5.63521-12.21337-9.1018-7.23131-6.59792-12.81095-14.95853-13.15444-25.00245-.09058-2.64865-4.2182-2.66087-4.1272,0,.34174,9.993,5.13732,18.67239,12.05007,25.69731,4.26743,4.33666,10.44719,7.89676,14.52656,11.32531,2.02081,1.69841,4.955-1.20665,2.91838-2.91837Z"/><path class="c" d="M987.97822,1626.06173c-1.26821-1.221-21.61628-12.03279-21.857-33.5115"/><path class="g" d="M989.43741,1624.60254c-3.33462-2.83723-7.10109-4.96581-10.25843-8.08475-6.572-6.4921-10.69549-14.65213-10.99419-23.96756-.085-2.64927-4.21253-2.661-4.12721,0a38.50713,38.50713,0,0,0,10.09567,24.66969c3.56477,4.00534,8.81425,7.2792,12.36578,10.301,2.012,1.71193,4.94513-1.19393,2.91838-2.91838Z"/><path class="c" d="M976.30661,1591.78432a48.60719,48.60719,0,0,1-15.86147-19.48937"/><path class="g" d="M977.34815,1590.00246c-6.66957-4.47377-11.86888-11.52483-15.12115-18.749-1.08855-2.418-4.64636-.32177-3.56372,2.08308a48.68722,48.68722,0,0,0,16.60179,20.22969c2.21187,1.48367,4.28015-2.09,2.08308-3.56372Z"/><path class="c" d="M939.80732,1595.98461s16.48477,2.20226,23.04228-2.106l6.55752-4.30826"/><path class="g" d="M939.80732,1598.25567a60.51986,60.51986,0,0,0,16.70626.0469c5.501-.83681,9.48753-3.78042,14.03978-6.77122,2.433-1.59848.16-5.53328-2.29249-3.922-4.366,2.86843-8.19316,5.72746-13.51454,6.37971a60.49653,60.49653,0,0,1-14.939-.27552c-2.89048-.37425-2.86311,4.1714,0,4.54211Z"/><path class="c" d="M1458.26243,1534.57467c0,4.072,24.44711,65.18982,33.29865,71.09085,3.5045,2.33633,18.86168,3.69716,28.7675,3.33518,6.53633-.23886,9.98682-3.3648,15.38482-5.23194,3.93516-1.36115,5.48.07387,7.37628-2.31826,1.5173-1.914,1.22237-5.354.73763-8.00853-2.95051-16.15758-8.149-16.94948-19.81059-28.38113-.903-.8852,1.11959,1.23219,7.93772,3.47618,4.42634,1.4568,10.18686,1.72234,11.32069-2.55773.87035-3.28552-3.30668-9.35089-7.45635-12.79075-8.00854-6.63866-10.702-13.69634-18.91214-23.81486-4.41034-5.4355-9.80233-15.16772-9.80233-15.16772Z"/><path class="g" d="M1456.19883,1534.57467c.13862,2.62154,1.38767,5.32011,2.25754,7.75238,1.85444,5.18525,3.88735,10.30861,5.97009,15.40572,4.83311,11.8281,9.92084,23.621,15.87715,34.9332a70.7405,70.7405,0,0,0,7.36807,12.00574c2.97322,3.63337,6.81572,4.46046,11.37121,5.16112,7.89743,1.21467,17.2248,2.42532,25.12377.76607,4.33587-.91079,7.917-3.53871,12.09533-4.84025,3.06713-.9554,6.27005-.26429,8.44822-3.05779,4.37306-5.60844-.051-17.35778-3.209-22.72876a33.98459,33.98459,0,0,0-6.36194-7.52222c-2.75924-2.56544-8.09082-6.09182-9.53181-8.63292l-2.8234,2.8234c4.93774,3.09691,12.93691,6.75843,18.747,4.148,7.08278-3.1822,2.72771-11.3365-.74858-15.50777-2.9213-3.50532-6.67606-6.15-9.56954-9.71053-3.32313-4.08922-6.04814-8.63947-9.16566-12.88231-4.68761-6.37969-9.2982-12.58744-13.16106-19.52336a2.07486,2.07486,0,0,0-2.33045-.94835l-48.84187,20.36872c-2.41572,1.00743-1.35555,5.00264,1.09717,3.97977l48.84187-20.36871-2.33044-.94835c6.1025,10.95728,13.82592,21.20638,21.37829,31.19535,4.03178,5.33254,10.74018,9.32281,13.61872,15.41425,4.617,9.77026-12.14881,3.29149-15.45236,1.21954a2.07924,2.07924,0,0,0-2.8234,2.8234c1.213,2.139,4.01675,3.94706,5.82554,5.56956,2.20627,1.97905,4.5007,3.88812,6.55045,6.03392,4.35671,4.56085,8.04515,12.32088,7.7054,18.76919-.27859,5.28763-5.08581,4.6874-8.88091,6.25151-4.313,1.77757-8.14757,4.09123-12.9156,4.41287a88.0924,88.0924,0,0,1-23.09773-1.59423c-7.94878-1.64505-11.05447-10.21968-14.45482-16.86678-5.22425-10.21252-9.82884-20.75677-14.17623-31.36806-2.01958-4.92948-3.98742-9.884-5.80678-14.89132-.80181-2.20679-2.371-5.82673-2.467-7.642C1460.18633,1531.93245,1456.05825,1531.916,1456.19883,1534.57467Z"/><path class="c" d="M1521.48771,1608.335c-1.5455-.843-25.57111-6.744-31.47214-27.39762"/><path class="g" d="M1522.52925,1606.55317c-4.225-1.99846-8.68982-3.19453-12.81076-5.52125-8.25526-4.661-14.87662-11.4423-17.713-20.6431-.7801-2.53049-4.76534-1.451-3.97978,1.09718,2.8334,9.191,8.98054,16.39353,17.01158,21.548,4.71422,3.02566,11.0542,5.02311,15.40891,7.08291,2.388,1.12955,4.48519-2.42751,2.08308-3.56372Z"/><path class="c" d="M1536.38078,1603.76876c-1.54551-.843-28.53643-6.79409-34.43746-27.44768"/><path class="g" d="M1537.42232,1601.9869c-4.62827-2.1442-9.642-3.22922-14.23721-5.58359-8.70427-4.4597-16.28127-11.04047-19.2519-20.63082-.78343-2.52919-4.76878-1.45-3.97978,1.09718,2.96054,9.55775,9.91068,16.68046,18.44089,21.6234,5.2163,3.02264,12.23978,4.87774,16.94492,7.05755,2.39439,1.10928,4.49323-2.44713,2.08308-3.56372Z"/><path class="c" d="M1544.32122,1595.04241c-1.54551-.843-24.02561-5.901-29.92663-26.55462"/><path class="g" d="M1545.36276,1593.26055c-3.97367-1.86547-8.18031-2.92512-12.05776-5.10979-8.05062-4.53595-14.17531-11.29582-16.92052-20.21155-.77926-2.53083-4.76448-1.45131-3.97978,1.09717a38.47724,38.47724,0,0,0,16.25731,21.13078c4.47142,2.90368,10.47722,4.71334,14.61767,6.65711,2.39037,1.12218,4.48815-2.43464,2.08308-3.56372Z"/><path class="c" d="M1524.01672,1565.06084a48.60727,48.60727,0,0,1-20.44284-14.61207"/><path class="g" d="M1524.56531,1563.071c-7.61862-2.56009-14.47636-7.96939-19.53224-14.08136-1.69438-2.04832-4.5999.8856-2.91837,2.91837a48.77,48.77,0,0,0,21.35344,15.14277c2.52337.84793,3.60594-3.13676,1.09717-3.97978Z"/><path class="c" d="M1489.92016,1578.74534s16.4815-2.22659,21.66944-8.1128l5.18794-5.8862"/><path class="g" d="M1490.5239,1580.93527a60.577,60.577,0,0,0,15.86605-4.25634c5.20642-2.28068,8.31089-6.14849,11.99347-10.32672,1.92621-2.18546-1.27435-5.40992-3.21176-3.21175-3.46266,3.92871-6.37081,7.66692-11.3331,9.70892a60.268,60.268,0,0,1-14.52213,3.706c-2.88273.40089-1.65587,4.77805,1.20747,4.37986Z"/><path class="h" d="M1359.285,1108.57241a27.11726,27.11726,0,0,1,9.82624,26.31686c-11.41991,60.30886-51.05144,270.20264-53.42345,291.00355-2.77331,24.32008-17.68911,116.07066-25.65293,120.4486s-53.31631-6.40024-56.86116-10.713,15.49412-164.16732,20.87295-182.67995-10.82543-156.06179,7.74265-175.10913,70.2026-86.4542,70.2026-86.4542Z"/><path class="i" d="M921.69266,1093.16828s44.49539,281.36513,48.69046,304.36286,15.95105,110.99184,9.88306,117.1974-50.506,8.90391-54.93969,5.94274-29.3584-158.90072-29.56476-177.311-50.95911-132.29879-48.41357-184.3005c3.57447-73.02128,75.57164-78.89745,75.57164-78.89745Z"/><path class="i" d="M1235.2837,1053.713s95.36687,37.13367,97.89588,45.56371c2.11729,7.05766-31.23077,128.274-45.926,197.91068-2.85752,13.541-35.64282,65.776-37.00646,69.61868-8.37631,23.6041-5.583,132.89741-.52495,135.00492s1.686,17.28158-3.372,21.4966-248.8741,11.80205-261.84666,5.058-11.28655-20.23209-7.91453-20.23209c2.19277,0-1.382-76.61724-4.91011-146.60571-1.12319-22.28149-19.82372-32.83269-31.64988-47.48936-18.51328-22.94432-22.48176-44.89073-22.66165-52.85106-.843-37.30292-14.44512-175.39874-14.44512-175.39874l116.54381-39.89562,82.41483,37.89833Z"/><path class="e" d="M1286.60654,811.5073s28.69371-208.64486-69.82134-245.80922S1053.38,546.231,1053.38,546.231s-98.51505,17.69732-123.8812,66.65988-1.06035,207.17952-1.06035,207.17952Z"/><path class="j" d="M1270.468,709.4426c.33274,13.972,1.90465,80.04207,2.35862,99.105,0,0,34.11873-4.47863,34.80465,22.41664.69194,27.13595-37.16327,31.85507-37.16327,31.85507s-16.11695,175.89869-167.741,175.758c-125.53761-2.88471-159.16441-151.757-160.27531-174.38086-.07846-1.59788-.84038-1.42021-2.43342-1.56728-28.74184-2.6535-43.43023-51.47288,7.17769-55.26148l1.1793-97.92512s59.6119-48.10036,65.88919-44.33246c19.31876,11.596,72.16867,24.54455,216.08868,1.26907,0,0,14.33482,7.107,40.11484,43.06339"/><path class="g" d="M1198.74372,741.67493c-1.00781-.10437-27.13286,0-38.98731-3.35449"/><path class="g" d="M1198.74372,736.82872c-12.56173-.77117-25.41162.11-37.699-3.18138-6.03184-1.61573-8.60524,7.73132-2.57663,9.34619,13.13507,3.51845,26.84836,2.70329,40.27562,3.5276,6.22962.38244,6.207-9.31136,0-9.69241Z"/><path class="g" d="M1056.98411,741.67493s-24.23881,4.29871-38.89447,4.29871"/><path class="g" d="M1055.6958,737.00183c-12.374,2.18241-25.02549,4.02932-37.60616,4.12561-6.23418.04771-6.24863,9.74023,0,9.69241,13.42819-.10278,26.975-2.14238,40.18278-4.47183,6.13192-1.08149,3.53316-10.42377-2.57662-9.34619Z"/><ellipse class="k" cx="1032.7453" cy="794.48047" rx="13.56643" ry="8.81312"/><ellipse class="k" cx="1185.17729" cy="794.48047" rx="13.56643" ry="8.81312"/><ellipse class="l" cx="1107.4175" cy="922.5837" rx="10.8586" ry="7.05404"/><path class="i" d="M1192.4996,1014.16612s34.04,18.72406,42.89154,34.53038-98.20993,81.77136-98.20993,81.77136-15.84939-50.431-12.17347-56.12128S1192.4996,1014.16612,1192.4996,1014.16612Z"/><path class="i" d="M1022.15461,1015.69642s-28.284,20.98727-37.13558,36.79359,99.21783,80.50674,99.21783,80.50674,13.8085-47.84034,10.13258-53.53062S1022.15461,1015.69642,1022.15461,1015.69642Z"/><path class="m" d="M1118.10436,1527.73337s-1.26981-202.75174-.0053-219.82257c.70491-9.51626-9.17643-159.31915,4.686-227.74851h-26.2262s26.28347,295.83041,21.54546,318.59151S1118.10436,1527.73337,1118.10436,1527.73337Z"/><path class="m" d="M1247.6147,1213.92523c1.2645,2.95051,8.00853,38.35667,8.00853,38.35667l-7.16084-.18327-75.18821-1.92424,5.21421-36.24916Z"/><path class="n" d="M1248.46239,1252.09863s-1.4935,37.27543-12.55114,46.97-50.25733,4.53115-50.25733,4.53115l-3.372-51.50112"/><path class="m" d="M975.746,1213.92523c-1.2645,2.95051-8.00853,38.35667-8.00853,38.35667l7.16084-.18327,75.18821-1.92424-5.21421-36.24916Z"/><path class="n" d="M974.8983,1252.09863s1.4935,37.27543,12.55115,46.97,50.25732,4.53115,50.25732,4.53115l3.372-51.50112"/><path class="m" d="M932.59594,1121.84274s-12.68642-4.21488-13.74284-15.37968,26.34438-21.8625,33.58131-25.41006,30.26876-8.35251,32.47312-9.24416,9.9968,20.30626,7.16206,21.39426l-2.83475,1.088Z"/><rect class="o" x="973.98382" y="1523.3076" width="274.47857" height="40.46418" transform="translate(2222.44621 3087.07938) rotate(180)"/><rect class="m" x="1088.53491" y="1527.73337" width="45.37639" height="30.98039" transform="translate(2222.44621 3086.44712) rotate(180)"/><path class="i" d="M910.75944,1519.51978s-6.534,1.71871-5.7249,6.74706,2.50409,11.61011,4.3872,14.31037,63.84551-1.75787,65.69826-6.93186,3.67105-20.84532-1.38965-21.79308S910.75944,1519.51978,910.75944,1519.51978Z"/><path class="aa" d="M1453.31589,1515.84455s-4.951,3.45355-3.167,8.18779,4.63852,10.75963,6.77938,12.91156,51.73736-18.937,52.09417-24.532-1.65983-21.51926-6.00365-21.08888S1453.31589,1515.84455,1453.31589,1515.84455Z"/><path class="p" d="M1305.21355,1094.0899s10.93683-16.07346-.13518-24.83009-35.72251-28.7022-45.31739-15.26346-10.31379,17.98965-10.31379,17.98965"/><path class="p" d="M1287.25362,1119.57746s-13.26639,27.977-25.16533,30.61886-36.80721-8.51343-33.64912-21.89974,10.15137-32.391,10.15137-32.391Z"/><path class="l" d="M1301.61067,1080.16229s-20.86892,25.57111-28.76979,46.92721-.9073,11.06281-.9073,11.06281,28.83408-50.26249,29.67709-52.5105S1301.61067,1080.16229,1301.61067,1080.16229Z"/><path class="m" d="M1295.99793,1121.84274s12.68642-4.21488,13.74284-15.37968-26.34438-21.8625-33.58131-25.41006-30.26876-8.35251-32.47312-9.24416-9.9968,20.30626-7.16206,21.39426l2.83475,1.088Z"/><path class="q" d="M1248.46245,1563.77174c6.1943,16.51527,20.6152,93.00145,20.6152,93.00145s-225.43558,52.34242-322.249-4.9063c0,0,13.71445-73.34736,27.15522-83.84417S1248.46245,1563.77174,1248.46245,1563.77174Z"/><line class="r" x1="1114.40204" y1="1561.94474" x2="1114.40204" y2="1676.25096"/><line class="s" x1="1026.20277" y1="1213.92523" x2="1048.37857" y2="1238.61181"/><line class="s" x1="971.67889" y1="1227.89132" x2="992.26371" y2="1250.80678"/><line class="s" x1="1019.46605" y1="1215.54379" x2="1048.37857" y2="1247.72984"/><line class="s" x1="1012.56087" y1="1215.06682" x2="1043.21941" y2="1249.19659"/><line class="s" x1="1005.81306" y1="1215.39869" x2="1036.15367" y2="1249.17452"/><line class="s" x1="998.42255" y1="1215.42076" x2="1029.95655" y2="1250.52509"/><line class="s" x1="990.47996" y1="1215.06682" x2="1022.01396" y2="1250.17116"/><line class="s" x1="982.7729" y1="1215.06682" x2="1014.30689" y2="1250.17116"/><line class="s" x1="976.12322" y1="1215.81323" x2="1007.5577" y2="1250.80678"/><line class="s" x1="973.07473" y1="1221.05095" x2="999.8042" y2="1250.80678"/><line class="t" x1="1032.13" y1="1213.37786" x2="1048.37857" y2="1230.36357"/><line class="t" x1="972.2781" y1="1236.25925" x2="986.43947" y2="1251.06306"/><line class="t" x1="969.3678" y1="1239.21162" x2="980.25907" y2="1250.74279"/><line class="s" x1="1197.11912" y1="1214.13864" x2="1174.94332" y2="1238.82523"/><line class="s" x1="1251.643" y1="1228.10474" x2="1231.05819" y2="1251.0202"/><line class="s" x1="1203.85584" y1="1215.75721" x2="1174.94332" y2="1247.94326"/><line class="s" x1="1210.76103" y1="1215.28024" x2="1180.10248" y2="1249.41"/><line class="s" x1="1217.50884" y1="1215.61211" x2="1187.16823" y2="1249.38794"/><line class="s" x1="1224.89934" y1="1215.63417" x2="1193.36535" y2="1250.73851"/><line class="s" x1="1232.84193" y1="1215.28024" x2="1201.30793" y2="1250.38458"/><line class="s" x1="1240.549" y1="1215.28024" x2="1209.015" y2="1250.38458"/><line class="s" x1="1247.19867" y1="1216.02665" x2="1215.76419" y2="1251.0202"/><line class="s" x1="1250.24716" y1="1221.26437" x2="1223.51769" y2="1251.0202"/><line class="t" x1="1191.19189" y1="1213.59128" x2="1174.94332" y2="1230.57699"/><line class="t" x1="1251.04379" y1="1236.47266" x2="1236.88243" y2="1251.27648"/><line class="t" x1="1253.9541" y1="1239.42504" x2="1243.06283" y2="1250.95621"/><line class="u" x1="1134.00927" y1="1537.90269" x2="1114.76792" y2="1559.32257"/><line class="u" x1="1095.79545" y1="1525.91518" x2="1088.05271" y2="1533.3598"/><line class="u" x1="1102.10287" y1="1526.22539" x2="1088.05271" y2="1541.86632"/><line class="u" x1="1109.01103" y1="1526.24601" x2="1086.95931" y2="1550.79447"/><line class="u" x1="1116.43525" y1="1525.91518" x2="1086.95931" y2="1558.72844"/><line class="u" x1="1123.63931" y1="1525.91518" x2="1094.16338" y2="1558.72844"/><line class="u" x1="1129.855" y1="1526.61287" x2="1100.47208" y2="1559.32257"/><line class="u" x1="1132.70453" y1="1531.50875" x2="1107.71955" y2="1559.32257"/><line class="v" x1="1133.44917" y1="1545.72448" x2="1120.21204" y2="1559.56213"/><line class="v" x1="1136.16953" y1="1548.48417" x2="1125.98908" y2="1559.26276"/><circle class="u" cx="1298.96717" cy="1107.94147" r="1.84407"/><circle class="u" cx="928.81318" cy="1107.94147" r="1.84407"/><path class="w" d="M1017.32724,794.04606s-24.23722-5.77462-25.677-16.333"/><path class="x" d="M1026.62006,785.79138S1000.83191,779.64724,999.3,768.4132"/><path class="x" d="M1035.60412,785.12319s-23.83118-11.61267-22.87985-22.9107"/><path class="w" d="M1198.43929,798.62775s24.23722-5.77462,25.677-16.333"/><path class="x" d="M1189.14647,790.37307s25.78816-6.14413,27.32007-17.37818"/><path class="x" d="M1180.16242,789.70488s23.83118-11.61267,22.87984-22.91069"/><path class="y" d="M1056.45455,955.31506s37.14893-3.06383,39.57446-3.06383,14.60811,5.10638,14.60811,5.10638l11.68977-5.74468,41.10638,3.70213s-27.68229,31.24818-58.52612,30.383C1073.05029,984.80442,1056.45455,955.31506,1056.45455,955.31506Z"/><path class="g" d="M1139.85759,677.53509c12.72461,5.73741,30.34164,15.69486,69.40547,15.31188s41.3617.01073,41.3617.01073,1.53191,2.67012,8.80851-2.69158l7.27659-5.3617-34.0851-22.97872Z"/><path class="g" d="M1079.05029,661.8257c-14.55319,4.85106-47.39034,31.02486-73.40426,31.69686-28.48657.73584-21.4468,22.81376-75.57446,18.72867"/><path class="e" d="M928.53965,861.74059S961.32558,938.14,930.83752,967.8257c-9.70212,9.4468-34.84533,63.61443-36,68.42553-4.59574,19.14893-12.63829,53.3617-9.95744,63.31915s4.59574,16.00079,4.59574,16.00079l12.09809-26.79517,78.99161-31.87549s3.27784-1.89064,11.626-14.07847,29.96311-27.12562,29.96311-27.12562-21.615-32.55158-31.57241-41.74307-34.0851-52.0851-40.21276-67.40425-7.66457-39.4036-7.66457-39.4036Z"/><path class="e" d="M993.39072,689.2725c-10.55412,12.00293,6.63829-13.27659-23.48937,40.34043s-2.55319,97.02128-11.234,149.10638-11.74468,126.6383-22.46808,137.87234,14.61582-51.33568,16.65854-58.21276-54.95642-47.48937-54.95642-82.72341,16.85107-58.21276,16.85107-98.55319V733.698s-14.29787-30.6383-6.6383-58.72341,8.17021-30.6383,8.17021-30.6383,18.96757-40.63757,20.60114-42.576"/><path class="e" d="M1283.94391,680.0776c14.80851,43.40767,15.31915,68.93958,18.383,94.4715s14.68977,28.87373,13.78723,87.19149-99.82979,94.84444-22.97872,140.04255c39.79514,23.40457-38.29788,16.85107-39.31915,13.78724s12.51064-135.82979,12.89361-147.06383,0-14.80851,0-14.80851,3.44681-29.617,6-53.617,9.70213-116.93617-1.53191-135.31914S1269.1354,636.66992,1283.94391,680.0776Z"/><path class="z" d="M940.029,948.92479s13.2211,5.11367,23.10639,2.95942a15.26245,15.26245,0,0,0,9.09879-6.27128"/><path class="z" d="M1247.43073,934.46777s13.22109,5.11367,23.10638,2.95942a15.26249,15.26249,0,0,0,9.0988-6.27128"/><polygon class="g" points="1093.603 656.975 982.54 656.975 953.25 703.187 1031.178 682.124 1093.603 656.975"/><path class="g" d="M1139.85759,671.24983c12.72461,5.73741,30.34164,15.69486,69.40547,15.31188s41.3617.01073,41.3617.01073,1.53191,2.67012,8.80851-2.69158l7.27659-5.36171-34.0851-22.97872Z"/><path class="g" d="M1079.05029,655.54043C1064.4971,660.3915,1031.66,686.5653,1005.646,687.2373c-28.48657.73583-21.4468,22.81375-75.57446,18.72866"/><path class="e" d="M928.53965,855.45532s32.78593,76.39938,2.29787,106.08511c-9.70212,9.44681-34.84533,63.61444-36,68.42553-4.59574,19.14894-12.63829,53.36171-9.95744,63.31915s4.59574,16.00079,4.59574,16.00079l12.09809-26.79516,78.99161-31.87549s3.27784-1.89064,11.626-14.07847,29.96311-27.12563,29.96311-27.12563-21.615-32.55157-31.57241-41.74306-34.0851-52.08511-40.21276-67.40425-7.66457-39.4036-7.66457-39.4036Z"/><path class="e" d="M993.39072,682.98724c-10.55412,12.00292,6.63829-13.2766-23.48937,40.34043s-2.55319,97.02127-11.234,149.10638-11.74468,126.6383-22.46808,137.87234,14.61582-51.33568,16.65854-58.21277-54.95642-47.48936-54.95642-82.7234,16.85107-58.21277,16.85107-98.55319V727.41277s-14.29787-30.6383-6.6383-58.7234,8.17021-30.6383,8.17021-30.6383,18.96757-40.63758,20.60114-42.576"/><path class="e" d="M1283.94391,673.79233c14.80851,43.40768,15.31915,68.93959,18.383,94.47151s14.68977,28.87373,13.78723,87.19148-99.82979,94.84445-22.97872,140.04256c39.79514,23.40456-38.29788,16.85106-39.31915,13.78723s12.51064-135.82979,12.89361-147.06383,0-14.80851,0-14.80851,3.44681-29.617,6-53.617,9.70213-116.93617-1.53191-135.31915S1269.1354,630.38466,1283.94391,673.79233Z"/><path class="z" d="M940.029,942.63952s13.2211,5.11368,23.10639,2.95942a15.26245,15.26245,0,0,0,9.09879-6.27127"/><path class="z" d="M1247.43073,928.18251s13.22109,5.11367,23.10638,2.95942a15.26249,15.26249,0,0,0,9.0988-6.27128"/><polygon class="g" points="1093.603 650.689 982.54 650.689 953.25 696.902 1031.178 675.838 1093.603 650.689"/></g><ellipse class="ab" cx="1013.30561" cy="871.8257" rx="25.02128" ry="15.57447"/><ellipse class="ab" cx="1206.32689" cy="871.8257" rx="25.02128" ry="15.57447"/><ellipse class="ab" cx="1313.05029" cy="758.46399" rx="25.02128" ry="15.57447"/><ellipse class="ab" cx="1506.07157" cy="758.46399" rx="25.02128" ry="15.57447"/></svg>