<svg xmlns="http://www.w3.org/2000/svg" viewBox="0 0 1674.84208 1674.84208"><defs><style>.a{fill:#78adde;}.b,.t{fill:#dadada;}.b,.c,.d,.e,.g,.h,.i,.j,.k,.l,.m,.n,.o,.p,.q,.r,.t,.u,.v,.w{stroke:#1d1d1b;}.b,.c,.d,.e,.g,.h,.i,.j,.k,.l,.m,.n,.o,.p,.q,.r,.t,.u,.v,.w,.x,.y{stroke-miterlimit:10;}.b,.i,.j,.m{stroke-width:7.67228px;}.c,.e,.i,.n,.o,.p,.q,.r,.s{fill:#fff;}.c{stroke-width:0.38361px;}.d,.f,.g,.h,.k{fill:#1d1d1b;}.d{stroke-width:2.14754px;}.e{stroke-width:9.4593px;}.g{stroke-width:12.16196px;}.h{stroke-width:2.16321px;}.j{fill:#c6c6c6;}.k{stroke-width:7.85516px;}.l{fill:#ededed;}.l,.o{stroke-width:3.45253px;}.m{fill:#b2b2b2;}.n{stroke-width:7.79566px;}.p{stroke-width:2.75143px;}.q{stroke-width:3.2272px;}.r{stroke-width:2.57186px;}.t{stroke-width:7.13883px;}.u{fill:#ffed00;stroke-width:9.76926px;}.v{fill:#cb6e17;stroke-width:5.90821px;}.w,.x,.y{fill:none;}.w{stroke-width:4px;}.x,.y{stroke:#fff;opacity:0.51;}.y{stroke-width:0.89393px;}.z{fill:#cc8db8;}</style></defs><circle class="a" cx="837.42104" cy="837.42104" r="837.42104"/><path class="b" d="M603.31181,867.37076c6.04,0-41.37425,9.74715-39.61558,15.52547,17.26851,56.73779,103.72463,343.48185,95.91593,371.77649-5.68143,20.58652-23.81357,101.65917-73.619,83.93935-151.17654-53.78575-313.92025-235.64409-318.16185-228.00921-5.87664,10.578,42.75-58.59835,57.80929-50.87565,198.86072,101.97933,199.21013,134.85855,212.09905,157.4907,0,0-18.03479-30.23131-39.99066-49.01945-7.36263-6.30037-2.79731-20.82247-8.5075-73.97167-5.289-49.22859-10.69464-146.60781,5.64631-186.09842,10.57795-25.56338,115.39734-59.85669,122.82175-59.85669Z"/><path class="c" d="M765.93762,741.82489c-8.49349,0-27.17829,59.15456-27.17829,59.15456l126.86331,69.437L977.646,792.84477,935.678,718.906Z"/><path class="b" d="M672.21054,806.89084s-132.96183,51.77229-136.48781,63.52557,56.56552,351.423,68.24391,384.33218,55.16551,173.94851,48.11354,176.88683-2.35066,24.09422,4.70131,29.97086,346.98381,16.45459,365.07033,7.052,15.73587-28.20787,11.03456-28.20787,48.18844-178.06216,49.36377-230.07041,53.34346-358.76881,53.34346-358.76881L977.646,792.84477l-131.7569,53.20541Z"/><path class="d" d="M600.65552,465.6445s-40.00518-290.89563,97.3459-342.71071S925.82326,95.79256,925.82326,95.79256s137.35108,24.67385,172.71692,92.93815,55.10493,47.70277,55.10493,47.70277,4.1123,15.62677-13.98185,18.09415-39.64472,223.0557-39.64472,223.0557Z"/><path class="e" d="M623.15613,326.90414c-.46391,19.48-2.65549,111.59579-3.28842,138.1736,0,0-47.56882-6.24417-48.52514,31.2536-.96472,37.83333,51.81356,44.41278,51.81356,44.41278S645.6266,785.98458,857.023,785.78847c175.02632-4.02191,221.90929-211.58171,223.45812-243.12427.10939-2.22779,1.17167-1.98008,3.3927-2.18513,40.07228-3.69955,60.551-71.76421-10.00723-77.04633l-1.64421-136.5286s-83.11175-67.06221-91.86363-61.80894c-26.9345,16.16728-100.61859,34.22035-301.27392,1.76936,0,0-19.9858,9.90873-55.92867,60.03958"/><path class="f" d="M711.581,368.85066s37.79561-7.4371,54.35658-4.67694"/><path class="f" d="M713.37723,375.366c6.351-1.24385,12.75806-2.27406,19.17174-3.13218,10.14772-1.35771,21.41042-3.1009,31.59247-1.54477,3.63491.55553,7.22082-.92086,8.31147-4.7191.916-3.19007-1.118-7.76113-4.7191-8.31148-18.8876-2.88661-39.36636,1.03758-57.94895,4.67694-8.52615,1.66983-4.9167,14.69707,3.59237,13.03059Z"/><path class="f" d="M935.678,363.16262s35.89174,0,54.22722,5.99333"/><path class="f" d="M935.678,369.91926c17.29654.01767,35.8402.51639,52.431,5.752,8.31255,2.6232,11.86973-10.41849,3.59236-13.03059-17.675-5.57773-37.58576-6.21585-56.0234-6.23468-8.69553-.00888-8.70917,13.5044,0,13.51329Z"/><ellipse class="g" cx="954.59246" cy="445.46515" rx="18.91451" ry="12.28737"/><ellipse class="g" cx="742.06962" cy="445.46515" rx="18.91451" ry="12.28737"/><ellipse class="h" cx="850.48342" cy="624.06849" rx="15.13921" ry="9.83484"/><path class="f" d="M797.73728,695.63461c8.91882,7.55509,20.71928,12.31856,32.0283,14.69968,27.86946,5.86793,55.61865-2.76792,79.09645-17.89931,7.28575-4.69565.5183-16.39812-6.82042-11.66833-20.58672,13.26809-45.09078,21.82671-69.67063,16.32271a67.936,67.936,0,0,1-18.95428-7.11159c-1.84579-1.03136-3.60455-2.17417-5.36074-3.34756-2.32584-1.554.26389.31922-.76334-.551-6.59821-5.5893-16.20305,3.92411-9.55534,9.55535Z"/><path class="b" d="M731.90138,750.26078s-47.49969,27.59856-59.84063,49.636,136.92569,114.0068,136.92569,114.0068,41.69666-63.17387,36.57164-71.10734S731.90138,750.26078,731.90138,750.26078Z"/><path class="b" d="M964.62783,750.26078s44.16433,32.88754,56.50527,54.92494S882.8022,917.42936,882.8022,917.42936s-36.95608-66.69969-31.83107-74.63316S964.62783,750.26078,964.62783,750.26078Z"/><path class="i" d="M835.58365,1467.77675S830.73,1186.57958,828.967,1162.77919s16.59107-319.983,16.59107-319.983-16.58023,413.42155-9.97443,445.1554S835.58365,1467.77675,835.58365,1467.77675Z"/><path class="i" d="M655.0185,1030.261c-1.763,4.11364-11.16562,53.47741-11.16562,53.47741l9.98375-.25551,104.82847-2.68281-7.26972-50.53909Z"/><path class="j" d="M653.83663,1083.48289s2.08226,51.96993,17.499,65.4862,70.06947,6.31739,70.06947,6.31739l4.70131-71.80359"/><path class="i" d="M1034.06171,1030.261c1.763,4.11364,11.16561,53.47741,11.16561,53.47741l-9.98375-.25551-104.82846-2.68281,7.26972-50.53909Z"/><path class="j" d="M1035.24357,1083.48289s-2.08225,51.96993-17.499,65.4862-70.06947,6.31739-70.06947,6.31739l-4.70132-71.80359"/><path class="i" d="M1094.22213,901.87827s17.68758-5.87645,19.16046-21.44256-36.72971-30.481-46.81954-35.42707-42.20113-11.6452-45.27449-12.88835-13.93768,28.31128-9.98544,29.82819l3.95224,1.5169Z"/><rect class="k" x="653.83663" y="1461.60628" width="382.68192" height="56.41573"/><rect class="i" x="813.54539" y="1467.77675" width="63.26441" height="43.1933"/><path class="l" d="M574.71336,863.18487s-15.24828-22.40984.18847-34.61847,49.80484-40.017,63.18214-21.28053,14.37964,25.08143,14.37964,25.08143"/><path class="l" d="M599.75335,898.72s18.49618,39.006,35.08586,42.68926,51.31714-11.86955,46.91409-30.53293-14.15319-45.16-14.15319-45.16Z"/><path class="h" d="M579.73655,843.7668s29.09575,35.65161,40.11125,65.42658,1.265,15.42393,1.265,15.42393-40.20088-70.07667-41.37621-73.21088S579.73655,843.7668,579.73655,843.7668Z"/><path class="i" d="M587.5619,901.87827s-17.68758-5.87645-19.16046-21.44256,36.72971-30.481,46.81954-35.42707,42.20113-11.6452,45.27449-12.88835,13.93768,28.31128,9.98544,29.82819l-3.95224,1.5169Z"/><path class="m" d="M653.83655,1518.022c-8.63618,23.02583-28.742,129.66395-28.742,129.66395s314.3055,72.97655,449.28421-6.84043c0,0-19.12088-102.26193-37.8602-116.89674S653.83655,1518.022,653.83655,1518.022Z"/><line class="n" x1="840.74548" y1="1515.47474" x2="840.74548" y2="1674.84208"/><line class="o" x1="963.71415" y1="1030.26099" x2="932.79633" y2="1064.67937"/><line class="o" x1="1039.73211" y1="1049.73271" x2="1011.03248" y2="1081.68177"/><line class="o" x1="973.10658" y1="1032.51761" x2="932.79633" y2="1077.39186"/><line class="o" x1="982.73388" y1="1031.85262" x2="939.98931" y2="1079.43682"/><line class="o" x1="992.14178" y1="1032.31531" x2="949.84047" y2="1079.40605"/><line class="o" x1="1002.44573" y1="1032.34607" x2="958.48058" y2="1081.28904"/><line class="o" x1="1013.51939" y1="1031.85262" x2="969.55425" y2="1080.79558"/><line class="o" x1="1024.2647" y1="1031.85262" x2="980.29955" y2="1080.79558"/><line class="o" x1="1033.53577" y1="1032.89327" x2="989.70937" y2="1081.68177"/><line class="o" x1="1037.78602" y1="1040.19577" x2="1000.51941" y2="1081.68177"/><line class="p" x1="955.45032" y1="1029.49784" x2="932.79633" y2="1053.17956"/><line class="p" x1="1038.89669" y1="1061.39939" x2="1019.15272" y2="1082.03908"/><line class="p" x1="1042.95428" y1="1065.51564" x2="1027.76951" y2="1081.59256"/><line class="o" x1="725.42015" y1="1030.55853" x2="756.33796" y2="1064.97692"/><line class="o" x1="649.40218" y1="1050.03026" x2="678.10182" y2="1081.97932"/><line class="o" x1="716.02772" y1="1032.81516" x2="756.33796" y2="1077.68941"/><line class="o" x1="706.40041" y1="1032.15016" x2="749.14499" y2="1079.73436"/><line class="o" x1="696.99252" y1="1032.61286" x2="739.29382" y2="1079.7036"/><line class="o" x1="686.68857" y1="1032.64362" x2="730.65372" y2="1081.58658"/><line class="o" x1="675.6149" y1="1032.15016" x2="719.58005" y2="1081.09313"/><line class="o" x1="664.8696" y1="1032.15016" x2="708.83474" y2="1081.09313"/><line class="o" x1="655.59853" y1="1033.19081" x2="699.42493" y2="1081.97932"/><line class="o" x1="651.34828" y1="1040.49332" x2="688.61489" y2="1081.97932"/><line class="p" x1="733.68398" y1="1029.79539" x2="756.33796" y2="1053.47711"/><line class="p" x1="650.2376" y1="1061.69694" x2="669.98158" y2="1082.33663"/><line class="p" x1="646.18002" y1="1065.81318" x2="661.36478" y2="1081.89011"/><line class="q" x1="813.4088" y1="1481.95496" x2="840.23536" y2="1511.81887"/><line class="q" x1="866.68705" y1="1465.2418" x2="877.48208" y2="1475.6212"/><line class="q" x1="857.89316" y1="1465.6743" x2="877.48208" y2="1487.48112"/><line class="q" x1="848.2617" y1="1465.70306" x2="879.00652" y2="1499.92887"/><line class="q" x1="837.91075" y1="1465.2418" x2="879.00652" y2="1510.99052"/><line class="q" x1="827.86674" y1="1465.2418" x2="868.96251" y2="1510.99052"/><line class="q" x1="819.20074" y1="1466.21454" x2="860.16682" y2="1511.81887"/><line class="q" x1="815.22788" y1="1473.04045" x2="850.0623" y2="1511.81887"/><line class="r" x1="814.1897" y1="1492.86022" x2="832.64509" y2="1512.15286"/><line class="r" x1="810.39693" y1="1496.70782" x2="824.59066" y2="1511.73548"/><circle class="q" cx="583.42216" cy="882.49693" r="2.57103"/><circle class="q" cx="1099.4961" cy="882.49693" r="2.57103"/><path class="s" d="M248.62757,1090.22919c-5.64577-1.93939-78.74032-64.94307-82.7062-80.02594-1.57017-5.9716,3.85723-27.912,9.07694-41.47371,3.44421-8.94866,9.4216-12.24387,14.58124-18.83878,3.76138-4.80771,2.50753-7.633,6.72729-9.12288,3.37637-1.1921,8.00533.85516,11.4549,2.79152,20.99675,11.78615,19.6188,19.3709,29.91441,40.98383.79723,1.67357-1.17517-2.13912-1.03913-12.661.08831-6.83081,2.46371-14.94407,8.93791-14.47761,4.9698.35807,11.38986,9.03815,14.18276,16.42984,5.39008,14.26538,13.89252,21.36119,24.01132,37.56339,5.43565,8.70356,16.361,20.81455,16.361,20.81455Z"/><path class="f" d="M249.4318,1087.312c.806.31124-1.73783-1.19228-2.3239-1.61063-1.92848-1.37658-3.78192-2.86056-5.62918-4.34295-5.35-4.29328-10.57826-8.73989-15.75877-13.23544-13.08766-11.35723-25.9308-23.06053-38.07527-35.42754a177.64291,177.64291,0,0,1-14.356-15.9411c-3.06487-3.98909-4.90922-6.90922-4.485-12.05762.91011-11.044,4.43807-22.31024,8.18993-32.68772,2.1823-6.03616,5.63039-10.26322,10.04546-14.78861a56.65055,56.65055,0,0,0,5.15262-5.80277c1.45188-1.96676,2.44542-6.25949,4.52978-7.5499,4.67916-2.89684,15.299,5.53618,18.91075,8.40281a35.33344,35.33344,0,0,1,8.94545,10.42163,128.613,128.613,0,0,1,5.99475,13.27861c1.35952,3.22174,2.86715,10.51455,6.48957,11.85632,2.31513.85754,4.15743-1.66222,3.72139-3.72138-.96379-4.55142-3.70873-24.81435,4.87832-23.63635,4.63238.63549,8.64227,8.56387,10.35568,12.24527,2.37285,5.09826,4.3176,10.1593,7.377,14.92847,6.23113,9.71362,13.31672,19.07248,19.92806,28.53527a191.09923,191.09923,0,0,0,14.66846,18.17315v-4.27832L246.48841,1088.09c-2.57716,2.90314,1.687,7.19744,4.27832,4.27831l51.50248-58.0168a3.10628,3.10628,0,0,0,0-4.27832c-7.47284-8.30869-13.66194-17.25111-19.97892-26.4296-4.03843-5.86779-8.54857-11.39971-12.52513-17.3094-3.71933-5.52744-5.92471-11.42261-8.85409-17.34041-3.73917-7.55369-14.44107-21.19422-23.12513-11.15364-6.14975,7.1104-4.62575,19.426-2.83683,27.874l3.72138-3.72138c2.092.77488,2.11129,2.11924.65048-1.04189q-.89407-1.93471-1.74794-3.88747c-1.19067-2.71841-2.31688-5.46394-3.46922-8.19863a71.8885,71.8885,0,0,0-5.72342-11.58282c-5.41544-8.28539-14.82589-15.29445-24.0645-18.68827-4.66665-1.7143-10.42245-1.84466-13.47663,2.74187-1.6349,2.45515-2.399,5.20486-4.3172,7.54739-2.0155,2.4613-4.38651,4.6042-6.55993,6.91993-8.66167,9.22883-11.77994,22.27537-14.63708,34.29748-1.70207,7.16186-4.69617,16.68925-1.17814,23.74054,2.64517,5.30181,6.96745,9.95178,10.8935,14.31775,12.45811,13.854,26.32179,26.51249,40.25575,38.85406,6.82063,6.04116,13.72221,12.00143,20.80356,17.73614,3.55006,2.875,7.385,6.7222,11.72363,8.39747C251.4582,1094.54989,253.032,1088.7022,249.4318,1087.312Z"/><path class="s" d="M176.4733,967.43947c.43272,2.5443-2.82834,38.66555,22.99677,56.68381"/><path class="f" d="M173.44807,967.43947c1.02073,8.1696.45712,16.21577,2.316,24.38842,3.1868,14.01068,10.42432,26.44353,22.17908,34.90759,3.16473,2.27877,6.18847-2.96724,3.05378-5.22439-11.07485-7.97448-17.22357-20.21894-19.84077-33.36877-1.37919-6.92959-.79534-13.801-1.65767-20.70285-.47637-3.81269-6.53277-3.86039-6.05045,0Z"/><path class="s" d="M189.8974,948.96546c.43272,2.54429-4.17122,42.80072,21.65389,60.819"/><path class="f" d="M186.87217,948.96546c.34006,2.85445-.097,5.91915-.05791,8.79107a107.09985,107.09985,0,0,0,1.65582,17.67709c2.65308,14.60354,9.32112,28.13977,21.55432,36.963,3.16279,2.28117,6.18634-2.965,3.05377-5.22438-11.5246-8.31216-17.01-21.80355-19.12916-35.45249-1.17922-7.59519-.13095-15.238-1.02639-22.7543-.455-3.819-6.51087-3.86483-6.05045,0Z"/><path class="s" d="M205.778,942.11237c.43272,2.54429-3.26106,36.12125,22.56405,54.13951"/><path class="f" d="M202.75278,942.11237c.94956,7.74366.30451,15.35159,2.09851,23.10466a56.33583,56.33583,0,0,0,21.96388,33.647c3.16521,2.27815,6.189-2.96781,3.05377-5.22439-10.739-7.72939-17.06388-19.27057-19.62586-32.08661-1.30149-6.51057-.64547-12.96251-1.43985-19.44071-.46784-3.81524-6.524-3.8622-6.05045,0Z"/><path class="s" d="M237.67615,984.54323a71.25787,71.25787,0,0,0,10.5229,35.30266"/><path class="f" d="M234.65093,984.54323c-.09135,12.80415,4.31428,26.02476,10.93592,36.82955,2.03133,3.31458,7.26655.27849,5.22439-3.05378-6.07448-9.912-10.1938-22.01-10.10987-33.77577.02779-3.89417-6.02263-3.89822-6.05044,0Z"/><path class="s" d="M202.46386,1025.29958s10.93674-21.79064,21.56864-26.18015l10.6319-4.3895"/><path class="f" d="M205.33865,1026.98a84.40322,84.40322,0,0,1,12.58273-18.90776c4.88847-5.33872,11.09949-7.43646,17.62809-10.13186,3.90553-1.61245,2.194-8.05747-1.77014-6.42084-7.16533,2.95829-14.25214,5.26863-19.75176,10.97356a87.15081,87.15081,0,0,0-14.4385,21.12613c-1.92845,3.81537,3.81406,7.19014,5.74958,3.36077Z"/><path class="t" d="M243.44014,1090.27309s-5.41814,7.00213-.53242,11.32509,11.9427,9.46551,16.074,10.61187,65.03409-53.5306,62.80157-60.157-12.94258-23.61969-18.9717-20.45309S243.44014,1090.27309,243.44014,1090.27309Z"/><rect class="u" x="776.70378" y="1119.14266" width="257.49607" height="339.34827" transform="translate(-269.85879 240.22884) rotate(-13.17155)"/><path class="b" d="M1135.59361,851.61116s107.55629,350.08242,98.88552,381.50074c-20.42016,73.99194-301.2301,138.43936-307.10674,149.01731s-6.955-77.32232-14.00695-79.673,186.13066-54.46958,207.08319-75.221c18.23844-18.06336-27.90048-123.55928-20.46179-158.18846s12.10022-217.43564,12.10022-217.43564Z"/><path class="b" d="M897.12342,1387.39488s2.69106,9.02707,9.66129,7.67179,16.065-4.01547,19.74238-6.7619-5.34249-88.88764-12.63628-91.235-29.21384-4.171-30.30521,2.92393S897.12342,1387.39488,897.12342,1387.39488Z"/><path class="s" d="M890.25515,1386.96634c-4.81624,3.00594-95.15022,19.20735-108.66379,13.0942-5.35029-2.42032-18.2963-19.57958-25.18051-31.563-4.54253-7.90719-3.39241-14.29581-5.16878-22.05863-1.295-5.65912-4.13261-6.427-2.70314-10.43566,1.14376-3.2075,5.43012-5.398,8.92763-6.78424,21.2885-8.43758,26.06262-2.87356,48.19189,2.4805,1.71355.41459-2.28384-.4146-9.971-6.82231-4.9905-4.15988-9.55692-10.77716-5.3316-15.27769,3.24348-3.45475,13.50077-2.99172,20.63252-.62293,13.76371,4.57157,24.09954,2.54742,42.12787,4.78862,9.68453,1.20393,25.17568.39714,25.17568.39714Z"/><path class="f" d="M888.803,1384.48205c.05336-.03046-1.484.51354-2.4023.7701-1.98418.55432-4.00071,1.00245-6.01121,1.44838-5.88232,1.30471-11.80613,2.42717-17.73536,3.49543-15.55788,2.803-31.21308,5.2107-46.93643,6.87126-6.70475.70809-13.44024,1.30613-20.18375,1.4527-3.87977.08432-8.85524.57111-12.5423-.98187-2.2906-.9648-4.57753-3.7099-6.34224-5.663a133.88013,133.88013,0,0,1-10.206-13.0639,112.21834,112.21834,0,0,1-7.993-12.60179c-3.08288-5.96988-2.84285-12.47267-4.095-18.89177a33.64135,33.64135,0,0,0-2.55166-7.29434c-1.46643-3.33741.62705-5.036,3.5001-6.65769a46.09973,46.09973,0,0,1,19.20085-5.56613c10.52737-.51375,20.6549,4.59326,30.76774,6.76317a2.91106,2.91106,0,0,0,3.53918-3.53918c-.49-1.88766-3.2141-2.65192-4.68719-3.54664-4.105-2.4933-11.80536-7.38245-12.444-12.77-1.19787-10.10448,25.47661-.97116,30.14291-.34789,10.956,1.46338,22.16458,1.46012,33.17747,2.484a163.43509,163.43509,0,0,0,23.29115.19666l-2.77433-2.11225,11.96324,72.804c.599,3.64521,6.14489,2.0987,5.54866-1.5297l-11.96324-72.804a2.87831,2.87831,0,0,0-2.77433-2.11226,192.34051,192.34051,0,0,1-28.9252-.81606c-6.75748-.67314-13.53883-.75907-20.31127-1.1805-6.74121-.41948-12.77856-1.9349-19.26188-3.66216-7.448-1.98427-23.71294-3.62061-23.95,7.983-.11539,5.647,4.44814,10.53589,8.50832,13.87068a59.964,59.964,0,0,0,6.86834,4.96513,10.52131,10.52131,0,0,0,2.12511,1.20544c1.78181.53829.55829,1.37-.08234-1.0977l3.53918-3.53918c-9.9682-2.13887-19.683-6.77121-29.99963-6.99907a46.43607,46.43607,0,0,0-15.90145,2.87738c-4.73646,1.61755-10.52145,3.49294-13.66147,7.66893-2.79423,3.7161-1.91819,7.00652-.15568,10.85206,2.79636,6.10122,2.08313,12.99252,3.85212,19.376,3.00973,10.86084,11.69774,21.22067,18.753,29.78769,4.00274,4.8604,8.20776,10.12636,14.71663,11.17909,5.9985.97019,12.25611.579,18.2872.19607,17.28175-1.09738,34.50923-3.652,51.57949-6.49179,8.34717-1.38862,16.68342-2.88055,24.963-4.63138,3.95925-.83723,8.88481-1.331,12.47191-3.3783C894.923,1387.61525,892.02741,1382.64173,888.803,1384.48205Z"/><path class="s" d="M756.34251,1366.63523c2.13794,1.20566,26.85282,25.266,55.63705,16.99928"/><path class="f" d="M754.89038,1369.11953c6.10648,3.86087,12.36108,9.45459,19.43941,12.85134,12.09722,5.80521,25.31871,7.95258,38.41462,4.438,3.57283-.95886,2.05692-6.51122-1.5297-5.54867-12.78953,3.43238-25.66565.73064-37.15178-5.47667-5.90376-3.1905-10.67521-7.6963-16.26829-11.23257-3.13914-1.98476-6.02953,2.9926-2.90426,4.96859Z"/><path class="s" d="M750.74942,1345.6496c2.13794,1.20566,29.101,28.73633,57.88522,20.46958"/><path class="f" d="M749.29729,1348.1339c1.42214.914,4.65912,3.919,6.69044,5.50187a97.8304,97.8304,0,0,0,13.878,9.17391c12.20384,6.53625,25.92075,9.71811,39.53377,6.08383,3.57424-.95422,2.05794-6.50645-1.5297-5.54866-13.37389,3.57044-26.6804-.41594-38.28066-7.30118-6.2816-3.72839-11.32608-8.9825-17.38758-12.87837-3.12437-2.0081-6.01287,2.97062-2.90426,4.9686Z"/><path class="s" d="M755.209,1329.81631c2.13794,1.20566,24.71488,24.06037,53.49911,15.79362"/><path class="f" d="M753.7569,1332.30061c5.70474,3.61851,11.60939,9.02963,18.317,12.2127,11.83032,5.614,24.67283,7.296,37.39908,3.87095,3.572-.96136,2.05636-6.51379-1.5297-5.54866-12.37769,3.33128-24.83732,1.19154-36.021-4.841-5.5729-3.00606-9.99667-7.32334-15.26111-10.66257-3.13628-1.98934-6.0263,2.98828-2.90426,4.96859Z"/><path class="f" d="M800.34359,692.355l92.07128-7.22114,13.037-1.02248c7.335-.57528,7.397-12.08857,0-11.50842l-92.07129,7.22114-13.03694,1.02249c-7.335.57528-7.397,12.08856,0,11.50841Z"/><polygon class="v" points="1076.299 459.276 1044.259 398.213 1041.722 372.782 1069.27 389.965 1110.876 475.923 1076.299 459.276"/><path class="v" d="M1120.1359,494.6536l31.26723,63.05462s-4.72012,15.255-11.29734,13.77091c-1.37036-.30921-3.48586-2.38515-5.97652-5.4782-9.46357-11.75247-24.34335-38.18923-24.34335-38.18923s9.97371-17.365,8.2-25.82077l-1.77368-8.45579Z"/><polyline class="w" points="1044.75 400.016 1050.414 402.062 1050.414 398.207 1057.966 400.488 1057.18 396.24 1062.844 397.814 1062.844 392.7 1067.958 394.431 1065.676 390.34"/><line class="x" x1="1053.52429" y1="401.59817" x2="1081.5834" y2="458.13211"/><line class="x" x1="1059.69579" y1="403.10738" x2="1088.59279" y2="461.3295"/><line class="x" x1="1063.95716" y1="400.33951" x2="1096.20351" y2="465.30994"/><line class="x" x1="1066.79092" y1="396.20083" x2="1103.03999" y2="468.65917"/><line class="x" x1="1120.95726" y1="508.46854" x2="1147.92952" y2="562.81268"/><line class="x" x1="1119.23807" y1="515.55155" x2="1144.19319" y2="565.83154"/><line class="x" x1="1116.62169" y1="521.16638" x2="1139.67829" y2="563.70172"/><line class="y" x1="1114.27403" y1="525.29526" x2="1134.67768" y2="561.89646"/><ellipse class="z" cx="1141.31209" cy="562.10568" rx="8.62482" ry="6.39842" transform="translate(-94.94252 862.48979) rotate(-39.87765)"/></svg>