<svg xmlns="http://www.w3.org/2000/svg" viewBox="0 0 1569.68845 1569.68845"><defs><style>.a{fill:#f8ab41;}.b,.t{fill:#dadada;}.b,.c,.f,.g,.h,.i,.j,.k,.l,.m,.n,.o,.p,.q,.r,.s,.t{stroke:#1d1d1b;stroke-miterlimit:10;}.b,.j,.k,.n{stroke-width:7.19058px;}.c,.d,.g,.j,.o,.p,.q,.r,.s{fill:#fff;}.c{stroke-width:0.35953px;}.e,.f,.h,.i,.l{fill:#1d1d1b;}.f{stroke-width:2.01271px;}.g{stroke-width:8.86541px;}.h{stroke-width:11.39838px;}.i{stroke-width:2.0274px;}.k{fill:#c6c6c6;}.l{stroke-width:7.36198px;}.m{fill:#ededed;}.m,.p{stroke-width:3.23576px;}.n{fill:#b2b2b2;}.o{stroke-width:7.30622px;}.q{stroke-width:2.57868px;}.r{stroke-width:3.02458px;}.s{stroke-width:2.41038px;}.t{stroke-width:6.69062px;}</style></defs><circle class="a" cx="784.84422" cy="784.84422" r="784.84422"/><path class="b" d="M565.09957,1052.26956s-258.24332-268.06771-279.949-289.56078-31.3724-30.26623-29.51747-41.45451,47.43287-47.33758,54.398-47.48422,89.75528,56.21333,103.7553,75.77815,109.90268,66.667,114.24563,99.57707,57.81643,195.73919,57.81643,195.73919Z"/><path class="c" d="M717.84883,695.25c-7.96024,0-25.47192,55.44059-25.47192,55.44059L811.2752,815.768l104.99-72.70136-39.33309-69.29659Z"/><path class="d" d="M1236.80358,1366.60605c0,5.32086,31.94453,85.1822,43.51066,92.89295,4.57926,3.05284,24.64618,4.831,37.58991,4.358,8.54088-.3121,13.04956-4.39671,20.103-6.83646,5.142-1.77859,7.16057.09651,9.63844-3.02923,1.98263-2.501,1.59725-6.99595.96385-10.46459-3.85538-21.11276-10.64818-22.14753-25.88609-37.085-1.17993-1.15667,1.46293,1.61007,10.37205,4.54225,5.7838,1.90357,13.311,2.25055,14.79251-3.34214,1.13727-4.29312-4.32077-12.21861-9.74306-16.71341-10.46459-8.67459-13.98413-17.89673-24.71211-31.11838-5.7629-7.10246-12.8085-19.81936-12.8085-19.81936Z"/><path class="e" d="M1234.10711,1366.60605c.14479,3.48593,1.87593,7.13916,3.03337,10.36241,2.33761,6.50974,4.88352,12.94644,7.49426,19.35081,6.393,15.68249,13.13149,31.31738,21.03047,46.30919,2.85922,5.42662,5.818,11.027,9.7353,15.78382,3.89652,4.73163,9.26459,5.73329,15.16542,6.60245,10.32512,1.52084,22.43022,3.11416,32.74833.8458,5.4999-1.20911,10.09618-4.56882,15.40974-6.23984,4.108-1.29188,8.4305-.35965,11.24993-4.26841,3.15048-4.3677,1.68913-10.736.63465-15.56295a45.61286,45.61286,0,0,0-5.53777-14.697c-5.27456-8.36224-13.99379-13.75045-20.703-20.81969l-2.62352,4.50684c-1.05261-.29269-.04629.02042.19357.24522a10.45955,10.45955,0,0,0,2.42146,1.31926,54.17024,54.17024,0,0,0,8.01932,3.2401c4.06055,1.26639,8.94751,2.14028,13.0179.433,10.37209-4.35048,2.91622-16.51127-2.14032-21.94332-4.14653-4.45447-8.86558-8.04861-12.58066-12.95487-4.00219-5.28542-7.48827-10.94243-11.46707-16.24756a213.14021,213.14021,0,0,1-16.25586-24.24164,2.711,2.711,0,0,0-3.04515-1.23918l-63.82068,26.61538c-3.15657,1.3164-1.77126,6.53685,1.43365,5.20029l63.82068-26.61538-3.04514-1.23919a155.7848,155.7848,0,0,0,11.61337,18.28733c6.19353,8.19344,11.77393,16.951,18.2295,24.93275,3.13663,3.87817,22.02064,18.19575,16.29034,23.84134-3.3644,3.31466-11.41675-.16476-14.83087-1.59049-2.12372-.88685-4.224-2.63261-6.42038-3.24333a2.71763,2.71763,0,0,0-2.62352,4.50684c5.507,5.80253,12.296,10.36966,17.47379,16.48912a30.38876,30.38876,0,0,1,5.27136,9.13824c1.646,4.45384,3.71731,10.66684,3.11255,15.40847-.488,3.826-1.89894,4.00279-5.09478,4.42927a26.23773,26.23773,0,0,0-6.72821,1.92c-4.97646,2.07367-9.561,4.95109-15.02858,5.57825-9.65924,1.108-20.4897.04922-30.022-1.62691-5.56359-.97829-8.45467-2.07726-11.63313-6.61a126.23508,126.23508,0,0,1-8.44867-14.56408c-6.98022-13.48525-13.08389-27.44635-18.85334-41.48578-2.70827-6.59031-5.343-13.21541-7.78486-19.9096-.85232-2.33661-1.69851-4.68116-2.4387-7.0563-.23425-.75165-.4732-1.50385-.66585-2.26757-.14065-.55758-.23278-1.37811-.21389-.92315C1239.35642,1363.14813,1233.96273,1363.13,1234.10711,1366.60605Z"/><path class="d" d="M1319.41876,1462.9872c-2.01948-1.10154-33.41325-8.81229-41.124-35.79991"/><path class="e" d="M1320.77972,1460.65888c-5.623-2.7364-11.6355-4.28884-17.13837-7.43754-10.58427-6.05624-19.15408-14.891-22.74645-26.75088-1.0034-3.31267-6.21031-1.90082-5.20029,1.43365,3.6837,12.16143,11.996,21.70488,22.63633,28.41958a80.65686,80.65686,0,0,0,12.68379,6.40544c1.63328.66478,3.28559,1.27567,4.94771,1.864a14.73028,14.73028,0,0,0,2.09536.72239c3.1081,1.51254,5.84542-3.1366,2.72192-4.65664Z"/><path class="d" d="M1338.87922,1457.02055c-2.01948-1.10154-37.288-8.8777-44.99872-35.86532"/><path class="e" d="M1340.24018,1454.69223c-6.14238-2.94028-12.89724-4.32948-19.02233-7.51192-11.16148-5.79922-20.97823-14.37716-24.7372-26.74191-1.0067-3.31142-6.21371-1.89986-5.2003,1.43365,3.845,12.64769,13.23552,22.06067,24.52141,28.49905a93.68424,93.68424,0,0,0,14.00775,6.41626c1.79456.66229,3.60817,1.26642,5.42878,1.85236.54426.17516,2.96338,1.03629,2.28.70915,3.11535,1.49127,5.85442-3.15716,2.72192-4.65664Z"/><path class="d" d="M1349.25483,1445.618c-2.01948-1.10153-31.39376-7.71075-39.10451-34.69837"/><path class="e" d="M1350.61579,1443.28968c-5.29633-2.56088-10.95418-3.92614-16.141-6.894-10.318-5.90393-18.24458-14.69787-21.72433-26.19284-1.00287-3.31287-6.20975-1.901-5.20029,1.43365,3.57375,11.80551,11.29258,21.26686,21.63679,27.86618a72.18214,72.18214,0,0,0,12.16148,6.11454c1.51791.60459,3.05533,1.15132,4.59979,1.68333.43825.151,2.63913.98114,1.94565.64582,3.111,1.50422,5.849-3.14464,2.72191-4.65664Z"/><path class="d" d="M1322.72337,1406.4417a63.51425,63.51425,0,0,1-26.71225-19.09329"/><path class="e" d="M1323.44019,1403.84155c-9.94728-3.33787-18.93164-10.416-25.52238-18.39983-2.21119-2.67858-6.0076,1.15536-3.81338,3.81338,7.1934,8.71388,17.08939,16.15848,27.90211,19.78674,3.29773,1.10658,4.71241-4.10008,1.43365-5.20029Z"/><path class="d" d="M1278.17009,1424.323s21.536-2.90945,28.315-10.60083l6.779-7.69139"/><path class="e" d="M1278.959,1427.18449a78.92327,78.92327,0,0,0,20.965-5.65908c6.67039-2.947,10.71824-8.04078,15.43845-13.3963,2.51694-2.85571-1.66517-7.069-4.19674-4.19673-4.40961,5.00312-8.11005,9.873-14.41271,12.53259a77.58317,77.58317,0,0,1-19.37179,4.99645c-3.767.52038-2.16356,6.23991,1.57778,5.72307Z"/><path class="b" d="M1064.29627,798.14343s153.11347,339.273,166.33189,366.8114,58.3814,134.38737,52.87372,144.30119-60.58447,28.63993-67.19368,26.43686-104.6459-178.4488-111.25511-201.581-81.09971-99.72928-74.12805-132.18429,11.34051-203.78411,11.34051-203.78411Z"/><path class="b" d="M630.00634,756.23083S505.39241,804.75264,502.0878,815.768s53.01411,329.35919,63.95927,360.20219,51.702,163.02729,45.09277,165.78113-2.20307,22.58149,4.40614,28.08916,325.19871,15.42151,342.14969,6.60922,14.7479-26.43686,10.34175-26.43686,45.163-166.88267,46.26451-215.62562,49.99434-336.24379,49.99434-336.24379l-148.031-55.07679-123.48465,49.865Z"/><path class="f" d="M562.94384,436.40938S525.45036,163.7774,654.178,115.21549,867.69618,89.7783,867.69618,89.7783s128.7276,23.12472,161.873,87.1031,51.6452,44.70779,51.6452,44.70779,3.85412,14.64566-13.104,16.95813-37.15566,209.05132-37.15566,209.05132Z"/><path class="g" d="M584.03176,306.37972c-.43478,18.25694-2.48876,104.58934-3.082,129.49848,0,0-44.58224-5.85213-45.47852,29.29137-.90415,35.458,48.56048,41.62436,48.56048,41.62436s21.05969,229.84323,219.1837,229.65943c164.03743-3.76939,207.97689-198.29772,209.42848-227.8599.10252-2.08792,1.09811-1.85576,3.17969-2.04794,37.55638-3.46727,56.7494-67.25855-9.37893-72.209l-1.541-127.95676s-77.89365-62.85176-86.096-57.92831c-25.24343,15.15223-94.30133,32.07185-282.35867,1.65827,0,0-18.731,9.28662-52.41724,56.27"/><path class="e" d="M666.905,345.69267s35.42264-6.97017,50.94384-4.38331"/><path class="e" d="M668.5884,351.7989c6.039-1.18241,12.13191-2.15965,18.23107-2.96977,9.43511-1.25323,19.84869-2.85809,29.346-1.41353,7.97329,1.21276,11.411-10.98893,3.36683-12.21247-17.71091-2.69388-36.88589.97158-54.31067,4.3833-7.99091,1.5646-4.608,13.77393,3.36682,12.21247Z"/><path class="e" d="M876.93215,340.36174s33.63831,0,50.82261,5.617"/><path class="e" d="M876.93215,346.69417c16.21463.01753,33.58349.49175,49.13919,5.39085,7.79205,2.454,11.12626-9.76873,3.36683-12.21247-16.57312-5.21953-35.22051-5.82457-52.506-5.84325-8.14961-.00881-8.16235,12.65605,0,12.66487Z"/><ellipse class="h" cx="894.65913" cy="417.49697" rx="17.72698" ry="11.51592"/><ellipse class="h" cx="695.47937" cy="417.49697" rx="17.72698" ry="11.51592"/><ellipse class="i" cx="797.08649" cy="584.88685" rx="14.18871" ry="9.21737"/><path class="e" d="M747.652,651.95974c8.36989,7.08627,19.43449,11.5547,30.04734,13.78463,26.11721,5.48763,52.0969-2.616,74.10053-16.78337,6.83056-4.398.48775-15.3655-6.3922-10.93575-19.31,12.433-42.27871,20.46611-65.32937,15.29205a65.1718,65.1718,0,0,1-17.59971-6.58523c-1.73-.96116-3.39825-2.0121-5.03346-3.12533-.28886-.19666-2.10864-1.53889-.93138-.65914,1.00641.75209.32881.2558.09367.05672-6.18513-5.23657-15.18708,3.67944-8.95542,8.95542Z"/><path class="b" d="M685.94953,703.15625s-44.51746,25.86581-56.08358,46.51961,128.32891,106.849,128.32891,106.849,39.07877-59.20754,34.27553-66.64291S685.94953,703.15625,685.94953,703.15625Z"/><path class="b" d="M904.06444,703.15625s41.3915,30.82272,52.95763,51.47652S827.37616,859.82928,827.37616,859.82928s-34.63582-62.512-29.83258-69.94737S904.06444,703.15625,904.06444,703.15625Z"/><path class="j" d="M783.12219,1375.62355s-4.54891-263.54243-6.20122-285.84853,15.54942-299.89311,15.54942-299.89311-15.53926,387.4652-9.3482,417.20667S783.12219,1375.62355,783.12219,1375.62355Z"/><path class="j" d="M613.89368,965.57686c-1.6523,3.85538-10.46459,50.11988-10.46459,50.11988l9.35693-.23947,98.24689-2.51437-6.8133-47.366Z"/><path class="k" d="M612.786,1015.45727s1.95152,48.707,16.40032,61.3747,65.67022,5.92076,65.67022,5.92076l4.40614-67.29546"/><path class="j" d="M969.139,965.57686c1.6523,3.85538,10.46459,50.11988,10.46459,50.11988l-9.35693-.23947-98.24689-2.51437,6.8133-47.366Z"/><path class="k" d="M970.24662,1015.45727s-1.95152,48.707-16.40032,61.3747-65.67022,5.92076-65.67022,5.92076l-4.40614-67.29546"/><path class="j" d="M1025.52225,845.25455s16.57709-5.50749,17.95749-20.0963-34.42366-28.56729-43.88-33.20281-39.55157-10.91406-42.432-12.07916-13.06262,26.53377-9.35852,27.95544l3.70411,1.42167Z"/><rect class="l" x="612.78602" y="1369.84048" width="358.65553" height="52.87372"/><rect class="j" x="762.46758" y="1375.62355" width="59.29241" height="40.48144"/><path class="b" d="M1215.18938,1337.96832s-7.64236,4.41954-4.88852,10.478,7.16,13.76919,10.46459,16.523,79.86134-24.23379,80.41211-31.39377-2.56209-27.53839-9.26718-26.98762S1215.18938,1337.96832,1215.18938,1337.96832Z"/><path class="m" d="M538.63044,808.99049s-14.29093-21.00286.17663-32.445,46.67788-37.50457,59.21531-19.94445,13.47682,23.50672,13.47682,23.50672"/><path class="m" d="M562.09831,842.29456s17.33492,36.557,32.883,40.00905,48.09524-11.12433,43.96862-28.61595S625.68537,811.363,625.68537,811.363Z"/><path class="i" d="M543.33825,790.79157s27.269,33.41325,37.5929,61.31882,1.18554,14.45555,1.18554,14.45555-37.6769-65.677-38.77844-68.61439S543.33825,790.79157,543.33825,790.79157Z"/><path class="j" d="M550.67229,845.25455s-16.57708-5.50749-17.95749-20.0963,34.42367-28.56729,43.88-33.20281,39.55157-10.91406,42.432-12.07916,13.06262,26.53377,9.35852,27.95544l-3.70411,1.42167Z"/><path class="n" d="M612.78594,1422.71415c-8.094,21.58016-26.93746,121.52309-26.93746,121.52309s294.57207,68.39478,421.07625-6.411c0,0-17.92039-95.8415-35.48318-109.55746S612.78594,1422.71415,612.78594,1422.71415Z"/><line class="o" x1="787.95994" y1="1420.32685" x2="787.95994" y2="1569.68845"/><line class="p" x1="903.20812" y1="965.57686" x2="874.23145" y2="997.83432"/><line class="p" x1="974.45335" y1="983.82608" x2="947.5556" y2="1013.76924"/><line class="p" x1="912.01085" y1="967.69181" x2="874.23145" y2="1009.74866"/><line class="p" x1="921.03371" y1="967.06856" x2="880.97282" y2="1011.66523"/><line class="p" x1="929.85094" y1="967.50221" x2="890.20549" y2="1011.6364"/><line class="p" x1="939.50796" y1="967.53104" x2="898.30313" y2="1013.40116"/><line class="p" x1="949.88638" y1="967.06856" x2="908.68155" y2="1012.93868"/><line class="p" x1="959.95705" y1="967.06856" x2="918.75222" y2="1012.93868"/><line class="p" x1="968.64604" y1="968.04388" x2="927.57125" y2="1013.76924"/><line class="p" x1="972.62945" y1="974.8879" x2="937.70259" y2="1013.76924"/><line class="q" x1="895.46313" y1="964.86163" x2="874.23145" y2="987.05652"/><line class="q" x1="973.67039" y1="994.76027" x2="955.16602" y2="1014.10411"/><line class="q" x1="977.47322" y1="998.61808" x2="963.24182" y2="1013.68563"/><line class="p" x1="679.87522" y1="965.85573" x2="708.85188" y2="998.11319"/><line class="p" x1="608.62998" y1="984.10494" x2="635.52773" y2="1014.0481"/><line class="p" x1="671.07249" y1="967.97068" x2="708.85188" y2="1010.02753"/><line class="p" x1="662.04962" y1="967.34743" x2="702.11051" y2="1011.94409"/><line class="p" x1="653.23239" y1="967.78108" x2="692.87785" y2="1011.91526"/><line class="p" x1="643.57537" y1="967.80991" x2="684.7802" y2="1013.68002"/><line class="p" x1="633.19695" y1="967.34743" x2="674.40178" y2="1013.21755"/><line class="p" x1="623.12629" y1="967.34743" x2="664.33112" y2="1013.21755"/><line class="p" x1="614.43729" y1="968.32274" x2="655.51208" y2="1014.0481"/><line class="p" x1="610.45389" y1="975.16677" x2="645.38075" y2="1014.0481"/><line class="q" x1="687.62021" y1="965.1405" x2="708.85188" y2="987.33538"/><line class="q" x1="609.41295" y1="995.03913" x2="627.91732" y2="1014.38298"/><line class="q" x1="605.61012" y1="998.89695" x2="619.84152" y2="1013.96449"/><line class="r" x1="762.33957" y1="1388.91159" x2="787.48185" y2="1416.90052"/><line class="r" x1="812.27279" y1="1373.24776" x2="822.39006" y2="1382.97549"/><line class="r" x1="804.03102" y1="1373.6531" x2="822.39006" y2="1394.09079"/><line class="r" x1="795.00426" y1="1373.68005" x2="823.81879" y2="1405.75702"/><line class="r" x1="785.30319" y1="1373.24776" x2="823.81879" y2="1416.12417"/><line class="r" x1="775.88978" y1="1373.24776" x2="814.40538" y2="1416.12417"/><line class="r" x1="767.76787" y1="1374.15942" x2="806.16193" y2="1416.90052"/><line class="r" x1="764.04444" y1="1380.55677" x2="796.69181" y2="1416.90052"/><line class="s" x1="763.07144" y1="1399.13217" x2="780.36813" y2="1417.21354"/><line class="s" x1="759.5168" y1="1402.7382" x2="772.81939" y2="1416.82237"/><circle class="r" cx="546.79246" cy="827.09006" r="2.40961"/><circle class="r" cx="1030.4651" cy="827.09006" r="2.40961"/><path class="b" d="M273.68037,736.45346s-38.003-14.76658-28.08908-52.76957c9.91373-38.003,191.57069-277.668,264.36865-300.71926,0,0,61.308,30.70807,47.90367,46.04826S328.20646,720.03455,328.20646,720.03455Z"/><path class="d" d="M517.42632,361.753c1.83979-5.28364,61.17455-73.54083,75.32591-77.19842,5.6028-1.44811,26.14418,3.72472,38.83381,8.67,8.37322,3.26311,11.438,8.87811,17.59855,13.73967,4.491,3.54409,7.14385,2.38007,8.52359,6.34072,1.104,3.169-.83292,7.49929-2.66124,10.72465-11.12857,19.632-18.23165,18.31077-38.52791,27.875-1.57161.74059,2.00942-1.093,11.87008-.92413,6.40154.10961,13.996,2.36773,13.5334,8.43357-.35511,4.65633-8.51537,10.63915-15.4539,13.22763-13.3908,4.99556-20.07446,12.93623-35.299,22.356-8.1784,5.06013-19.57184,15.2519-19.57184,15.2519Z"/><path class="e" d="M520.16033,362.50668c-.27562.70033,1.07529-1.54883,1.47352-2.10452,1.26582-1.76633,2.63744-3.46,4.00257-5.14954,3.91461-4.84484,7.968-9.57875,12.06432-14.27028,10.46929-11.9905,21.2586-23.74449,32.61011-34.90794a195.18549,195.18549,0,0,1,15.03692-13.66963c2.96583-2.36282,6.21429-5.19572,10.16124-5.261,9.97012-.16492,20.93792,3.7694,30.24115,6.963,5.29695,1.81832,9.81517,3.97561,13.9389,7.85094,3.80358,3.57447,7.19964,7.475,11.96373,9.79356,1.006.4896,2.4501.81891,3.09937,1.84076,1.31425,2.06844-.25183,5.21768-1.13993,7.08268a59.13241,59.13241,0,0,1-4.75933,7.97234,35.26451,35.26451,0,0,1-9.11643,9.43206c-7.60692,5.131-16.84466,7.44058-24.99409,11.54322-2.08818,1.05125-1.5675,3.73162,0,4.89638,1.4017,1.04155,4.707-.24416,6.2077-.41434,4.782-.54229,11.5925-1.16135,15.86518,1.58469,9.87184,6.34462-17.27935,16.71948-21.106,18.9581-9.755,5.70681-18.78853,13.01249-28.16755,19.32859a170.06917,170.06917,0,0,0-17.94885,14.26887h4.0097l-54.1714-48.4965c-2.71186-2.42776-6.73552,1.56944-4.0097,4.00971l54.1714,48.49649a2.91162,2.91162,0,0,0,4.0097,0c7.9417-7.08087,16.50284-12.89607,25.25172-18.893,5.46518-3.7461,10.625-7.928,16.15214-11.58346,5.35971-3.54473,11.23031-5.52141,16.86548-8.471,7.0725-3.702,18.96464-13.69585,9.33519-21.45526-3.98763-3.21323-9.67249-3.74176-14.59355-3.71583a56.07722,56.07722,0,0,0-7.48163.52407,12.84428,12.84428,0,0,0-2.37624.38779c-1.91535.668-.84444-.68347.84875.57468v4.89638c8.02495-4.04,17.05029-6.35526,24.60969-11.29286,7.74859-5.06118,14.30051-13.79227,17.50341-22.41771,1.56158-4.20533,1.78916-9.34221-2.11644-12.34635-1.981-1.52378-4.50585-2.17145-6.54415-3.67369-2.70293-1.99208-4.92512-4.54365-7.35817-6.84009-8.62254-8.13838-20.77484-11.12954-32.03217-13.85639-6.615-1.60234-15.51765-4.46152-22.08432-1.32623-4.95762,2.36705-9.30522,6.3714-13.37443,9.98232-13.12633,11.648-25.105,24.66723-36.78658,37.73936-5.7599,6.44555-11.44354,12.9683-16.90918,19.66631-2.68993,3.29646-6.23593,6.82136-7.81978,10.84586C513.35551,364.396,518.837,365.86926,520.16033,362.50668Z"/><path class="d" d="M632.7893,294.61192c-2.38623.39556-36.22653-2.80267-53.21486,21.33"/><path class="e" d="M632.7893,291.77664c-7.68459.9097-15.24478.37082-22.92831,2.09214-13.13155,2.94183-24.75406,9.67783-32.73474,20.64213-2.15028,2.95418,2.76743,5.78691,4.89638,2.862,7.544-10.36444,19.0547-16.07172,31.41789-18.4683,6.48416-1.25694,12.89115-.693,19.34878-1.45745,3.58-.42379,3.6227-6.09943,0-5.67057Z"/><path class="d" d="M650.05054,307.26569c-2.38624.39555-40.09677-4.07749-57.0851,20.05519"/><path class="e" d="M650.05054,304.4304c-2.69347.30295-5.57188-.115-8.28085-.08843A100.23968,100.23968,0,0,0,625.18,305.83752c-13.6909,2.43888-26.34239,8.63983-34.6627,20.05234-2.15245,2.9524,2.76543,5.785,4.89638,2.86205,7.85362-10.77239,20.54278-15.87532,33.3645-17.79031,7.10648-1.06138,14.23852-.06948,21.27241-.86062,3.5857-.40331,3.62665-6.07849,0-5.67058Z"/><path class="d" d="M656.4109,322.176c-2.38623.39556-33.8403-3.19822-50.82863,20.93446"/><path class="e" d="M656.4109,319.34076c-7.292.84451-14.42667.22886-21.72667,1.89387a52.80467,52.80467,0,0,0-31.55014,20.44484c-2.14982,2.95457,2.76786,5.78734,4.89637,2.86205,7.30644-10.04152,18.17272-15.92907,30.21789-18.27268,6.08976-1.18487,12.10365-.5558,18.16255-1.25751,3.58249-.4149,3.62445-6.09034,0-5.67057Z"/><path class="d" d="M616.519,351.90449a66.784,66.784,0,0,0-33.12726,9.72342"/><path class="e" d="M616.519,349.0692c-12.014-.131-24.38707,3.94971-34.55829,10.11052-3.11733,1.88819-.27053,6.79381,2.86205,4.89637,9.33126-5.652,20.65872-9.45663,31.69624-9.33631,3.65.03979,3.65264-5.63076,0-5.67058Z"/><path class="d" d="M578.46024,318.74312s20.37938,10.33562,24.45148,20.31716l4.0721,9.98155"/><path class="e" d="M576.88536,321.43742A78.91,78.91,0,0,1,594.515,333.27591c4.99754,4.61676,6.95167,10.447,9.46,16.59542,1.49688,3.66916,7.5365,2.06386,6.01771-1.659-2.754-6.75069-4.874-13.33625-10.2058-18.53886a81.33532,81.33532,0,0,0-19.75175-13.62464c-3.56949-1.82374-6.731,3.55884-3.14976,5.3886Z"/><path class="t" d="M521.73781,361.13861s-7.02015-4.42378-10.61288.52337-7.75448,11.99363-8.45179,15.95092,55.79513,55.84735,61.77566,53.16784,20.86854-14.20128,17.37144-19.54049S521.73781,361.13861,521.73781,361.13861Z"/></svg>