<svg xmlns="http://www.w3.org/2000/svg" preserveAspectRatio = "none" viewBox="0 0 2218.21277 1660.90729"><defs><style>.a{fill:none;stroke:#89b7ff;stroke-miterlimit:10;stroke-width:28.35488px;}</style></defs><polygon class="a" points="412.485 1325.176 1123.125 224.84 1806.272 1325.176 412.485 1325.176"/><path d="M1019.887,171.72722h-12.458l5.4707-16.875h4.67969q6.85546,0,10.84375-1.87866a14.53846,14.53846,0,0,0,6.29492-5.603,23.47206,23.47206,0,0,0,3.03321-9.49218q.72363-5.76746,1.77929-17.699V118.861a13.96807,13.96807,0,0,0-1.21972-6.29516,8.50284,8.50284,0,0,0-3.55957-3.69141q-2.34082-1.2854-7.877-1.2854H993.51976V59.93035h21.292V90.714h15.0293q15.48925,0,23.03808,6.52588,7.54688,6.52587,7.54786,19.97314l-.13282,3.75733-1.582,17.92968q-1.64795,16.80909-11.07422,24.81812T1019.887,171.72722Z"/><path d="M1099.64769,136.593h-20.96191V90.714h20.96191Z"/><path d="M1140.64867,136.593h-20.96192V90.714h20.96192Z"/><path d="M1235.0432,171.72722h-21.291v-45.813q0-9.62367-4.18652-14.33716-4.18653-4.712-13.15039-4.71314a74.13958,74.13958,0,0,0-14.43653,1.582v63.28125h-21.291V93.54851q6.85546-1.12023,16.44629-2.53784a146.65026,146.65026,0,0,1,21.32519-1.41724q17.92823,0,27.25684,9.45923,9.32665,9.4596,9.32715,27.323Z"/><path d="M945.46507,754.60686H924.50316V708.728h20.96191Z"/><path d="M985.14769,789.74114h-12.458l5.4707-16.875h4.67969q6.85547,0,10.84375-1.87842a14.54,14.54,0,0,0,6.29492-5.603,23.47459,23.47459,0,0,0,3.03321-9.49218q.72363-5.76783,1.77929-17.69922v-1.31836a13.967,13.967,0,0,0-1.21972-6.29492,8.50151,8.50151,0,0,0-3.55957-3.69141q-2.34082-1.2854-7.877-1.28564H958.7805v-47.6587h21.292V708.728h15.0293q15.48925,0,23.03809,6.52587,7.54688,6.52589,7.54785,19.97315l-.13281,3.75732-1.582,17.92969q-1.64795,16.80909-11.07421,24.81836Q1003.4724,789.74139,985.14769,789.74114Z"/><path d="M1064.90843,789.74114h-20.96191V708.728h20.96191Z"/><path d="M1158.97288,748.54241q0,21.35742-10.9414,31.9043-10.94385,10.54759-33.61914,10.54687a117.75536,117.75536,0,0,1-30.3877-3.69141l3.16407-16.67724a91.90243,91.90243,0,0,0,23.53222,3.49365q14.10645,0,20.33594-5.89941,6.23-5.89893,6.22949-19.14942,0-13.645-5.208-19.314-5.20752-5.66822-17.26953-5.66895a68.62422,68.62422,0,0,0-9.36133.7251v14.50195h9.88868l-2.70313,16.875h-28.47656V711.49651a122.67255,122.67255,0,0,1,31.707-3.88916q22.544,0,32.82617,9.855Q1158.97288,727.31708,1158.97288,748.54241Z"/><path d="M1197.20628,754.60686h-20.96191V708.728h20.96191Z"/><path d="M1296.47777,749.79485q0,20.36865-10.25,30.78369-10.251,10.41651-30.02637,10.415-19.51171,0-29.62988-10.21728-10.11915-10.21656-10.11817-29.39942V708.728h21.291v39.48486q0,12.394,4.8457,18.98437,4.84423,6.59253,14.07324,6.5918,9.03076,0,13.84278-5.66894,4.81054-5.66822,4.8125-16.21582v-8.56934q0-9.62329-4.08789-14.04053-4.08691-4.415-12.19434-4.4165a57.23125,57.23125,0,0,0-12.39258,1.91162l1.78028-16.74316a53.8979,53.8979,0,0,1,16.21484-2.439q15.624,0,23.73047,9.36035,8.10938,9.36108,8.1084,26.69678Z"/><path d="M1019.35863,870.728l-4.7461,40.86914q-1.97754,15.4248-6.69043,23.8623a28.51065,28.51065,0,0,1-13.249,12.35986q-8.53712,3.92212-22.51172,3.92188H930.43578L918.24144,870.728h21.09375l6.12988,42.1875a20.92782,20.92782,0,0,0,7.58106-4.87793,18.96144,18.96144,0,0,0,3.88867-7.38282,74.97926,74.97926,0,0,0,2.24121-13.44726l1.582-16.47949H981.72l-2.17579,18.98437q-1.71385,14.83155-4.91015,21.32471a28.71318,28.71318,0,0,1-9.49219,10.90918q-6.2959,4.41723-17.17187,7.77832l.7246,5.33935h18.39161q9.09668,0,14.40332-2.373a18.00065,18.00065,0,0,0,8.33789-7.54737,32.03511,32.03511,0,0,0,3.82422-13.085l4.61328-41.33056Z"/><path d="M1055.48265,854.97356l-7.25195,29.26758h-18.127l12.459-29.26758Zm27.42188,0-7.44922,29.26758h-17.92969L1070.05,854.97356Z"/><path d="M1182.04417,951.74114h-21.291V905.66448q0-9.8877-4.31738-14.53467-4.31837-4.64721-13.28223-4.64746a120.28171,120.28171,0,0,0-13.64551.7251v37.771q0,9.95435-3.16406,16.01807a19.772,19.772,0,0,1-9.75586,9.03076,35.75758,35.75758,0,0,1-14.83106,2.96631,43.35906,43.35906,0,0,1-9.82226-.98877l1.8457-16.21582a23.28648,23.28648,0,0,0,4.8125.52734q5.0083,0,7.31641-3.23,2.30712-3.22851,2.30664-11.0083v-32.959l-10.34863,1.8457,2.04394-17.86377q17.20313-3.49292,43.50586-3.49365,18.85107,0,28.74024,8.30566,9.88769,8.30566,9.88671,24.52149Z"/><path d="M945.46507,1078.60686H924.50316V1032.728h20.96191Z"/><path d="M1028.258,1070.82854a37.2916,37.2916,0,0,1-2.999,15.39209,24.92378,24.92378,0,0,1-8.47071,10.51367h16.4795l-2.37305,17.00684H959.967l2.43945-17.20459H985.5432q10.67871,0,16.01758-5.53711,5.34081-5.53712,5.33984-18.58887V1066.478q0-17.86231-24.25781-17.86377a81.466,81.466,0,0,0-11.20606.72509q-5.20752.72657-11.07422,1.97754l2.43848-16.47949a95.76783,95.76783,0,0,1,13.38184-2.5708,117.50111,117.50111,0,0,1,12.78808-.65918q19.44434,0,29.36621,7.84424,9.91992,7.84571,9.9209,25.83984Z"/><path d="M1127.135,1073.79485q0,20.36865-10.25,30.78369-10.251,10.41651-30.02636,10.415-19.51173,0-29.62989-10.21728-10.11914-10.21656-10.11816-29.39942V1032.728h21.291v39.48486q0,12.394,4.8457,18.98437,4.84424,6.59253,14.07324,6.5918,9.03077,0,13.84277-5.66894,4.81056-5.66822,4.8125-16.21582v-8.56934q0-9.62329-4.08789-14.04053-4.08692-4.415-12.19433-4.4165a57.23116,57.23116,0,0,0-12.39258,1.91162l1.78027-16.74316a53.898,53.898,0,0,1,16.21485-2.439q15.624,0,23.73047,9.36035,8.10938,9.36108,8.10839,26.69678Z"/><path d="M1165.36742,1078.60686H1144.4055V1032.728h20.96192Z"/><path d="M1261.67406,1084.07805q0,10.41651-3.49414,16.90821a24.9366,24.9366,0,0,1-10.51368,10.25,32.51382,32.51382,0,0,1-15.58984,3.75732,47.3176,47.3176,0,0,1-8.4707-.7251,24.5283,24.5283,0,0,1-7.877-2.96631l3.69141-14.63378a27.43912,27.43912,0,0,0,8.833,1.64794q12.26074,0,12.26074-14.30419V1067.7304q0-9.03-4.67969-14.17237-4.68164-5.14159-13.25-5.1416a17.75761,17.75761,0,0,0-8.207,2.01074,16.32662,16.32662,0,0,0-6.16308,5.27344,10.87794,10.87794,0,0,0-2.24122,6.03125v52.00928h-21.291v-63.80859a54.61928,54.61928,0,0,0-.29688-5.80079,17.96929,17.96929,0,0,0-1.74707-5.80078l18.3252-7.05322a20.66519,20.66519,0,0,1,4.28516,9.624,34.76511,34.76511,0,0,1,10.9414-7.15185,33.35023,33.35023,0,0,1,12.12891-2.14258q14.96337,0,24.15918,9.624,9.19629,9.6255,9.19629,25.97168Z"/><path d="M1874.07738,1381.26873l-4.7461,40.86938q-1.97754,15.42481-6.69043,23.86231a28.51211,28.51211,0,0,1-13.249,12.35937q-8.53712,3.92286-22.51172,3.92188h-41.72558l-12.19434-81.01294h21.09375l6.12988,42.18774a20.93114,20.93114,0,0,0,7.58106-4.87817,18.96319,18.96319,0,0,0,3.88867-7.38281,74.9876,74.9876,0,0,0,2.24121-13.44727l1.582-16.47949h20.96192l-2.17579,18.98437q-1.71385,14.83155-4.91015,21.32447a28.70947,28.70947,0,0,1-9.49219,10.90917q-6.29591,4.41724-17.17187,7.77833l.7246,5.33984h18.39161q9.09667,0,14.40332-2.373a18.00168,18.00168,0,0,0,8.33789-7.54785,32.03282,32.03282,0,0,0,3.82422-13.085l4.61328-41.33032Z"/><path d="M1910.2014,1365.51433l-7.25195,29.26758h-18.127l12.459-29.26758Zm27.42188,0-7.44922,29.26758h-17.92969l12.52441-29.26758Z"/><path d="M2036.76292,1462.28167h-21.291v-46.07642q0-9.8877-4.31738-14.53491-4.31837-4.64722-13.28223-4.64722a120.2261,120.2261,0,0,0-13.64551.7251V1435.519q0,9.95434-3.16406,16.01856a19.77327,19.77327,0,0,1-9.75586,9.03027,35.75768,35.75768,0,0,1-14.83106,2.9668,43.35708,43.35708,0,0,1-9.82226-.98926l1.8457-16.21582a23.28648,23.28648,0,0,0,4.8125.52734q5.0083,0,7.31641-3.22949,2.30712-3.22924,2.30664-11.00879v-32.95874l-10.34863,1.8457,2.04394-17.86377q17.20313-3.49327,43.50586-3.49365,18.85107,0,28.74024,8.30567,9.88769,8.30566,9.88671,24.52148Z"/><path d="M2101.2971,1463.9301a12.14877,12.14877,0,0,1-8.56933-3.16406,10.17247,10.17247,0,0,1-3.42774-7.77832,9.79234,9.79234,0,0,1,3.52637-7.77832,13.02291,13.02291,0,0,1,8.79981-3.03223,12.53438,12.53438,0,0,1,8.73437,3.065,10.6154,10.6154,0,0,1-.06543,15.62255A13.06813,13.06813,0,0,1,2101.2971,1463.9301Z"/><path d="M2206.10765,1432.61858q0,10.41651-3.49414,16.9082a24.93364,24.93364,0,0,1-10.51367,10.25,32.51407,32.51407,0,0,1-15.58985,3.75782,47.31662,47.31662,0,0,1-8.4707-.72559,24.53846,24.53846,0,0,1-7.877-2.96582l3.6914-14.63379a27.45093,27.45093,0,0,0,8.833,1.64746q12.26075,0,12.26074-14.30371v-16.282q0-9.03039-4.67968-14.17236-4.68165-5.14161-13.25-5.14161a17.76025,17.76025,0,0,0-8.207,2.0105,16.32876,16.32876,0,0,0-6.16309,5.27344,10.87856,10.87856,0,0,0-2.24121,6.03149v52.009h-21.291v-63.80835a54.61834,54.61834,0,0,0-.29687-5.80078,17.96746,17.96746,0,0,0-1.74707-5.80079l18.32519-7.05322a20.664,20.664,0,0,1,4.28516,9.624,34.76584,34.76584,0,0,1,10.94141-7.1521,33.35537,33.35537,0,0,1,12.1289-2.14234q14.96339,0,24.15918,9.624,9.19629,9.62511,9.19629,25.97167Z"/><path d="M54.00706,1443.89885v-46.99951a39.66,39.66,0,0,1,1.0879-9.624,16.15182,16.15182,0,0,1,4.51562-7.7124q-6.26367.46215-13.77734.46142H19.99339l2.90039-17.13867H88.94359l-2.50488,17.13867H84.46117q-5.14161,0-7.416,3.09815-2.27343,3.0996-2.27441,11.272v49.50439Z"/><path d="M137.85472,1361.76507q21.02637,0,30.38867,6.52587,9.35889,6.52589,9.35938,20.76416l-.65821,12.063q-1.38573,16.15137-6.16406,25.04883a30.90493,30.90493,0,0,1-14.00781,13.41455q-9.22851,4.51539-25.44336,5.56983l2.1748-17.86377q7.91016-1.11989,11.96387-3.2959a15.49437,15.49437,0,0,0,6.32813-6.26221q2.2749-4.08618,3.39453-11.7334a94.83,94.83,0,0,0,1.12109-13.5791q0-5.60155-2.043-8.37158a11.73155,11.73155,0,0,0-6.2959-4.05371q-4.251-1.28541-13.01855-1.28565-16.67724,0-39.2207,4.48243l2.10937-17.86377A240.0065,240.0065,0,0,1,137.85472,1361.76507ZM123.55,1477.71477H102.259v-83.25439H123.55Z"/><path d="M269.88792,1402.70012q0,21.35743-10.9414,31.9043-10.94385,10.54761-33.61914,10.54688a117.75536,117.75536,0,0,1-30.3877-3.69141l3.16406-16.67725a91.90262,91.90262,0,0,0,23.53223,3.49366q14.10645,0,20.33594-5.89942,6.23-5.89893,6.22949-19.14941,0-13.645-5.208-19.314-5.20752-5.66822-17.26953-5.66894a68.62263,68.62263,0,0,0-9.36133.7251v14.502h9.88868l-2.70313,16.875H195.07152v-44.69238a122.67212,122.67212,0,0,1,31.707-3.88916q22.54395,0,32.82617,9.855Q269.88793,1381.47478,269.88792,1402.70012Z"/><path d="M363.426,1414.23577q0,10.4165-3.49414,16.9082a24.93657,24.93657,0,0,1-10.51367,10.25,32.51386,32.51386,0,0,1-15.58985,3.75733,47.31768,47.31768,0,0,1-8.4707-.7251,24.5284,24.5284,0,0,1-7.87695-2.96631l3.6914-14.63379a27.4392,27.4392,0,0,0,8.833,1.648q12.26074,0,12.26074-14.3042v-16.28174q0-9.03-4.67968-14.17236-4.68165-5.14161-13.25-5.1416a17.75762,17.75762,0,0,0-8.207,2.01074,16.32653,16.32653,0,0,0-6.16308,5.27344,10.87787,10.87787,0,0,0-2.24121,6.03125v52.00927h-21.291v-63.80859a54.62166,54.62166,0,0,0-.29687-5.80078,17.96922,17.96922,0,0,0-1.74707-5.80078l18.32519-7.05322a20.665,20.665,0,0,1,4.28516,9.624,34.76526,34.76526,0,0,1,10.9414-7.15186,33.35044,33.35044,0,0,1,12.12891-2.14257q14.96339,0,24.15918,9.624,9.19629,9.62549,9.19629,25.97168Z"/></svg>