<svg xmlns="http://www.w3.org/2000/svg" xmlns:xlink="http://www.w3.org/1999/xlink" viewBox="0 0 1490.61388 1490.61388"><defs><style>.a{fill:#88bf51;}.b,.c,.g,.j,.p,.q,.r,.s,.t{fill:#fff;}.b,.e,.f,.g,.h,.i,.j,.k,.l,.m,.n,.o,.p,.q,.r,.s,.t{stroke:#1d1d1b;stroke-miterlimit:10;}.b{stroke-width:0.34142px;}.d,.f,.h,.i,.l{fill:#1d1d1b;}.e,.m{fill:#dadada;}.e,.j,.k,.o{stroke-width:6.82835px;}.f{stroke-width:1.91131px;}.g{stroke-width:8.41881px;}.h{stroke-width:10.82418px;}.i{stroke-width:1.92527px;}.k{fill:#c6c6c6;}.l{stroke-width:6.99111px;}.m{stroke-width:6.43857px;}.n{fill:#ededed;}.n,.q{stroke-width:3.07276px;}.o{fill:#b2b2b2;}.p{stroke-width:6.93816px;}.r{stroke-width:2.44878px;}.s{stroke-width:2.87221px;}.t{stroke-width:2.28896px;}</style></defs><circle class="a" cx="745.30694" cy="745.30694" r="745.30694"/><path class="b" d="M681.68651,660.22611c-7.55924,0-24.18875,52.64772-24.18875,52.64772L770.40644,774.6729,870.1075,705.634l-37.35165-65.80571Z"/><path class="c" d="M1174.49841,1297.762c0,5.05281,30.3353,80.89106,41.31877,88.21338,4.34857,2.899,23.4046,4.58763,35.69628,4.13847,8.11063-.29638,12.39218-4.17523,19.09032-6.49207,4.883-1.689,6.79984.09165,9.15289-2.87663,1.88275-2.375,1.51678-6.64352.91529-9.93742-3.66116-20.04919-10.11177-21.03183-24.582-35.21684-1.12049-1.0984,1.38923,1.529,9.84955,4.31343,5.49244,1.80768,12.64041,2.13718,14.04732-3.17378,1.08-4.07685-4.10311-11.60309-9.25225-15.87145-9.93742-8.23761-13.27966-16.99517-23.46721-29.55077-5.47258-6.74466-12.16326-18.82093-12.16326-18.82093Z"/><path class="d" d="M1171.93778,1297.762c.14251,3.26508,1.75261,6.69274,2.83364,9.70908,2.24138,6.254,4.68816,12.43641,7.19651,18.5874,6.08142,14.91293,12.48931,29.78354,20.01123,44.03486,2.65543,5.03107,5.40784,10.17572,8.99145,14.623,3.69444,4.58479,8.58465,5.59721,14.2906,6.45407,9.91439,1.48885,21.789,3.09825,31.68092.77922,5.09656-1.19482,9.38772-4.32457,14.34236-5.85866,3.90859-1.2102,8.00489-.33014,10.68321-4.05339,3.25443-4.52413,1.43512-11.4207.25157-16.3184a40.58532,40.58532,0,0,0-5.29749-13.01835c-5.07633-7.63943-13.14136-12.50637-19.27242-19.17359l-3.103,4.02167c6.76806,3.15265,14.96562,8.3184,22.75388,5.3724,10.16162-3.84374,3.27067-15.48842-1.50215-20.74609-4.07771-4.49194-8.79817-8.03307-12.4719-12.953-3.62147-4.85-6.82573-9.99671-10.45277-14.84466a205.69216,205.69216,0,0,1-15.55829-23.18254,2.57447,2.57447,0,0,0-2.89175-1.17677l-60.60565,25.27461c-2.99755,1.25008-1.682,6.20755,1.36144,4.93833l60.60565-25.27461-2.89175-1.17676a151.99129,151.99129,0,0,0,10.57335,16.76384c5.6128,7.5599,10.89374,15.4378,16.66222,22.87438a67.90813,67.90813,0,0,0,8.79529,9.25172c3.14571,2.78718,8.72925,7.88484,8.54046,12.54581-.33933,8.37773-17.00561-.53867-20.33323-2.08872a2.57267,2.57267,0,0,0-3.103,4.02167c5.04362,5.48468,11.38767,9.67578,16.28373,15.30791a28.85533,28.85533,0,0,1,5.159,8.60347c1.671,4.33619,3.87042,10.82281,3.02619,15.43308-.68521,3.7419-2.39067,3.4364-5.38034,3.91177a25.55867,25.55867,0,0,0-5.93446,1.82146c-5.22114,2.195-9.86529,4.98708-15.66872,5.327a113.53278,113.53278,0,0,1-28.5098-1.94361c-4.86625-.98374-7.03382-2.41755-9.76708-6.40981a130.105,130.105,0,0,1-8.14047-14.2013c-6.49585-12.65774-12.21294-25.73327-17.61286-38.89063-2.58339-6.29463-5.09791-12.62246-7.42-19.01873-.74548-2.0535-1.48387-4.1132-2.13778-6.19807-.23721-.75628-.48183-1.515-.67234-2.285-.12467-.5039-.20958-1.19813-.19412-.84406C1176.91575,1294.47912,1171.79371,1294.46128,1171.93778,1297.762Z"/><path class="c" d="M1252.95177,1389.28781c-1.91775-1.046-31.73-8.36836-39.05234-33.99645"/><path class="d" d="M1254.24417,1387.07678c-5.31892-2.57188-10.99029-4.04962-16.19243-7.01573-10.09209-5.75423-18.25034-14.1608-21.68315-25.45041-.95615-3.14454-5.90086-1.8041-4.93832,1.36143,3.50355,11.5223,11.33676,20.55451,21.41214,26.93493,5.64878,3.57719,13.97435,6.25027,18.817,8.59184,2.95424,1.42848,5.55432-2.98619,2.5848-4.42206Z"/><path class="c" d="M1271.4319,1383.62174c-1.91775-1.04605-35.40956-8.43048-42.73187-34.05857"/><path class="d" d="M1272.7243,1381.41071c-5.82085-2.77219-12.2036-4.09612-18.0053-7.10483-10.63205-5.51369-19.96038-13.6496-23.54981-25.42343-.9584-3.14368-5.90318-1.80343-4.93833,1.36143,3.65621,11.99284,12.52682,20.90787,23.22559,27.02667a88.91225,88.91225,0,0,0,13.4686,6.16876c1.59888.58812,3.21391,1.12814,4.83491,1.6516a19.3821,19.3821,0,0,0,2.37954.74186c2.96046,1.40993,5.56206-3.00413,2.5848-4.42206Z"/><path class="c" d="M1281.28483,1372.79361c-1.91775-1.046-29.81228-7.32232-37.1346-32.95041"/><path class="d" d="M1282.57723,1370.58258c-5.00936-2.4093-10.36188-3.71306-15.26358-6.508-9.83217-5.6063-17.37339-13.97439-20.69425-24.9121-.95488-3.145-5.89955-1.80447-4.93833,1.36143a47.66486,47.66486,0,0,0,20.48254,26.42379c5.37092,3.43552,13.25791,5.85852,17.82882,8.05694,2.95646,1.42194,5.55707-2.99252,2.5848-4.42206Z"/><path class="c" d="M1256.08991,1335.59085a60.31459,60.31459,0,0,1-25.36659-18.13145"/><path class="d" d="M1256.77062,1333.12168c-9.45359-3.17669-17.96306-9.88886-24.23666-17.47292-2.10249-2.54166-5.70781,1.09891-3.62128,3.62128,6.849,8.2796,16.21749,15.3359,26.49651,18.79,3.13114,1.05216,4.47445-3.89226,1.36143-4.93833Z"/><path class="c" d="M1213.781,1352.57132s20.45114-2.76288,26.88862-10.0668l6.43747-7.30393"/><path class="d" d="M1214.53019,1355.2887a75.46029,75.46029,0,0,0,19.86688-5.35217c6.35112-2.78678,10.21485-7.65136,14.70272-12.74328,2.39015-2.71185-1.58128-6.71292-3.98532-3.98532-4.26848,4.843-7.82345,9.4918-13.94769,12.01764a74.90254,74.90254,0,0,1-18.13489,4.62837c-3.57716.49483-2.05459,5.92623,1.4983,5.43476Z"/><path class="c" d="M321.585,1314.81426c0,5.05281-30.3353,80.89106-41.31877,88.21338-4.34857,2.899-23.4046,4.58763-35.69628,4.13847-8.11062-.29638-12.39218-4.17523-19.09032-6.49207-4.88295-1.689-6.79984.09165-9.15289-2.87663-1.88275-2.375-1.51678-6.64352-.91529-9.93742,3.66116-20.04919,10.11177-21.03183,24.58206-35.21684,1.12048-1.0984-1.38924,1.529-9.84956,4.31343-5.49243,1.80768-12.64041,2.13718-14.04732-3.17378-1.08-4.07685,4.10311-11.60309,9.25225-15.87145,9.93742-8.23761,13.27966-16.99517,23.46721-29.55077,5.47258-6.74466,12.16326-18.82093,12.16326-18.82093Z"/><path class="d" d="M319.02441,1314.81426c.01351-.30953-.39384,1.5713-.60085,2.27368-.5405,1.834-1.18432,3.64083-1.824,5.44189-1.856,5.226-3.873,10.39582-5.93587,15.54309-5.36159,13.37842-11.0869,26.642-17.462,39.57138-2.62522,5.32422-5.3473,10.62871-8.46737,15.68341-1.77446,2.87473-3.74681,6.61913-6.94678,8.09058-7.55507,3.47406-18.24726,3.08523-26.36664,3.23362-5.40846.09885-10.58641-.01207-15.6334-2.18519-4.11334-1.77112-8.00966-4.18195-12.48038-4.964-3.49961-.61218-5.7537-.63177-5.82014-5.09645a36.96574,36.96574,0,0,1,1.6486-9.60072,33.62975,33.62975,0,0,1,4.98552-11.24655c4.88278-6.76785,12.32728-11.261,17.93422-17.35824a2.57268,2.57268,0,0,0-3.103-4.02167c-3.52381,1.64144-18.3402,10.12262-20.38649,2.923-1.21246-4.26588,5.34353-10.48221,8.04291-12.89907a73.62275,73.62275,0,0,0,9.3461-9.73275c5.63894-7.26958,10.71862-14.994,16.26188-22.34479a148.61245,148.61245,0,0,0,10.97369-17.29343l-2.89175,1.17676,60.60566,25.27461c3.0382,1.267,4.36387-3.68621,1.36143-4.93833l-60.60565-25.27461a2.56175,2.56175,0,0,0-2.89175,1.17677,206.22009,206.22009,0,0,1-15.55828,23.18254c-3.6253,4.84922-6.83483,9.99205-10.45278,14.84466-3.66814,4.91993-8.38,8.47637-12.4719,12.953-4.78979,5.24017-11.64749,16.9095-1.50215,20.74609,7.788,2.94514,15.986-2.21983,22.75388-5.3724l-3.103-4.02167c-5.64443,6.138-12.88883,10.70734-17.97665,17.37951-5.09747,6.68482-8.4188,16.81814-8.06151,25.20727.16078,3.77506,1.73309,7.54859,5.5838,8.79,1.68344.54273,3.57618.35154,5.29676.74117,3.50341.79334,6.66936,2.74841,9.92626,4.19134,9.71895,4.30586,21.158,3.15247,31.48261,2.09816,6.09862-.62277,14.17-.79366,18.8236-5.37193,3.54229-3.485,6.08169-8.2553,8.47324-12.548,7.64222-13.71736,13.92573-28.23172,19.96806-42.70826,3.06147-7.33482,6.03054-14.71477,8.76157-22.17973,1.28518-3.5129,3.26742-7.552,3.43384-11.36477C324.2895,1311.51905,319.16794,1311.526,319.02441,1314.81426Z"/><path class="c" d="M243.13168,1406.34011c1.91775-1.046,31.73-8.36836,39.05234-33.99645"/><path class="d" d="M244.42408,1408.55114c4.846-2.34319,13.16921-5.0153,18.817-8.59184,10.07338-6.37916,17.90927-15.41491,21.41213-26.93493.96092-3.16019-3.98063-4.511-4.93832-1.36143-3.4314,11.285-11.59163,19.70057-21.68315,25.45041-5.20307,2.96455-10.87353,4.44386-16.19243,7.01573-2.96631,1.43432-.37231,5.85193,2.5848,4.42206Z"/><path class="c" d="M224.65156,1400.674c1.91774-1.04605,35.40955-8.43048,42.73187-34.05857"/><path class="d" d="M225.944,1402.88507c-.6119.29142,1.66662-.51274,2.14475-.66708,1.58175-.51059,3.159-1.03161,4.72128-1.59975a89.18806,89.18806,0,0,0,13.817-6.29539c10.6989-6.11886,19.56933-15.03365,23.22559-27.02667.96323-3.15953-3.97838-4.51018-4.93833-1.36143-3.58954,11.77419-12.916,19.90881-23.54981,25.42343-5.80241,3.00908-12.18386,4.33236-18.00529,7.10483-2.97406,1.4164-.37854,5.83335,2.58479,4.42206Z"/><path class="c" d="M214.79863,1389.84591c1.91774-1.046,29.81227-7.32232,37.13459-32.95041"/><path class="d" d="M216.091,1392.05694c4.55938-2.19288,12.468-4.62789,17.82882-8.05694a47.6619,47.6619,0,0,0,20.48254-26.42379c.9596-3.16057-3.98191-4.51152-4.93833-1.36143-3.322,10.94154-10.86508,19.2968-20.69425,24.9121-4.901,2.79988-10.25339,4.0983-15.26357,6.508-2.96907,1.428-.37454,5.84538,2.58479,4.42206Z"/><path class="c" d="M239.99355,1352.64315a60.31459,60.31459,0,0,0,25.36658-18.13145"/><path class="d" d="M240.67426,1355.11231c10.279-3.45407,19.64755-10.51037,26.49651-18.79,2.08564-2.52129-1.51789-6.164-3.62128-3.62128-6.27634,7.58738-14.78091,14.2955-24.23666,17.47292-3.108,1.04438-1.775,5.99227,1.36143,4.93833Z"/><path class="c" d="M282.30241,1369.62362s-20.45114-2.76288-26.88862-10.0668l-6.43747-7.30393"/><path class="d" d="M283.05156,1366.90624a75.01777,75.01777,0,0,1-18.13489-4.62837c-6.12336-2.52259-9.68137-7.17709-13.94769-12.01764-2.403-2.72643-6.37649,1.27232-3.98532,3.98532,4.49436,5.09927,8.34556,9.95021,14.70272,12.74328a75.34784,75.34784,0,0,0,19.86688,5.35217c3.54715.49068,5.08113-4.93915,1.4983-5.43476Z"/><path class="e" d="M476.79465,774.6729s-145.40024,322.18181-157.95277,348.33293-55.44038,127.61747-50.21016,137.03188,57.53247,27.19716,63.80874,25.10507,99.37426-169.45926,105.65053-191.4262,77.01423-94.70532,70.39378-125.52538-10.76923-193.5183-10.76923-193.5183Z"/><path class="e" d="M1010.68132,757.93619s145.40023,322.18181,157.95277,348.33293,55.44038,127.61747,50.21015,137.03187-57.53246,27.19716-63.80873,25.10508-99.37426-169.45927-105.65053-191.42621-77.01424-94.70532-70.39378-125.52538,10.76922-193.51829,10.76922-193.51829Z"/><path class="e" d="M598.26916,718.135S479.93278,764.21246,476.79465,774.6729s50.34346,312.76741,60.73725,342.05666,49.09745,154.81464,42.82118,157.42975-2.09209,21.44392,4.18418,26.67414,308.81652,14.64463,324.91357,6.27627,14.005-25.10507,9.82078-25.10507,42.88784-158.47579,43.93388-204.76328,47.47583-319.30518,47.47583-319.30518L870.1075,705.634l-117.264,47.35294Z"/><path class="f" d="M534.585,414.42483S498.98029,155.527,621.22311,109.4114s202.762-24.15577,202.762-24.15577,122.24282,21.95979,153.71852,82.7152,49.04353,42.45559,49.04353,42.45559,3.66,13.90787-12.44388,16.10385-35.28391,198.52016-35.28391,198.52016Z"/><path class="g" d="M554.6106,290.94555c-.41287,17.33723-2.36339,99.32055-2.9267,122.97486,0,0-42.33637-5.55732-43.1875,27.8158-.8586,33.67176,46.1142,39.52749,46.1142,39.52749s19.99879,218.26466,208.14211,218.09012C918.5266,695.77431,960.25256,511.04554,961.631,482.97257c.09735-1.98273,1.04279-1.76227,3.01951-1.94477,35.66444-3.2926,53.8906-63.87034-8.90646-68.57144l-1.46335-121.51081S880.31105,231.26,872.52185,235.93543c-23.97177,14.38892-89.55081,30.4562-268.13458,1.57473,0,0-17.78742,8.8188-49.77667,53.43539"/><path class="d" d="M633.309,328.27807s33.63819-6.61905,48.3775-4.16249"/><path class="d" d="M634.90762,334.07669c5.65274-1.10647,11.3547-2.02266,17.0629-2.78764,9.03894-1.21135,19.016-2.75182,28.11738-1.37485,7.57157,1.14553,10.83664-10.44146,3.19722-11.59725-16.8199-2.54473-35.02592.92322-51.57472,4.16249-7.58842,1.48536-4.37594,13.07963,3.19722,11.59725Z"/><path class="d" d="M832.75585,323.21569s31.94375,0,48.26237,5.33408"/><path class="d" d="M832.75585,329.22912c15.40458.01768,31.88332.47479,46.66376,5.11928,7.401,2.32562,10.56762-9.28124,3.19722-11.59726-15.74576-4.94782-33.44222-5.53-49.861-5.54889-7.73909-.00888-7.75114,12.018,0,12.02687Z"/><ellipse class="h" cx="849.58982" cy="396.46516" rx="16.83397" ry="10.9358"/><ellipse class="h" cx="660.44393" cy="396.46516" rx="16.83397" ry="10.9358"/><ellipse class="i" cx="756.9325" cy="555.42261" rx="13.47394" ry="8.75303"/><path class="d" d="M709.98829,619.11664c7.95718,6.734,18.47147,10.978,28.55992,13.09385,24.80145,5.20155,49.44461-2.49743,70.3414-15.94153,6.48815-4.1742.46468-14.5891-6.07019-10.38484-18.35383,11.80806-40.15583,19.43765-62.05994,14.515a62.32735,62.32735,0,0,1-16.816-6.317c-1.63481-.91358-3.19373-1.9257-4.75-2.96391-.4938-.32942-2.23234-1.66089-.28707-.17129-.14071-.10775-.27864-.2201-.41395-.3346-5.87444-4.97139-14.423,3.49539-8.50427,8.50428Z"/><path class="e" d="M651.39417,667.73408s-42.27485,24.56279-53.25832,44.17613S720.00007,813.37656,720.00007,813.37656s37.11014-56.22491,32.54886-63.28571S651.39417,667.73408,651.39417,667.73408Z"/><path class="e" d="M858.52132,667.73408s39.30637,29.27,50.28984,48.88334-123.11487,99.89713-123.11487,99.89713-32.891-59.3629-28.32973-66.4237S858.52132,667.73408,858.52132,667.73408Z"/><path class="j" d="M743.67166,1306.32519s-4.31976-250.26623-5.88883-271.44863,14.7661-284.78571,14.7661-284.78571-14.75645,367.94627-8.87727,396.18948S743.67166,1306.32519,743.67166,1306.32519Z"/><path class="j" d="M582.9682,916.935c-1.56907,3.66116-9.93743,47.595-9.93743,47.595l8.88556-.2274,93.29762-2.38771L668.74387,916.935Z"/><path class="k" d="M581.91633,964.30264s1.85321,46.25337,15.57415,58.28289,62.362,5.62249,62.362,5.62249l4.18418-63.90538"/><path class="j" d="M920.31765,916.935c1.56907,3.66116,9.93743,47.595,9.93743,47.595l-8.88556-.2274-93.29761-2.38771L834.542,916.935Z"/><path class="k" d="M921.36952,964.30264s-1.85321,46.25337-15.57414,58.28289-62.362,5.62249-62.362,5.62249l-4.18418-63.90538"/><path class="j" d="M973.86059,802.674s15.742-5.23005,17.05286-19.08393-32.68954-27.12818-41.66952-31.53018-37.55912-10.36426-40.29441-11.47067-12.40458,25.19711-8.88707,26.54716l3.51751,1.35005Z"/><rect class="l" x="581.91633" y="1300.83345" width="340.58792" height="50.21015"/><rect class="j" x="724.05755" y="1306.32519" width="56.3055" height="38.44215"/><path class="e" d="M1153.973,1270.56688s-7.25736,4.1969-4.64225,9.95015,6.79929,13.07556,9.93743,15.69067,75.83825-23.013,76.36127-29.81228-2.433-26.15112-8.80033-25.6281S1153.973,1270.56688,1153.973,1270.56688Z"/><path class="m" d="M327.723,1291.5729s6.1435,4.28535,3.92976,10.15985-5.75573,13.35114-8.41222,16.02137-64.19852-23.498-64.64127-30.4406,2.05959-26.70227,7.44965-26.16823S327.723,1291.5729,327.723,1291.5729Z"/><path class="n" d="M511.49641,768.23681s-13.571-19.94481.16774-30.81052,44.32644-35.61525,56.23227-18.93973,12.79792,22.32254,12.79792,22.32254"/><path class="n" d="M533.78207,799.86316s16.46165,34.71544,31.2265,37.99355,45.6724-10.56393,41.75367-27.17438-12.59637-40.19249-12.59637-40.19249Z"/><path class="i" d="M515.96706,750.95468s25.89529,31.73,35.69912,58.22983,1.12582,13.72734,1.12582,13.72734-35.77889-62.36842-36.82494-65.15788S515.96706,750.95468,515.96706,750.95468Z"/><path class="j" d="M522.93165,802.674s-15.742-5.23005-17.05287-19.08393,32.68954-27.12818,41.66952-31.53018,37.55912-10.36426,40.29441-11.47067,12.40458,25.19711,8.88707,26.54716l-3.5175,1.35005Z"/><path class="o" d="M581.91626,1351.04355c-7.68622,20.493-25.58046,115.40126-25.58046,115.40126s279.73272,64.94932,399.86413-6.088c0,0-17.01763-91.01339-33.69568-104.03841S581.91626,1351.04355,581.91626,1351.04355Z"/><line class="p" x1="748.2657" y1="1348.77652" x2="748.2657" y2="1490.61388"/><line class="q" x1="857.70814" y1="916.935" x2="830.1912" y2="947.56746"/><line class="q" x1="925.36433" y1="934.26489" x2="899.82158" y2="962.69964"/><line class="q" x1="866.06743" y1="918.94341" x2="830.1912" y2="958.8816"/><line class="q" x1="874.63576" y1="918.35156" x2="836.59297" y2="960.70162"/><line class="q" x1="883.00881" y1="918.76336" x2="845.36053" y2="960.67424"/><line class="q" x1="892.17935" y1="918.79074" x2="853.05025" y2="962.3501"/><line class="q" x1="902.03494" y1="918.35156" x2="862.90585" y2="961.91092"/><line class="q" x1="911.59829" y1="918.35156" x2="872.46919" y2="961.91092"/><line class="q" x1="919.84957" y1="919.27774" x2="880.84396" y2="962.69964"/><line class="q" x1="923.6323" y1="925.77699" x2="890.46492" y2="962.69964"/><line class="r" x1="850.35331" y1="916.2558" x2="830.1912" y2="937.3326"/><line class="r" x1="924.6208" y1="944.64826" x2="907.04861" y2="963.01764"/><line class="r" x1="928.23206" y1="948.31173" x2="914.71759" y2="962.62024"/><line class="q" x1="645.62585" y1="917.19982" x2="673.14279" y2="947.83228"/><line class="q" x1="577.96966" y1="934.52971" x2="603.51241" y2="962.96446"/><line class="q" x1="637.26656" y1="919.20822" x2="673.14279" y2="959.14642"/><line class="q" x1="628.69823" y1="918.61637" x2="666.74102" y2="960.96644"/><line class="q" x1="620.32518" y1="919.02817" x2="657.97346" y2="960.93906"/><line class="q" x1="611.15464" y1="919.05555" x2="650.28374" y2="962.61492"/><line class="q" x1="601.29905" y1="918.61637" x2="640.42815" y2="962.17574"/><line class="q" x1="591.7357" y1="918.61637" x2="630.8648" y2="962.17574"/><line class="q" x1="583.48442" y1="919.54256" x2="622.49003" y2="962.96446"/><line class="q" x1="579.70169" y1="926.0418" x2="612.86907" y2="962.96446"/><line class="r" x1="652.98068" y1="916.52062" x2="673.14279" y2="937.59741"/><line class="r" x1="578.71319" y1="944.91308" x2="596.28538" y2="963.28246"/><line class="r" x1="575.10193" y1="948.57655" x2="588.61641" y2="962.88506"/><line class="s" x1="723.93598" y1="1318.94384" x2="747.81169" y2="1345.52279"/><line class="s" x1="771.35377" y1="1304.06908" x2="780.96137" y2="1313.30677"/><line class="s" x1="763.52718" y1="1304.45401" x2="780.96137" y2="1323.86213"/><line class="s" x1="754.95516" y1="1304.4796" x2="782.31813" y2="1334.94066"/><line class="s" x1="745.74279" y1="1304.06908" x2="782.31813" y2="1344.78556"/><line class="s" x1="736.80359" y1="1304.06908" x2="773.37893" y2="1344.78556"/><line class="s" x1="729.09083" y1="1304.93482" x2="765.55074" y2="1345.52279"/><line class="s" x1="725.55497" y1="1311.00989" x2="756.55769" y2="1345.52279"/><line class="t" x1="724.63098" y1="1328.64954" x2="741.05633" y2="1345.82004"/><line class="t" x1="721.25541" y1="1332.07391" x2="733.88787" y2="1345.44858"/><circle class="s" cx="519.24726" cy="785.4246" r="2.28822"/><circle class="s" cx="978.55443" cy="785.4246" r="2.28822"/><image width="512" height="512" transform="translate(1063.12981 651.95824) scale(0.67981)" xlink:href="../../../%D7%99%D7%95%D7%A0%D7%99/%D7%9C%D7%95%D7%9E'%D7%93%D7%95%D7%AA/%D7%9B%D7%9C%D7%99%D7%9D/hammer.png"/><image width="512" height="512" transform="translate(121.51425 162.66958) scale(0.75)" xlink:href="../../../%D7%99%D7%95%D7%A0%D7%99/%D7%9C%D7%95%D7%9E'%D7%93%D7%95%D7%AA/%D7%9B%D7%9C%D7%99%D7%9D/screwdriver.png"/><image width="512" height="512" transform="translate(0 600.63222) scale(0.75)" xlink:href="../../../%D7%99%D7%95%D7%A0%D7%99/%D7%9C%D7%95%D7%9E'%D7%93%D7%95%D7%AA/%D7%9B%D7%9C%D7%99%D7%9D/wire-cutter.png"/><image width="512" height="512" transform="translate(984.52624 266.93292) scale(0.64155)" xlink:href="../../../%D7%99%D7%95%D7%A0%D7%99/%D7%9C%D7%95%D7%9E'%D7%93%D7%95%D7%AA/%D7%9B%D7%9C%D7%99%D7%9D/wood-chisel.png"/></svg>